<?xml version="1.0" standalone="no"?>
<!DOCTYPE svg PUBLIC "-//W3C//DTD SVG 1.1//EN" "http://www.w3.org/Graphics/SVG/1.1/DTD/svg11.dtd" >
<svg>
<metadata>
Created by FontForge 20110222 at Thu Feb 26 08:03:51 2015
 By deploy user
Font software Copyright 1993, 1994, 2001 Adobe Systems Incorporated. Typeface designs Copyright 2005 International Typeface Corporation. All rights reserved.
</metadata>
<defs>
<font id="ITCAvantGardePro-XLt" horiz-adv-x="851" >
  <font-face 
    font-family="ITC Avant Garde Pro XLt"
    font-weight="275"
    font-stretch="normal"
    units-per-em="1000"
    panose-1="2 0 5 3 3 0 0 2 0 4"
    ascent="740"
    descent="-260"
    x-height="530"
    cap-height="740"
    bbox="-132 -274 1203 998"
    underline-thickness="50"
    underline-position="-50"
    unicode-range="U+0020-FB04"
  />
<missing-glyph horiz-adv-x="500" 
d="M12 0v665h475v-665h-475zM88 618l162 -243l161 243h-323zM60 575v-484l40 61l80 120l41 61zM440 575l-162 -242l162 -243v485zM411 48l-161 242l-162 -242h323z" />
    <glyph glyph-name="f_t" unicode="ft" horiz-adv-x="459" 
d="M451 504h-136v-504h-28v504h-165v-504h-28v504h-87v26h87v52q0 163 166 171v-27q-19 -2 -29 -3t-34 -9.5t-37.5 -22t-25.5 -41t-12 -65.5v-55h165v210h28v-210h136v-26z" />
    <glyph glyph-name="f_f_t" unicode="fft" horiz-adv-x="652" 
d="M644 504h-136v-504h-28v504h-165v-504h-28v504h-165v-504h-28v504h-87v26h87v52q0 163 166 171v-27q-19 -2 -29 -3t-34 -9.5t-37.5 -22t-25.5 -41t-12 -65.5v-55h165v52q0 163 166 171v-27q-19 -2 -29 -3t-34 -9.5t-37.5 -22t-25.5 -41t-12 -65.5v-55h165v210h28v-210
h136v-26z" />
    <glyph glyph-name="f_f" unicode="ff" horiz-adv-x="522" 
d="M480 504h-165v-504h-28v504h-165v-504h-28v504h-87v26h87v52q0 163 166 171v-27q-19 -2 -29 -3t-34 -9.5t-37.5 -22t-25.5 -41t-12 -65.5v-55h165v52q0 163 166 171v-27q-19 -2 -29 -3t-34 -9.5t-37.5 -22t-25.5 -41t-12 -65.5v-55h165v-26z" />
    <glyph glyph-name="f_i" unicode="fi" horiz-adv-x="393" 
d="M315 649h-28v91h28v-91zM315 0h-28v504h-165v-504h-28v504h-87v26h87v52q0 163 166 171v-27q-19 -2 -29 -3t-34 -9.5t-37.5 -22t-25.5 -41t-12 -65.5v-55h193v-530z" />
    <glyph glyph-name="f_l" unicode="fl" horiz-adv-x="393" 
d="M315 0h-28v504h-165v-504h-28v504h-87v26h87v52q0 163 166 171v-27q-19 -2 -29 -3t-34 -9.5t-37.5 -22t-25.5 -41t-12 -65.5v-55h165v210h28v-740z" />
    <glyph glyph-name="f_f_i" unicode="ffi" horiz-adv-x="586" 
d="M508 649h-28v91h28v-91zM508 0h-28v504h-165v-504h-28v504h-165v-504h-28v504h-87v26h87v52q0 163 166 171v-27q-19 -2 -29 -3t-34 -9.5t-37.5 -22t-25.5 -41t-12 -65.5v-55h165v52q0 163 166 171v-27q-19 -2 -29 -3t-34 -9.5t-37.5 -22t-25.5 -41t-12 -65.5v-55h193
v-530z" />
    <glyph glyph-name="f_f_l" unicode="ffl" horiz-adv-x="586" 
d="M508 0h-28v504h-165v-504h-28v504h-165v-504h-28v504h-87v26h87v52q0 163 166 171v-27q-19 -2 -29 -3t-34 -9.5t-37.5 -22t-25.5 -41t-12 -65.5v-55h165v52q0 163 166 171v-27q-19 -2 -29 -3t-34 -9.5t-37.5 -22t-25.5 -41t-12 -65.5v-55h165v210h28v-740z" />
    <glyph glyph-name=".notdef" horiz-adv-x="500" 
d="M12 0v665h475v-665h-475zM88 618l162 -243l161 243h-323zM60 575v-484l40 61l80 120l41 61zM440 575l-162 -242l162 -243v485zM411 48l-161 242l-162 -242h323z" />
    <glyph glyph-name=".null" horiz-adv-x="0" 
 />
    <glyph glyph-name="nonmarkingreturn" horiz-adv-x="333" 
 />
    <glyph glyph-name="space" unicode=" " horiz-adv-x="277" 
 />
    <glyph glyph-name="exclam" unicode="!" horiz-adv-x="259" 
d="M145 166h-30v574h30v-574zM145 0h-30v81h30v-81z" />
    <glyph glyph-name="quotedbl" unicode="&#x22;" horiz-adv-x="333" 
d="M239 444h-30v296h30v-296zM124 444h-30v296h30v-296z" />
    <glyph glyph-name="numbersign" unicode="#" horiz-adv-x="555" 
d="M537 454l-3 -23h-152l-19 -137h152l-3 -23h-151l-34 -240h-24l33 240h-143l-33 -240h-25l34 240h-151l3 23h151l19 137h-151l4 23h151l31 221h24l-31 -221h143l31 221h24l-31 -221h151zM359 431h-143l-20 -137h143z" />
    <glyph glyph-name="dollar" unicode="$" horiz-adv-x="555" 
d="M473 225q0 -71 -50 -126.5t-127 -60.5v-95h-30v95q-76 7 -127.5 59t-55.5 130h30q7 -79 57.5 -119.5t112.5 -40.5q67 0 113.5 46.5t46.5 112.5q0 28 -6.5 51t-21.5 39.5t-28 27.5t-39.5 21t-41.5 15t-46 14q-148 41 -148 165q0 68 42.5 115t111.5 56v80h30v-80
q78 -10 117 -56.5t44 -105.5h-30q-8 69 -53 102t-91 33q-54 0 -97.5 -40t-43.5 -104q0 -29 9.5 -52t22 -36.5t38 -25.5t42.5 -18t51 -15q24 -7 38.5 -12t42.5 -20t44 -33t29.5 -50t13.5 -72z" />
    <glyph glyph-name="percent" unicode="%" horiz-adv-x="719" 
d="M348 590q0 -70 -46 -116.5t-117 -46.5t-117 46.5t-46 116.5t46 116.5t117 46.5t117 -46.5t46 -116.5zM603 740l-457 -740h-32l457 740h32zM697 150q0 -70 -46.5 -116.5t-116.5 -46.5t-116.5 46.5t-46.5 116.5t46.5 116.5t116.5 46.5t116.5 -46.5t46.5 -116.5zM320 590
q0 60 -37.5 99t-97.5 39t-97.5 -39t-37.5 -99t37.5 -99t97.5 -39t97.5 39t37.5 99zM669 150q0 60 -37.5 99t-97.5 39t-97.5 -39t-37.5 -99t37.5 -99t97.5 -39t97.5 39t37.5 99z" />
    <glyph glyph-name="ampersand" unicode="&#x26;" horiz-adv-x="721" 
d="M699 9l-21 -20l-185 189l-24 -47q-16 -32 -28.5 -51t-36.5 -44t-58 -37t-79 -12q-94 0 -153 63t-59 144q0 46 18.5 85t50 67t62.5 46.5t67 32.5l-38 41q-35 37 -49.5 64t-15.5 66v2q0 63 45 109t111 46q68 0 116 -48t48 -113q0 -30 -10.5 -54.5t-23 -40t-40 -32.5
t-43.5 -25t-52 -24l184 -188l125 239h33l-136 -261zM440 593q0 52 -38 92t-95 40q-58 0 -92.5 -39.5t-34.5 -85.5q0 -56 51 -109l50 -53q92 40 125.5 69.5t33.5 85.5zM470 200l-197 204q-107 -47 -147.5 -99t-40.5 -112q0 -72 51 -125t134 -53q58 0 98 28.5t75 100.5z" />
    <glyph glyph-name="quotesingle" unicode="'" horiz-adv-x="222" 
d="M126 444h-30v296h30v-296z" />
    <glyph glyph-name="parenleft" unicode="(" horiz-adv-x="425" 
d="M393 -274q-86 56 -139 116q-71 82 -111 185t-40 214q0 157 80 296.5t210 215.5v-35q-112 -69 -185 -198t-73 -279q0 -151 73 -280t185 -198v-37z" />
    <glyph glyph-name="parenright" unicode=")" horiz-adv-x="425" 
d="M322 238q0 -157 -80 -297t-210 -215v34q112 70 185 199t73 279t-73.5 279.5t-184.5 198.5v37q86 -56 139 -116q151 -174 151 -399z" />
    <glyph glyph-name="asterisk" unicode="*" horiz-adv-x="573" 
d="M423 530l-14 -24l-108 61v-123h-29v124l-106 -62l-15 25l107 62l-107 60l15 26l106 -62v123h29v-123l106 62l14 -25l-105 -61z" />
    <glyph glyph-name="plus" unicode="+" horiz-adv-x="600" 
d="M550 236h-236v-236h-28v236h-236v28h236v237h28v-237h236v-28z" />
    <glyph glyph-name="comma" unicode="," horiz-adv-x="277" 
d="M156 82l-63 -154h-32l63 154h32z" />
    <glyph glyph-name="hyphen" unicode="-" horiz-adv-x="266" 
d="M266 262h-266v29h266v-29z" />
    <glyph glyph-name="period" unicode="." horiz-adv-x="277" 
d="M154 0h-30v81h30v-81z" />
    <glyph glyph-name="slash" unicode="/" horiz-adv-x="518" 
d="M451 740l-351 -840h-33l351 840h33z" />
    <glyph glyph-name="zero" unicode="0" horiz-adv-x="555" 
d="M515 518v-296q0 -54 -18.5 -97t-45.5 -68t-61 -41.5t-61.5 -22.5t-49.5 -6q-36 0 -74.5 12t-77 37t-63.5 73.5t-25 112.5v287q0 61 19.5 107.5t47 71.5t62.5 40.5t60 20t46 4.5q101 0 171 -65.5t70 -169.5zM485 222v296q0 82 -54.5 145t-156.5 63q-85 0 -145 -56.5
t-60 -157.5v-290q0 -96 61.5 -152t146.5 -56q24 0 50 6t54.5 21t51 38t37.5 60t15 83z" />
    <glyph glyph-name="one" unicode="1" horiz-adv-x="555" 
d="M305 0h-30v713h-164v27h194v-740z" />
    <glyph glyph-name="two" unicode="2" horiz-adv-x="555" 
d="M504 535v-9q-2 -52 -28.5 -96.5t-80.5 -99.5l-298 -303h407v-27h-447v27l318 325q98 99 99 179v5q0 83 -54 136.5t-134 53.5q-77 0 -131 -55t-56 -157h-30q2 118 68.5 178.5t152.5 60.5q91 0 152.5 -62t61.5 -156z" />
    <glyph glyph-name="three" unicode="3" horiz-adv-x="555" 
d="M492 217q0 -103 -63.5 -166.5t-164.5 -63.5q-89 0 -156.5 62.5t-68.5 165.5h30q3 -97 63 -149t135 -52q88 0 141.5 57t53.5 140q0 74 -54 136.5t-157 62.5h-40v27h39q42 0 74 12.5t48.5 29.5t26 39.5t12 36.5t2.5 27q0 63 -39.5 103.5t-100.5 40.5q-64 0 -103.5 -40.5
t-43.5 -100.5h-30q5 80 56.5 124t117.5 44q71 0 122 -46t51 -126q0 -47 -26.5 -92.5t-77.5 -62.5v-2q44 -16 76.5 -42.5t48 -57t22 -57t6.5 -50.5z" />
    <glyph glyph-name="four" unicode="4" horiz-adv-x="555" 
d="M509 144h-75v-144h-30v144h-387v26l376 570h41v-569h75v-27zM404 171v533h-2l-350 -533h352z" />
    <glyph glyph-name="five" unicode="5" horiz-adv-x="555" 
d="M515 241q0 -107 -74 -180.5t-174 -73.5q-83 0 -158.5 60t-87.5 170h30q11 -94 75.5 -148.5t141.5 -54.5q88 0 152.5 66t64.5 158q0 95 -65 161t-152 66q-99 0 -169 -86l-26 7l68 354h332v-27h-308l-54 -279q77 58 159 58q105 0 175 -75t70 -176z" />
    <glyph glyph-name="six" unicode="6" horiz-adv-x="555" 
d="M521 240q0 -103 -70 -178t-174 -75q-61 0 -109.5 23t-77 59.5t-43 77.5t-14.5 82q0 93 63 185l224 326h34l-198 -288l2 -1q57 38 122 38q99 0 170 -70.5t71 -178.5zM491 237q0 106 -65 165.5t-145 59.5q-35 0 -71 -13t-70 -38.5t-55.5 -72.5t-21.5 -107q0 -90 58 -153.5
t155 -63.5q93 0 154 65.5t61 157.5z" />
    <glyph glyph-name="seven" unicode="7" horiz-adv-x="555" 
d="M480 713l-330 -713h-31l329 713h-361v27h393v-27z" />
    <glyph glyph-name="eight" unicode="8" horiz-adv-x="555" 
d="M502 209q-1 -93 -66.5 -157.5t-158.5 -64.5t-158.5 64.5t-66.5 157.5q0 73 43 130.5t112 79.5q-48 20 -78 64.5t-30 95.5q0 70 52.5 122t125.5 52q74 0 126 -50.5t52 -123.5q0 -51 -30 -95.5t-78 -64.5q68 -21 111.5 -78.5t43.5 -131.5zM425 578q0 62 -43 105t-105 43
t-105 -43t-43 -105t43 -104.5t105 -42.5t105 42.5t43 104.5zM472 209q0 82 -56.5 138.5t-138.5 56.5t-138.5 -56.5t-56.5 -138.5t56.5 -138.5t138.5 -56.5t138.5 56.5t56.5 138.5z" />
    <glyph glyph-name="nine" unicode="9" horiz-adv-x="555" 
d="M522 511q0 -93 -63 -185l-224 -326h-34l198 288l-2 1q-20 -14 -52 -26q-36 -12 -70 -12q-99 0 -170 70.5t-71 178.5q0 103 70 178t174 75q61 0 109.5 -23t77 -59.5t43 -77.5t14.5 -82zM492 509q0 90 -58 153.5t-155 63.5q-93 0 -154 -65.5t-61 -157.5q0 -106 65 -165.5
t145 -59.5q35 0 71 13t70 38.5t55.5 72.5t21.5 107z" />
    <glyph glyph-name="colon" unicode=":" horiz-adv-x="277" 
d="M154 449h-30v81h30v-81zM154 0h-30v81h30v-81z" />
    <glyph glyph-name="semicolon" unicode=";" horiz-adv-x="277" 
d="M153 449h-30v81h30v-81zM156 82l-63 -154h-32l63 154h32z" />
    <glyph glyph-name="less" unicode="&#x3c;" horiz-adv-x="600" 
d="M550 0l-500 235v32l500 235v-31l-467 -220l467 -220v-31z" />
    <glyph glyph-name="equal" unicode="=" horiz-adv-x="600" 
d="M550 333h-500v28h500v-28zM550 139h-500v28h500v-28z" />
    <glyph glyph-name="greater" unicode="&#x3e;" horiz-adv-x="600" 
d="M550 235l-500 -235v31l467 220l-467 220v31l500 -235v-32z" />
    <glyph glyph-name="question" unicode="?" horiz-adv-x="536" 
d="M467 542q0 -28 -9 -54t-31 -53.5t-35 -41t-44 -43.5q-34 -33 -52 -70t-20.5 -57.5t-2.5 -51.5v-5h-30q1 42 5 67t25 65.5t61 79.5q4 4 25 24.5t26 26t19 23t18.5 28.5t9.5 28.5t5 35.5v3q0 72 -52 123t-129 51q-42 0 -81.5 -16t-71 -58.5t-33.5 -103.5h-30q2 57 25 100
t56.5 65.5t67.5 33t66 10.5q86 0 149 -59.5t63 -150.5zM272 0h-29v81h29v-81z" />
    <glyph glyph-name="at" unicode="@" horiz-adv-x="796" 
d="M768 441q0 -69 -26 -126t-65 -88.5t-76.5 -48.5t-67.5 -17q-10 0 -20 2t-25 8.5t-24.5 23t-9.5 41.5h-2q-46 -71 -127 -71q-15 0 -31.5 5.5t-35 18.5t-30 40.5t-11.5 65.5q0 105 65 193t147 88q52 0 76.5 -26t29.5 -57h2l23 67h28l-96 -272q-13 -37 -13 -53q0 -48 55 -48
q28 0 62.5 16.5t67 46.5t54.5 80.5t22 109.5q0 70 -28 126.5t-74 90.5t-100.5 52t-110.5 18q-147 0 -252.5 -102t-105.5 -260q0 -104 50 -185.5t129 -124t169 -42.5q88 0 175 44.5t131 129.5h25q-29 -68 -88.5 -115.5t-120.5 -66t-121 -18.5q-159 0 -268 109.5t-109 268.5
q0 161 111 274.5t273 113.5q62 0 122 -20.5t110 -58t80.5 -98.5t30.5 -135zM519 459v3q-1 45 -29.5 66.5t-58.5 21.5q-65 0 -125.5 -77t-60.5 -178q0 -57 25 -80.5t57 -23.5q34 0 61.5 14t45 39t25 41t16.5 39l28 73q16 40 16 62z" />
    <glyph glyph-name="A" unicode="A" horiz-adv-x="687" 
d="M680 0h-32l-111 258h-387l-111 -258h-32l317 740h39zM524 285l-181 427l-180 -427h361z" />
    <glyph glyph-name="B" unicode="B" horiz-adv-x="540" 
d="M497 198q0 -135 -117 -181q-41 -17 -118 -17h-185v740h157q79 0 130 -27q87 -47 87 -159q0 -116 -102 -161v-2q47 -14 79.5 -40.5t46 -58t18 -53.5t4.5 -41zM421 558q0 47 -22 83t-53 50q-38 22 -112 22h-127v-312h134q70 0 105 19q75 42 75 138zM467 197q0 55 -27 96.5
t-73 62.5q-42 18 -126 18h-134v-347h156q66 0 106 16q98 40 98 154z" />
    <glyph glyph-name="C" unicode="C" horiz-adv-x="786" 
d="M749 575h-35q-14 20 -35 41t-57 48.5t-88 44.5t-109 17q-148 1 -251 -101t-103 -255q0 -152 103 -254t251 -102q60 0 113.5 18t89.5 46t54.5 46.5t31.5 36.5h34q-42 -71 -128.5 -122.5t-194.5 -51.5q-161 0 -272.5 109t-111.5 274t111.5 274.5t272.5 108.5
q109 0 193 -52.5t131 -125.5z" />
    <glyph glyph-name="D" unicode="D" horiz-adv-x="701" 
d="M659 370q0 -174 -99 -272t-274 -98h-209v740h209q175 0 274 -98t99 -272zM629 368q0 162 -90.5 253.5t-252.5 91.5h-179v-686h179q161 0 252 90.5t91 250.5z" />
    <glyph glyph-name="E" unicode="E" horiz-adv-x="547" 
d="M483 0h-406v740h406v-27h-376v-327h376v-27h-376v-332h376v-27z" />
    <glyph glyph-name="F" unicode="F" horiz-adv-x="477" 
d="M440 359h-333v-359h-30v740h363v-27h-333v-327h333v-27z" />
    <glyph glyph-name="G" unicode="G" horiz-adv-x="853" 
d="M819 313q-16 -136 -128.5 -231t-265.5 -95q-161 0 -272.5 109t-111.5 274t111.5 274t272.5 109q103 0 194.5 -47.5t141.5 -129.5h-36q-114 150 -300 150q-148 0 -251 -102t-103 -254t103 -254t251 -102q135 0 236 81.5t122 190.5h-441v27h477z" />
    <glyph glyph-name="H" unicode="H" horiz-adv-x="628" 
d="M551 0h-30v359h-414v-359h-30v740h30v-354h414v354h30v-740z" />
    <glyph glyph-name="I" unicode="I" horiz-adv-x="185" 
d="M107 0h-30v740h30v-740z" />
    <glyph glyph-name="J" unicode="J" horiz-adv-x="453" 
d="M377 212q0 -80 -18 -122q-17 -39 -51 -65q-51 -38 -118 -38q-66 0 -118.5 40.5t-65.5 113.5h33q9 -39 29 -66.5t44 -39.5t43 -16.5t35 -4.5h2q54 1 90 26.5t49 60.5q16 41 16 111v528h30v-528z" />
    <glyph glyph-name="K" unicode="K" horiz-adv-x="536" 
d="M536 0h-36l-259 351l-120 -158v-193h-30v740h30v-500h2l377 500h36l-276 -365z" />
    <glyph glyph-name="L" unicode="L" horiz-adv-x="423" 
d="M420 0h-343v740h30v-713h313v-27z" />
    <glyph glyph-name="M" unicode="M" horiz-adv-x="933" 
d="M855 0h-30v710h-2l-348 -710h-17l-349 710h-2v-710h-30v740h48l342 -692l341 692h47v-740z" />
    <glyph glyph-name="N" unicode="N" horiz-adv-x="738" 
d="M661 0h-38l-514 710h-2v-710h-30v740h45l507 -700h2v700h30v-740z" />
    <glyph glyph-name="O" unicode="O" 
d="M809 370q0 -165 -111.5 -274t-272.5 -109t-272.5 109t-111.5 274t111.5 274t272.5 109t272.5 -109t111.5 -274zM779 370q0 152 -103 254t-251 102t-251 -102t-103 -254t103 -254t251 -102t251 102t103 254z" />
    <glyph glyph-name="P" unicode="P" horiz-adv-x="511" 
d="M499 530q0 -50 -21 -96t-54 -70q-35 -26 -76 -35t-109 -9h-142v-320h-30v740h172q69 0 109.5 -9t75.5 -35q33 -24 54 -70t21 -96zM469 529q0 44 -17 84t-44 59q-31 23 -68 32t-100 9h-143v-366h143q63 0 100 9t68 32q27 19 44 59t17 82z" />
    <glyph glyph-name="Q" unicode="Q" horiz-adv-x="882" 
d="M885 -13q-55 7 -96 19t-59.5 21.5t-58.5 33.5q-102 -74 -228 -74q-114 0 -204 53.5t-136.5 140.5t-46.5 189q0 165 111.5 274t272.5 109t272.5 -109t111.5 -274t-128 -290q80 -47 189 -62v-31zM794 370q0 152 -103 254t-251 102t-251 -102t-103 -254q0 -68 21 -124
q92 30 172 30q120 0 220 -54q24 -13 51 -32t122 -92q122 105 122 272zM648 80q-9 6 -39 28.5t-56 42.5t-27 21q-117 77 -251 77q-71 0 -156 -32q25 -52 61 -91t70.5 -59.5t74 -33t66.5 -16t53 -3.5q62 0 116 20t88 46z" />
    <glyph glyph-name="R" unicode="R" horiz-adv-x="554" 
d="M540 507q0 -37 -12.5 -74t-37 -71.5t-68.5 -57t-100 -24.5l-29 -1l199 -279h-38l-217 306h46q58 0 94 9t70 38q63 66 63 158q0 50 -23.5 97.5t-64.5 74.5q-31 20 -70 25t-116 5h-139v-713h-30v740h169q140 0 197 -31q45 -24 75.5 -78.5t31.5 -118.5v-5z" />
    <glyph glyph-name="S" unicode="S" horiz-adv-x="518" 
d="M474 194q0 -89 -65 -148t-150 -59q-35 0 -70 12t-66.5 35t-52.5 63t-25 90h30q6 -50 27.5 -86.5t50 -54t54.5 -25t51 -7.5q73 0 129.5 50t56.5 126q0 39 -14 69.5t-31 48t-48 32.5t-48 20t-48 13t-46.5 12.5t-48 20t-50.5 33t-33 49t-16 71.5v3q0 87 58.5 138.5
t142.5 51.5q71 0 125.5 -43.5t65.5 -128.5h-30q-27 145 -163 145q-72 0 -120.5 -45t-48.5 -116q0 -34 11.5 -60.5t27.5 -42.5t46.5 -30.5t52.5 -21.5t61 -17q81 -20 122 -54q62 -53 62 -144z" />
    <glyph glyph-name="T" unicode="T" horiz-adv-x="443" 
d="M437 713h-201v-713h-30v713h-201v27h432v-27z" />
    <glyph glyph-name="U" unicode="U" horiz-adv-x="605" 
d="M529 260q0 -34 -2 -57t-9.5 -57.5t-27 -63t-50.5 -50.5q-63 -45 -138 -45q-74 0 -137 45q-31 22 -50.5 50.5t-27 63t-9.5 57.5t-2 57v480h30v-480q0 -45 1.5 -67t12 -52t32.5 -59q24 -31 65.5 -49.5t86.5 -18.5q43 0 84 18.5t65 49.5q22 29 32.5 59t12 52t1.5 67v480h30
v-480z" />
    <glyph glyph-name="V" unicode="V" horiz-adv-x="666" 
d="M659 740l-316 -740h-21l-315 740h34l292 -690l293 690h33z" />
    <glyph glyph-name="W" unicode="W" horiz-adv-x="888" 
d="M876 740l-212 -740h-39l-181 661h-2l-179 -661h-40l-211 740h32l198 -699h2l189 699h21l191 -699h2l198 699h31z" />
    <glyph glyph-name="X" unicode="X" horiz-adv-x="555" 
d="M547 0h-35l-236 350l-235 -350h-33l252 376l-243 364h36l223 -336l225 336h35l-243 -364z" />
    <glyph glyph-name="Y" unicode="Y" horiz-adv-x="554" 
d="M539 740l-247 -485v-255h-30v255l-247 485h33l229 -451l228 451h34z" />
    <glyph glyph-name="Z" unicode="Z" horiz-adv-x="499" 
d="M493 0h-473l403 713h-417v27h466l-403 -713h424v-27z" />
    <glyph glyph-name="bracketleft" unicode="[" horiz-adv-x="425" 
d="M344 -272q-166 79 -166 257v510q0 23 1 39t10 49.5t25 59.5t49.5 57t80.5 53v-36q-134 -66 -134 -222v-510q0 -155 134 -221v-36z" />
    <glyph glyph-name="backslash" unicode="\" horiz-adv-x="518" 
d="M451 -100h-33l-351 840h33z" />
    <glyph glyph-name="bracketright" unicode="]" horiz-adv-x="425" 
d="M247 -15q0 -178 -166 -257v36q134 66 134 221v510q0 156 -134 222v36q166 -81 166 -258v-510z" />
    <glyph glyph-name="asciicircum" unicode="^" horiz-adv-x="600" 
d="M488 375h-32l-156 332l-156 -332h-32l172 365h32z" />
    <glyph glyph-name="underscore" unicode="_" horiz-adv-x="500" 
d="M500 -125h-500v50h500v-50z" />
    <glyph glyph-name="grave" unicode="`" horiz-adv-x="555" 
d="M395 628l-13 -23l-238 138l14 23z" />
    <glyph glyph-name="a" unicode="a" horiz-adv-x="674" 
d="M596 0h-28v132h-2q-35 -68 -99 -106.5t-147 -38.5q-125 0 -202 82.5t-77 195.5q0 114 77.5 196t201.5 82q90 0 157 -45t89 -103h2v135h28v-530zM571 265q0 108 -72 180t-179 72q-106 0 -179 -71t-72 -181q0 -99 67 -175.5t187 -76.5q108 0 178 73.5t70 178.5z" />
    <glyph glyph-name="b" unicode="b" horiz-adv-x="674" 
d="M633 265q0 -113 -77 -195.5t-202 -82.5q-83 0 -147 38.5t-99 106.5h-2v-132h-28v740h28v-345h2q31 64 93.5 106t152.5 42q125 0 202 -82t77 -196zM605 265q0 110 -73 181t-178 71q-107 0 -179 -72t-72 -180q0 -105 70 -178.5t178 -73.5q120 0 187 76.5t67 175.5z" />
    <glyph glyph-name="c" unicode="c" horiz-adv-x="619" 
d="M584 358h-31q-27 75 -90 117t-142 42q-55 0 -96 -16.5t-83 -54.5q-33 -30 -53 -79t-20 -102q0 -110 73.5 -181t177.5 -71q85 0 148 45t84 109h31q-28 -82 -98.5 -131t-164.5 -49q-118 0 -198.5 77.5t-80.5 199.5q0 118 79.5 198.5t199.5 80.5q86 0 160 -48t104 -137z" />
    <glyph glyph-name="d" unicode="d" horiz-adv-x="677" 
d="M596 0h-28v132h-2q-35 -68 -99 -106.5t-147 -38.5q-125 0 -202 82.5t-77 195.5q0 114 77.5 196t201.5 82q90 0 157 -45t89 -103h2v345h28v-740zM571 265q0 108 -72 180t-179 72q-106 0 -179 -71t-72 -181q0 -99 67 -175.5t187 -76.5q108 0 178 73.5t70 178.5z" />
    <glyph glyph-name="e" unicode="e" horiz-adv-x="619" 
d="M589 277l-1 -15h-528q1 -62 25.5 -111.5t62.5 -78.5t80 -44t83 -15q74 0 134.5 36.5t91.5 103.5h31q-35 -82 -104.5 -124t-153.5 -42q-121 1 -200 80t-79 197q0 119 80.5 199t199.5 80q111 0 192 -73.5t86 -192.5zM560 288q-4 94 -78 161.5t-167 67.5q-102 0 -175 -65
t-79 -164h499z" />
    <glyph glyph-name="f" unicode="f" horiz-adv-x="263" 
d="M260 504h-138v-504h-28v504h-87v26h87v52q0 163 166 171v-27q-19 -2 -29 -3t-34 -9.5t-37.5 -22t-25.5 -41t-12 -65.5v-55h138v-26z" />
    <glyph glyph-name="g" unicode="g" horiz-adv-x="675" 
d="M598 59q0 -63 -20.5 -114.5t-50.5 -82t-68 -51.5t-70.5 -29t-59.5 -8q-82 0 -155 43.5t-106 119.5h32q34 -56 69 -82q69 -55 156 -55q97 0 171 71.5t74 182.5v78h-3q-34 -68 -98 -106.5t-147 -38.5q-127 0 -204.5 82.5t-77.5 195.5q0 114 78 196t204 82q90 0 157 -45
t89 -103h2v135h28v-471zM573 265q0 108 -72 180t-179 72t-180.5 -71t-73.5 -181q0 -99 68 -175.5t189 -76.5q108 0 178 73.5t70 178.5z" />
    <glyph glyph-name="h" unicode="h" horiz-adv-x="640" 
d="M564 0h-28v280q0 128 -65 187q-56 50 -150 50q-100 0 -157.5 -56.5t-57.5 -155.5v-305h-28v740h28v-312h2q24 54 83.5 84.5t126.5 30.5q104 0 169 -53q77 -65 77 -210v-280z" />
    <glyph glyph-name="i" unicode="i" horiz-adv-x="184" 
d="M106 649h-28v91h28v-91zM106 0h-28v530h28v-530z" />
    <glyph glyph-name="j" unicode="j" horiz-adv-x="219" 
d="M123 648h-28v92h28v-92zM123 6q0 -29 -1 -45t-4 -44.5t-12 -46t-23.5 -37t-39 -31t-57.5 -15.5v30q29 4 49 15.5t31.5 27t18 40t8.5 48t2 58.5v524h28v-524z" />
    <glyph glyph-name="k" unicode="k" horiz-adv-x="467" 
d="M451 0h-37l-194 249l-114 -152v-97h-28v740h28v-595h2l289 385h37l-196 -259z" />
    <glyph glyph-name="l" unicode="l" horiz-adv-x="183" 
d="M106 0h-28v740h28v-740z" />
    <glyph glyph-name="m" unicode="m" horiz-adv-x="949" 
d="M874 0h-28v297q0 121 -54 175q-43 45 -124 45q-90 0 -137 -61q-25 -33 -33 -64.5t-8 -94.5v-297h-28v297q0 61 -8.5 95t-29.5 62q-49 63 -143 63q-38 0 -71.5 -16.5t-54.5 -41.5q-49 -59 -49 -157v-302h-28v530h28v-94h2q17 34 42.5 57.5t52 33t45.5 13t36 3.5
q99 0 156 -65q26 -32 35 -62h2q11 34 37 62q59 65 154 65q92 0 145 -53q61 -60 61 -193v-297z" />
    <glyph glyph-name="n" unicode="n" horiz-adv-x="641" 
d="M564 0h-28v280q0 128 -65 187q-56 50 -150 50q-100 0 -157.5 -56.5t-57.5 -155.5v-305h-28v530h28v-102h2q24 54 83.5 84.5t126.5 30.5q104 0 169 -53q77 -65 77 -210v-280z" />
    <glyph glyph-name="o" unicode="o" horiz-adv-x="641" 
d="M599 265q0 -119 -80 -198.5t-199 -79.5t-199 79.5t-80 198.5t80 198.5t199 79.5t199 -79.5t80 -198.5zM571 265q0 108 -72 180t-179 72t-179 -72t-72 -180t72 -180t179 -72t179 72t72 180z" />
    <glyph glyph-name="p" unicode="p" horiz-adv-x="677" 
d="M633 265q0 -114 -77.5 -196t-201.5 -82q-90 0 -157 45t-89 103h-2v-348h-28v743h28v-132h2q35 68 99 106.5t147 38.5q125 0 202 -82.5t77 -195.5zM605 265q0 99 -67 175.5t-187 76.5q-108 0 -178 -73.5t-70 -178.5q0 -108 72 -180t179 -72q106 0 179 71t72 181z" />
    <glyph glyph-name="q" unicode="q" horiz-adv-x="674" 
d="M596 -213h-28v348h-2q-22 -58 -89 -103t-157 -45q-124 0 -201.5 82t-77.5 196q0 113 77 195.5t202 82.5q83 0 147 -38.5t99 -106.5h2v132h28v-743zM571 265q0 105 -70 178.5t-178 73.5q-120 0 -187 -76.5t-67 -175.5q-1 -110 72 -181t179 -71q107 0 179 72t72 180z" />
    <glyph glyph-name="r" unicode="r" horiz-adv-x="302" 
d="M293 516q-67 -2 -116 -37q-43 -39 -57 -83.5t-14 -108.5v-287h-28v530h28v-96h2q14 28 34 49t38 31.5t42.5 17.5t37.5 8.5t33 2.5v-27z" />
    <glyph glyph-name="s" unicode="s" horiz-adv-x="426" 
d="M366 137q0 -63 -44.5 -106.5t-110.5 -43.5t-114.5 42t-48.5 108v10h28q0 -62 38 -98t97 -36q57 0 92 36.5t35 88.5v4q-1 53 -31.5 81.5t-96.5 45.5q-71 18 -107 46.5t-36 90.5q0 59 38.5 98t105.5 39q61 0 100.5 -36t39.5 -102h-28q0 56 -32 84t-80 28q-57 0 -86.5 -31
t-29.5 -80q2 -46 29 -69t87 -40q30 -8 43.5 -12t38.5 -16.5t37 -26.5t23 -38.5t13 -57.5v-9z" />
    <glyph glyph-name="t" unicode="t" horiz-adv-x="296" 
d="M288 504h-136v-504h-28v504h-117v26h117v210h28v-210h136v-26z" />
    <glyph glyph-name="u" unicode="u" horiz-adv-x="641" 
d="M564 0h-28v107h-2q-24 -58 -82 -89t-127 -31q-106 0 -170 53q-77 65 -77 210v280h28v-280q0 -128 65 -187q55 -50 148 -50q102 0 159.5 57t57.5 159v301h28v-530z" />
    <glyph glyph-name="v" unicode="v" horiz-adv-x="481" 
d="M476 530l-218 -530h-36l-218 530h29l207 -497l204 497h32z" />
    <glyph glyph-name="w" unicode="w" horiz-adv-x="758" 
d="M749 530l-196 -530h-32l-142 402h-2l-140 -402h-32l-195 530h31l179 -488h2l147 416h21l147 -416h2l178 488h32z" />
    <glyph glyph-name="x" unicode="x" horiz-adv-x="407" 
d="M397 0h-34l-159 239l-158 -239h-36l177 266l-177 264h36l158 -237l159 237h34l-176 -264z" />
    <glyph glyph-name="y" unicode="y" horiz-adv-x="481" 
d="M480 530l-321 -743h-32l94 214l-210 529h31l196 -491l209 491h33z" />
    <glyph glyph-name="z" unicode="z" horiz-adv-x="407" 
d="M394 0h-382v24l329 480h-311v26h347v-27l-329 -477h346v-26z" />
    <glyph glyph-name="braceleft" unicode="{" horiz-adv-x="425" 
d="M344 -272h-66q-46 0 -64 29.5t-18 96.5v183q0 75 -17 119t-64 67v28q36 9 58.5 61.5t22.5 130.5v187q0 66 18 94.5t64 28.5h66v-26h-54q-39 0 -50.5 -22t-11.5 -93v-185q0 -57 -20.5 -112.5t-60.5 -77.5q37 -16 59 -67t22 -116v-183q0 -75 11.5 -96t50.5 -21h54v-26z" />
    <glyph glyph-name="bar" unicode="|" horiz-adv-x="555" 
d="M293 -100h-30v840h30v-840z" />
    <glyph glyph-name="braceright" unicode="}" horiz-adv-x="425" 
d="M310 223q-47 -23 -64 -67t-17 -119v-183q0 -67 -18 -96.5t-64 -29.5h-66v26h54q39 0 50.5 21t11.5 96v183q0 65 22 116t59 67q-40 22 -60.5 77.5t-20.5 112.5v185q0 71 -11.5 93t-50.5 22h-54v26h66q46 0 64 -28.5t18 -94.5v-187q0 -78 22.5 -130.5t58.5 -61.5v-28z" />
    <glyph glyph-name="asciitilde" unicode="~" horiz-adv-x="600" 
d="M523 271q-18 -33 -44.5 -52t-54.5 -19q-36 0 -114 36t-112 37h-5q-62 0 -98 -62l-19 18q38 72 116 72h6q40 -2 118 -37q78 -36 106 -36q26 0 44.5 16.5t37.5 45.5z" />
    <glyph glyph-name="uni00A0" unicode="&#xa0;" horiz-adv-x="277" 
 />
    <glyph glyph-name="exclamdown" unicode="&#xa1;" horiz-adv-x="259" 
d="M145 450h-30v81h30v-81zM145 -209h-30v574h30v-574z" />
    <glyph glyph-name="cent" unicode="&#xa2;" horiz-adv-x="555" 
d="M488 265q-18 -35 -44.5 -60t-54 -36.5t-46.5 -16t-36 -5.5v-108h-30v108q-99 6 -154 74t-55 148q0 79 53 146.5t156 76.5v95h30v-96q35 -4 62.5 -13t61.5 -36.5t56 -72.5h-33q-51 94 -163 94q-87 0 -140 -56t-53 -135t51 -137.5t141 -58.5q64 0 105.5 28t58.5 61h34z" />
    <glyph glyph-name="sterling" unicode="&#xa3;" horiz-adv-x="555" 
d="M545 200q0 -49 -19 -88t-41 -59q-35 -32 -70 -42.5t-109 -10.5h-270v27h148l8 12q9 12 14 22t12.5 27t11.5 38t4 45q0 58 -28.5 103t-87.5 92h-112v27h86q-41 52 -41 122q-1 101 67 169t171 68q80 0 145 -48.5t87 -134.5h-31q-20 69 -74.5 112.5t-124.5 43.5h-2
q-91 -1 -149 -59t-59 -151v-3q0 -64 50 -119h273v-27h-244v-2q39 -28 71.5 -77t32.5 -115q0 -76 -45 -145h92q64 0 95.5 10.5t55.5 34.5q53 54 53 127q0 22 -7 50h31q6 -28 6 -49z" />
    <glyph glyph-name="currency" unicode="&#xa4;" horiz-adv-x="555" 
d="M492 105l-76 76q-64 -51 -139 -51q-76 0 -139 51l-77 -76l-20 21l77 77q-56 62 -56 140q0 79 54 138l-77 77l21 21l77 -77q62 54 140 54q79 0 140 -53l76 76l22 -21l-76 -77q53 -59 53 -138t-56 -140l77 -77zM92 343v-1q0 -74 55.5 -128t129.5 -54q75 0 130 54t55 129
q0 76 -55 129.5t-130 53.5q-74 0 -129.5 -53t-55.5 -130z" />
    <glyph glyph-name="yen" unicode="&#xa5;" horiz-adv-x="555" 
d="M524 740l-204 -331h189v-26h-205l-13 -26v-82h218v-26h-218v-249h-30v249h-214v26h214v82l-14 26h-200v26h185l-200 331h32l212 -350l216 350h32z" />
    <glyph glyph-name="brokenbar" unicode="&#xa6;" horiz-adv-x="555" 
d="M293 404h-30v336h30v-336zM293 -100h-30v336h30v-336z" />
    <glyph glyph-name="section" unicode="&#xa7;" horiz-adv-x="573" 
d="M513 235q0 -47 -26 -88.5t-69 -66.5q70 -49 70 -127q0 -76 -56 -126t-143 -50q-14 0 -29.5 1t-51.5 11.5t-62 28.5t-47.5 57.5t-21.5 93.5v32h28v-31q0 -82 53 -122.5t130 -40.5q76 0 124 40.5t48 105.5q0 80 -104 127l-195 90q-101 44 -101 154q0 44 25.5 86t75.5 67
q-46 43 -46 107q0 77 51 123t128 46q83 0 132.5 -44t49.5 -123h-28q-7 78 -47.5 107.5t-106.5 29.5q-68 0 -110 -37.5t-41 -98.5q0 -28 8.5 -50t26.5 -37t31 -22.5t35 -17.5l150 -71q119 -55 119 -154zM485 233q0 29 -9.5 51t-28.5 37.5t-31.5 23t-35.5 18.5l-198 95
q-94 -45 -94 -137q0 -84 77 -120l225 -104q33 13 64 51.5t31 84.5z" />
    <glyph glyph-name="dieresis" unicode="&#xa8;" horiz-adv-x="555" 
d="M352 618h-29v116h29v-116zM232 618h-29v116h29v-116z" />
    <glyph glyph-name="copyright" unicode="&#xa9;" horiz-adv-x="800" 
d="M781 370q0 -162 -111 -271.5t-270 -109.5q-161 0 -271.5 109t-110.5 272q0 159 109 270t273 111q162 0 271.5 -111t109.5 -270zM753 370q0 148 -100.5 251.5t-252.5 103.5t-253 -104t-101 -251q0 -150 102 -252.5t252 -102.5q148 0 250.5 102.5t102.5 252.5zM609 328
q-6 -87 -65.5 -137.5t-139.5 -50.5q-86 0 -150 59t-64 170q0 103 60 167.5t157 64.5q75 0 130 -42t63 -108h-28q-12 63 -60 93.5t-106 30.5q-81 0 -134.5 -55t-53.5 -150q0 -103 56.5 -153.5t130.5 -50.5q14 0 29.5 2t41 11.5t46 26t37.5 48t22 74.5h28z" />
    <glyph glyph-name="ordfeminine" unicode="&#xaa;" horiz-adv-x="468" 
d="M398 412h-28v83h-2q-15 -38 -59 -67q-39 -24 -92 -24q-79 0 -130 52t-51 123q0 72 52.5 123t128.5 51q69 0 114 -42q26 -24 37 -51h2v85h28v-333zM370 578q0 62 -45.5 105.5t-107.5 43.5q-61 0 -107 -41.5t-46 -110.5q0 -54 42.5 -99.5t111.5 -45.5q66 0 109 44t43 104z
" />
    <glyph glyph-name="guillemotleft" unicode="&#xab;" horiz-adv-x="351" 
d="M291 110l-19 -26l-112 192l112 193l19 -26l-96 -167zM180 110l-20 -26l-111 192l111 193l20 -26l-96 -167z" />
    <glyph glyph-name="logicalnot" unicode="&#xac;" horiz-adv-x="600" 
d="M550 139h-28v194h-472v28h500v-222z" />
    <glyph glyph-name="uni00AD" unicode="&#xad;" horiz-adv-x="266" 
d="M266 262h-266v29h266v-29z" />
    <glyph glyph-name="registered" unicode="&#xae;" horiz-adv-x="800" 
d="M781 370q0 -162 -111 -271.5t-270 -109.5q-161 0 -271.5 109t-110.5 272q0 159 109 270t273 111q162 0 271.5 -111t109.5 -270zM753 370q0 148 -100.5 251.5t-252.5 103.5t-253 -104t-101 -251q0 -150 102 -252.5t252 -102.5q148 0 250.5 102.5t102.5 252.5zM579 146h-29
q-7 10 -12 100q-2 28 -5.5 42.5t-16 30.5t-39.5 22t-72 6h-142v-201h-28v443h185q14 0 26.5 -0.5t38 -7t43 -18t31.5 -35.5t14 -58q0 -42 -24 -70t-62 -38v-2q43 -10 58.5 -34.5t18.5 -65.5q5 -72 7 -87.5t8 -26.5zM545 470q0 93 -130 93h-152v-190h140q2 0 17.5 1.5t25 3
t26.5 5.5t28 10.5t22 16.5t17 25t6 35z" />
    <glyph glyph-name="macron" unicode="&#xaf;" horiz-adv-x="555" 
d="M455 660h-356v30h356v-30z" />
    <glyph glyph-name="degree" unicode="&#xb0;" horiz-adv-x="400" 
d="M343 566q0 -60 -41.5 -101.5t-101.5 -41.5t-101.5 41.5t-41.5 101.5t41.5 101.5t101.5 41.5t101.5 -41.5t41.5 -101.5zM315 566q0 48 -33 81.5t-82 33.5t-82 -33.5t-33 -81.5t33 -81.5t82 -33.5t82 33.5t33 81.5z" />
    <glyph glyph-name="plusminus" unicode="&#xb1;" horiz-adv-x="600" 
d="M552 281h-238v-197h-28v197h-238v28h238v197h28v-197h238v-28zM552 0h-504v28h504v-28z" />
    <glyph glyph-name="two.superior" unicode="&#xb2;" horiz-adv-x="351" 
d="M307 424h-271v23l185 193q55 58 55 104q0 44 -24 75.5t-78 31.5q-45 0 -73 -30t-30 -84v-9h-28v8q2 70 41.5 105t91.5 35q58 0 93 -35.5t35 -96.5q0 -56 -64 -122l-165 -173h232v-25z" />
    <glyph glyph-name="three.superior" unicode="&#xb3;" horiz-adv-x="351" 
d="M311 555q0 -61 -39 -100t-100 -39q-55 0 -96.5 37.5t-42.5 104.5h28q1 -41 20 -69t42.5 -38t48.5 -10q51 0 81 31.5t30 80.5q0 41 -30 76.5t-89 35.5h-27v25h27q30 0 50 10t28 25.5t10.5 25.5t2.5 19q0 34 -21.5 57t-57.5 24q-35 0 -57 -22.5t-24 -58.5h-28
q3 53 36.5 79.5t73.5 26.5q42 0 74 -29.5t32 -75.5q0 -62 -57 -92q38 -15 61.5 -49t23.5 -75z" />
    <glyph glyph-name="acute" unicode="&#xb4;" horiz-adv-x="555" 
d="M411 743l-238 -138l-13 23l237 138z" />
    <glyph glyph-name="mu" unicode="&#xb5;" horiz-adv-x="561" 
d="M484 0h-28v119h-2q-43 -132 -181 -132q-119 0 -170 90h-2v-258h-28v711h28v-300q0 -36 1.5 -58t10.5 -52.5t27 -50.5q47 -56 133 -56q85 0 134 66.5t49 198.5v252h28v-530z" />
    <glyph glyph-name="paragraph" unicode="&#xb6;" horiz-adv-x="561" 
d="M492 712h-64v-838h-30v836h-129v-836h-30v469h-20q-95 0 -151 57.5t-56 139.5q0 55 25.5 99.5t64.5 68.5q51 32 144 32h246v-28z" />
    <glyph glyph-name="periodcentered" unicode="&#xb7;" horiz-adv-x="277" 
d="M154 215h-30v81h30v-81z" />
    <glyph glyph-name="cedilla" unicode="&#xb8;" horiz-adv-x="555" 
d="M351 -125q0 -30 -19.5 -53t-53.5 -23q-63 0 -74 62h27q9 -35 47 -35q18 0 32 13t14 36q0 20 -13.5 32.5t-32.5 12.5q-26 0 -41 -25l-22 5l46 100h29l-26 -56l2 -1q6 3 13 3q33 0 52.5 -21.5t19.5 -49.5z" />
    <glyph glyph-name="one.superior" unicode="&#xb9;" horiz-adv-x="247" 
d="M142 424h-28v419h-95v25h123v-444z" />
    <glyph glyph-name="ordmasculine" unicode="&#xba;" horiz-adv-x="423" 
d="M387 579q0 -76 -53.5 -125.5t-123.5 -49.5q-71 0 -122.5 50t-51.5 121q0 76 50 127t124 51q77 0 127 -51t50 -123zM359 579q0 61 -42 104.5t-105 43.5q-61 0 -104.5 -42t-43.5 -109q0 -59 43 -102.5t103 -43.5t104.5 42.5t44.5 106.5z" />
    <glyph glyph-name="guillemotright" unicode="&#xbb;" horiz-adv-x="351" 
d="M302 276l-111 -192l-20 26l96 166l-96 167l20 26zM191 276l-112 -192l-19 26l96 166l-96 167l19 26z" />
    <glyph glyph-name="onequarter" unicode="&#xbc;" horiz-adv-x="700" 
d="M148 296h-28v419h-95v25h123v-444zM482 740l-330 -740h-29l329 740h30zM637 85h-42v-85h-28v85h-228v21l223 338h33v-334h42v-25zM567 110v297h-1l-193 -297h194z" />
    <glyph glyph-name="onehalf" unicode="&#xbd;" horiz-adv-x="730" 
d="M148 296h-28v419h-95v25h123v-444zM482 741l-330 -740h-29l329 740h30zM687 0h-271v23l185 193q55 58 55 104q0 44 -24 75.5t-78 31.5q-45 0 -73 -30t-30 -84v-9h-28v8q2 70 41.5 105t91.5 35q58 0 93 -35.5t35 -96.5q0 -56 -64 -122l-165 -173h232v-25z" />
    <glyph glyph-name="threequarters" unicode="&#xbe;" horiz-adv-x="807" 
d="M318 427q0 -61 -39 -100t-100 -39q-55 0 -96.5 37.5t-42.5 104.5h28q1 -41 20 -69t42.5 -38t48.5 -10q51 0 81 31.5t30 80.5q0 41 -30 76.5t-89 35.5h-27v25h27q30 0 50 10t28 25.5t10.5 25.5t2.5 19q0 34 -21.5 57t-57.5 24q-35 0 -57 -22.5t-24 -58.5h-28
q3 53 36.5 79.5t73.5 26.5q42 0 74 -29.5t32 -75.5q0 -62 -57 -92q38 -15 61.5 -49t23.5 -75zM609 739l-330 -740h-29l329 740h30zM765 85h-42v-85h-28v85h-228v21l223 338h33v-334h42v-25zM695 110v297h-1l-193 -297h194z" />
    <glyph glyph-name="questiondown" unicode="&#xbf;" horiz-adv-x="536" 
d="M293 449h-29v81h29v-81zM496 -13q-2 -57 -25 -100t-56.5 -65.5t-67.5 -33t-66 -10.5q-86 0 -149 59.5t-63 150.5q0 28 9 54t31 53.5t35 41t44 43.5q34 33 52 70t20.5 57.5t2.5 51.5v5h30q-1 -42 -5 -67t-25 -65.5t-61 -79.5q-4 -4 -25 -24.5t-26 -26t-19.5 -23.5
t-18.5 -28.5t-9 -28.5t-5 -36q0 -75 52.5 -125.5t128.5 -50.5q42 0 81.5 16t71 58.5t33.5 103.5h30z" />
    <glyph glyph-name="Agrave" unicode="&#xc0;" horiz-adv-x="687" 
d="M680 0h-32l-111 258h-387l-111 -258h-32l317 740h39zM524 285l-181 427l-180 -427h361zM461 813l-13 -23l-238 138l14 23z" />
    <glyph glyph-name="Aacute" unicode="&#xc1;" horiz-adv-x="687" 
d="M680 0h-32l-111 258h-387l-111 -258h-32l317 740h39zM524 285l-181 427l-180 -427h361zM477 928l-238 -138l-13 23l237 138z" />
    <glyph glyph-name="Acircumflex" unicode="&#xc2;" horiz-adv-x="687" 
d="M680 0h-32l-111 258h-387l-111 -258h-32l317 740h39zM524 285l-181 427l-180 -427h361zM539 823l-26 -15l-170 94l-170 -94l-25 15l195 110z" />
    <glyph glyph-name="Atilde" unicode="&#xc3;" horiz-adv-x="687" 
d="M680 0h-32l-111 258h-387l-111 -258h-32l317 740h39zM524 285l-181 427l-180 -427h361zM524 860q-48 -32 -89 -32q-45 0 -91 25q-51 28 -84 28q-44 0 -78 -27l-20 20q43 35 98 35q37 0 85 -24q54 -27 89 -27q31 0 70 23z" />
    <glyph glyph-name="Adieresis" unicode="&#xc4;" horiz-adv-x="687" 
d="M680 0h-32l-111 258h-387l-111 -258h-32l317 740h39zM524 285l-181 427l-180 -427h361zM418 803h-29v116h29v-116zM298 803h-29v116h29v-116z" />
    <glyph glyph-name="Aring" unicode="&#xc5;" horiz-adv-x="687" 
d="M680 0h-32l-111 258h-387l-111 -258h-32l317 740h39zM524 285l-181 427l-180 -427h361zM435 846q0 -38 -27 -64.5t-65 -26.5q-37 0 -64 26.5t-27 64.5t27 64.5t64 26.5q38 0 65 -26.5t27 -64.5zM407 847q0 26 -18.5 45t-45.5 19q-26 0 -44.5 -19t-18.5 -45t18.5 -44.5
t44.5 -18.5q27 0 45.5 18.5t18.5 44.5z" />
    <glyph glyph-name="AE" unicode="&#xc6;" horiz-adv-x="944" 
d="M870 0h-346v264h-315l-183 -264h-34l512 740h366v-27h-316v-327h316v-27h-316v-332h316v-27zM524 291v431h-2l-291 -431h293z" />
    <glyph glyph-name="Ccedilla" unicode="&#xc7;" horiz-adv-x="786" 
d="M502 -125q0 -30 -19.5 -53t-53.5 -23q-63 0 -74 62h27q9 -35 47 -35q18 0 32 13t14 36q0 20 -13.5 32.5t-32.5 12.5q-26 0 -41 -25l-22 5l40 88q-154 7 -259.5 114.5t-105.5 267.5q0 165 111.5 274.5t272.5 108.5q109 0 193 -52.5t131 -125.5h-35q-14 20 -35 41t-57 48.5
t-88 44.5t-109 17q-148 1 -251 -101t-103 -255q0 -152 103 -254t251 -102q60 0 113.5 18t89.5 46t54.5 46.5t31.5 36.5h34q-41 -69 -124.5 -120t-188.5 -54l-20 -43l2 -1q6 3 13 3q33 0 52.5 -21.5t19.5 -49.5z" />
    <glyph glyph-name="Egrave" unicode="&#xc8;" horiz-adv-x="547" 
d="M483 0h-406v740h406v-27h-376v-327h376v-27h-376v-332h376v-27zM391 813l-13 -23l-238 138l14 23z" />
    <glyph glyph-name="Eacute" unicode="&#xc9;" horiz-adv-x="547" 
d="M483 0h-406v740h406v-27h-376v-327h376v-27h-376v-332h376v-27zM407 928l-238 -138l-13 23l237 138z" />
    <glyph glyph-name="Ecircumflex" unicode="&#xca;" horiz-adv-x="547" 
d="M483 0h-406v740h406v-27h-376v-327h376v-27h-376v-332h376v-27zM469 823l-26 -15l-170 94l-170 -94l-25 15l195 110z" />
    <glyph glyph-name="Edieresis" unicode="&#xcb;" horiz-adv-x="547" 
d="M483 0h-406v740h406v-27h-376v-327h376v-27h-376v-332h376v-27zM348 803h-29v116h29v-116zM228 803h-29v116h29v-116z" />
    <glyph glyph-name="Igrave" unicode="&#xcc;" horiz-adv-x="185" 
d="M107 0h-30v740h30v-740zM190 813l-13 -23l-238 138l14 23z" />
    <glyph glyph-name="Iacute" unicode="&#xcd;" horiz-adv-x="185" 
d="M107 0h-30v740h30v-740zM246 928l-238 -138l-13 23l237 138z" />
    <glyph glyph-name="Icircumflex" unicode="&#xce;" horiz-adv-x="185" 
d="M107 0h-30v740h30v-740zM288 823l-26 -15l-170 94l-170 -94l-25 15l195 110z" />
    <glyph glyph-name="Idieresis" unicode="&#xcf;" horiz-adv-x="185" 
d="M107 0h-30v740h30v-740zM167 803h-29v116h29v-116zM47 803h-29v116h29v-116z" />
    <glyph glyph-name="Eth" unicode="&#xd0;" horiz-adv-x="711" 
d="M669 370q0 -174 -99 -272t-274 -98h-209v359h-77v27h77v354h209q175 0 274 -98t99 -272zM639 368q0 162 -90.5 253.5t-252.5 91.5h-179v-327h251v-27h-251v-332h179q161 0 252 90.5t91 250.5z" />
    <glyph glyph-name="Ntilde" unicode="&#xd1;" horiz-adv-x="738" 
d="M661 0h-38l-514 710h-2v-710h-30v740h45l507 -700h2v700h30v-740zM550 860q-48 -32 -89 -32q-45 0 -91 25q-51 28 -84 28q-44 0 -78 -27l-20 20q43 35 98 35q37 0 85 -24q54 -27 89 -27q31 0 70 23z" />
    <glyph glyph-name="Ograve" unicode="&#xd2;" 
d="M809 370q0 -165 -111.5 -274t-272.5 -109t-272.5 109t-111.5 274t111.5 274t272.5 109t272.5 -109t111.5 -274zM779 370q0 152 -103 254t-251 102t-251 -102t-103 -254t103 -254t251 -102t251 102t103 254zM543 813l-13 -23l-238 138l14 23z" />
    <glyph glyph-name="Oacute" unicode="&#xd3;" 
d="M809 370q0 -165 -111.5 -274t-272.5 -109t-272.5 109t-111.5 274t111.5 274t272.5 109t272.5 -109t111.5 -274zM779 370q0 152 -103 254t-251 102t-251 -102t-103 -254t103 -254t251 -102t251 102t103 254zM559 928l-238 -138l-13 23l237 138z" />
    <glyph glyph-name="Ocircumflex" unicode="&#xd4;" 
d="M809 370q0 -165 -111.5 -274t-272.5 -109t-272.5 109t-111.5 274t111.5 274t272.5 109t272.5 -109t111.5 -274zM779 370q0 152 -103 254t-251 102t-251 -102t-103 -254t103 -254t251 -102t251 102t103 254zM621 823l-26 -15l-170 94l-170 -94l-25 15l195 110z" />
    <glyph glyph-name="Otilde" unicode="&#xd5;" 
d="M809 370q0 -165 -111.5 -274t-272.5 -109t-272.5 109t-111.5 274t111.5 274t272.5 109t272.5 -109t111.5 -274zM779 370q0 152 -103 254t-251 102t-251 -102t-103 -254t103 -254t251 -102t251 102t103 254zM606 860q-48 -32 -89 -32q-45 0 -91 25q-51 28 -84 28
q-44 0 -78 -27l-20 20q43 35 98 35q37 0 85 -24q54 -27 89 -27q31 0 70 23z" />
    <glyph glyph-name="Odieresis" unicode="&#xd6;" 
d="M809 370q0 -165 -111.5 -274t-272.5 -109t-272.5 109t-111.5 274t111.5 274t272.5 109t272.5 -109t111.5 -274zM779 370q0 152 -103 254t-251 102t-251 -102t-103 -254t103 -254t251 -102t251 102t103 254zM500 803h-29v116h29v-116zM380 803h-29v116h29v-116z" />
    <glyph glyph-name="multiply" unicode="&#xd7;" horiz-adv-x="600" 
d="M550 23l-20 -21l-230 229l-230 -229l-20 21l229 228l-229 226l20 22l230 -228l230 228l20 -22l-229 -226z" />
    <glyph glyph-name="Oslash" unicode="&#xd8;" 
d="M809 370q0 -165 -111.5 -274t-272.5 -109q-118 0 -210 61l-98 -134l-23 18l96 132q-69 52 -109 131.5t-40 174.5q0 165 111.5 274t272.5 109q122 0 219 -65l88 121l24 -18l-88 -121q67 -54 104 -131t37 -169zM779 370q0 85 -34 157t-94 120l-419 -576q86 -57 193 -57
q148 0 251 102t103 254zM627 665q-91 61 -202 61q-148 0 -251 -102t-103 -254q0 -88 36 -161.5t100 -121.5z" />
    <glyph glyph-name="Ugrave" unicode="&#xd9;" horiz-adv-x="605" 
d="M529 260q0 -34 -2 -57t-9.5 -57.5t-27 -63t-50.5 -50.5q-63 -45 -138 -45q-74 0 -137 45q-31 22 -50.5 50.5t-27 63t-9.5 57.5t-2 57v480h30v-480q0 -45 1.5 -67t12 -52t32.5 -59q24 -31 65.5 -49.5t86.5 -18.5q43 0 84 18.5t65 49.5q22 29 32.5 59t12 52t1.5 67v480h30
v-480zM420 813l-13 -23l-238 138l14 23z" />
    <glyph glyph-name="Uacute" unicode="&#xda;" horiz-adv-x="605" 
d="M529 260q0 -34 -2 -57t-9.5 -57.5t-27 -63t-50.5 -50.5q-63 -45 -138 -45q-74 0 -137 45q-31 22 -50.5 50.5t-27 63t-9.5 57.5t-2 57v480h30v-480q0 -45 1.5 -67t12 -52t32.5 -59q24 -31 65.5 -49.5t86.5 -18.5q43 0 84 18.5t65 49.5q22 29 32.5 59t12 52t1.5 67v480h30
v-480zM436 928l-238 -138l-13 23l237 138z" />
    <glyph glyph-name="Ucircumflex" unicode="&#xdb;" horiz-adv-x="605" 
d="M529 260q0 -34 -2 -57t-9.5 -57.5t-27 -63t-50.5 -50.5q-63 -45 -138 -45q-74 0 -137 45q-31 22 -50.5 50.5t-27 63t-9.5 57.5t-2 57v480h30v-480q0 -45 1.5 -67t12 -52t32.5 -59q24 -31 65.5 -49.5t86.5 -18.5q43 0 84 18.5t65 49.5q22 29 32.5 59t12 52t1.5 67v480h30
v-480zM498 823l-26 -15l-170 94l-170 -94l-25 15l195 110z" />
    <glyph glyph-name="Udieresis" unicode="&#xdc;" horiz-adv-x="605" 
d="M529 260q0 -34 -2 -57t-9.5 -57.5t-27 -63t-50.5 -50.5q-63 -45 -138 -45q-74 0 -137 45q-31 22 -50.5 50.5t-27 63t-9.5 57.5t-2 57v480h30v-480q0 -45 1.5 -67t12 -52t32.5 -59q24 -31 65.5 -49.5t86.5 -18.5q43 0 84 18.5t65 49.5q22 29 32.5 59t12 52t1.5 67v480h30
v-480zM377 803h-29v116h29v-116zM257 803h-29v116h29v-116z" />
    <glyph glyph-name="Yacute" unicode="&#xdd;" horiz-adv-x="554" 
d="M539 740l-247 -485v-255h-30v255l-247 485h33l229 -451l228 451h34zM411 928l-238 -138l-13 23l237 138z" />
    <glyph glyph-name="Thorn" unicode="&#xde;" horiz-adv-x="511" 
d="M499 374q0 -50 -21 -96t-54 -70q-36 -27 -74 -35.5t-111 -8.5h-142v-164h-30v740h30v-156h142q73 0 111 -8.5t74 -35.5q33 -24 54 -70t21 -96zM469 373q0 43 -17 82.5t-44 60.5q-32 23 -67.5 32t-100.5 9h-143v-366h143q65 0 100.5 9t67.5 32q26 20 43.5 59.5t17.5 81.5z
" />
    <glyph glyph-name="germandbls" unicode="&#xdf;" horiz-adv-x="559" 
d="M517 185q0 -87 -58.5 -143t-137.5 -55q-35 0 -67 10t-61.5 32.5t-48.5 64t-22 97.5h28q2 -51 20 -88t45.5 -55.5t54.5 -26.5t54 -8q66 -1 115.5 47t49.5 120q0 88 -63 138q-26 20 -57 29.5t-94 9.5h-28v26h27q64 0 112.5 49.5t48.5 122.5q0 81 -46 126t-121 45
q-38 0 -73 -17.5t-54 -45.5q-24 -35 -30.5 -74t-6.5 -117v-472h-28v472q0 84 8.5 126.5t30.5 74.5q25 37 66.5 58t85.5 21q90 0 143 -54.5t53 -142.5q0 -28 -6.5 -57t-33.5 -65.5t-71 -54.5v-2q80 -11 122.5 -66.5t42.5 -124.5z" />
    <glyph glyph-name="agrave" unicode="&#xe0;" horiz-adv-x="674" 
d="M596 0h-28v132h-2q-35 -68 -99 -106.5t-147 -38.5q-125 0 -202 82.5t-77 195.5q0 114 77.5 196t201.5 82q90 0 157 -45t89 -103h2v135h28v-530zM571 265q0 108 -72 180t-179 72q-106 0 -179 -71t-72 -181q0 -99 67 -175.5t187 -76.5q108 0 178 73.5t70 178.5zM435 628
l-13 -23l-238 138l14 23z" />
    <glyph glyph-name="aacute" unicode="&#xe1;" horiz-adv-x="674" 
d="M596 0h-28v132h-2q-35 -68 -99 -106.5t-147 -38.5q-125 0 -202 82.5t-77 195.5q0 114 77.5 196t201.5 82q90 0 157 -45t89 -103h2v135h28v-530zM571 265q0 108 -72 180t-179 72q-106 0 -179 -71t-72 -181q0 -99 67 -175.5t187 -76.5q108 0 178 73.5t70 178.5zM466 743
l-238 -138l-13 23l237 138z" />
    <glyph glyph-name="acircumflex" unicode="&#xe2;" horiz-adv-x="674" 
d="M596 0h-28v132h-2q-35 -68 -99 -106.5t-147 -38.5q-125 0 -202 82.5t-77 195.5q0 114 77.5 196t201.5 82q90 0 157 -45t89 -103h2v135h28v-530zM571 265q0 108 -72 180t-179 72q-106 0 -179 -71t-72 -181q0 -99 67 -175.5t187 -76.5q108 0 178 73.5t70 178.5zM533 638
l-26 -15l-170 94l-170 -94l-25 15l195 110z" />
    <glyph glyph-name="atilde" unicode="&#xe3;" horiz-adv-x="674" 
d="M596 0h-28v132h-2q-35 -68 -99 -106.5t-147 -38.5q-125 0 -202 82.5t-77 195.5q0 114 77.5 196t201.5 82q90 0 157 -45t89 -103h2v135h28v-530zM571 265q0 108 -72 180t-179 72q-106 0 -179 -71t-72 -181q0 -99 67 -175.5t187 -76.5q108 0 178 73.5t70 178.5zM518 665
q-48 -32 -89 -32q-45 0 -91 25q-51 28 -84 28q-44 0 -78 -27l-20 20q43 35 98 35q37 0 85 -24q54 -27 89 -27q31 0 70 23z" />
    <glyph glyph-name="adieresis" unicode="&#xe4;" horiz-adv-x="674" 
d="M596 0h-28v132h-2q-35 -68 -99 -106.5t-147 -38.5q-125 0 -202 82.5t-77 195.5q0 114 77.5 196t201.5 82q90 0 157 -45t89 -103h2v135h28v-530zM571 265q0 108 -72 180t-179 72q-106 0 -179 -71t-72 -181q0 -99 67 -175.5t187 -76.5q108 0 178 73.5t70 178.5zM412 618
h-29v116h29v-116zM292 618h-29v116h29v-116z" />
    <glyph glyph-name="aring" unicode="&#xe5;" horiz-adv-x="674" 
d="M596 0h-28v132h-2q-35 -68 -99 -106.5t-147 -38.5q-125 0 -202 82.5t-77 195.5q0 114 77.5 196t201.5 82q90 0 157 -45t89 -103h2v135h28v-530zM571 265q0 108 -72 180t-179 72q-106 0 -179 -71t-72 -181q0 -99 67 -175.5t187 -76.5q108 0 178 73.5t70 178.5zM429 684
q0 -38 -27 -64.5t-65 -26.5q-37 0 -64 26.5t-27 64.5t27 64.5t64 26.5q38 0 65 -26.5t27 -64.5zM401 685q0 26 -18.5 45t-45.5 19q-26 0 -44.5 -19t-18.5 -45t18.5 -44.5t44.5 -18.5q27 0 45.5 18.5t18.5 44.5z" />
    <glyph glyph-name="ae" unicode="&#xe6;" horiz-adv-x="1154" 
d="M1113 262h-518q6 -72 35 -124.5t69 -77.5t75.5 -36t68.5 -11q75 0 131 41t90 99h33q-30 -66 -97 -115.5t-154 -50.5q-69 0 -127 29.5t-96 85.5q-15 23 -26 60h-2v-162h-28v162h-2q-11 -38 -26 -61q-44 -63 -106.5 -88.5t-112.5 -25.5q-119 -1 -199 78.5t-80 198.5
t79.5 199t197.5 80q69 0 129 -31t98 -91q4 -7 20 -46h2v155h28v-154h2q18 43 20 46q76 121 218 121q125 0 200.5 -82.5t77.5 -198.5zM1082 288q-18 111 -83.5 170t-161.5 59q-107 0 -178 -82q-22 -25 -35.5 -53t-18 -45.5t-9.5 -48.5h486zM568 265q0 101 -72.5 176.5
t-174.5 75.5q-108 0 -180 -72t-72 -180t72 -180t180 -72q100 0 173.5 74.5t73.5 177.5z" />
    <glyph glyph-name="ccedilla" unicode="&#xe7;" horiz-adv-x="619" 
d="M584 358h-31q-27 75 -90 117t-142 42q-55 0 -96 -16.5t-83 -54.5q-33 -30 -53 -79t-20 -102q0 -110 73.5 -181t177.5 -71q85 0 148 45t84 109h31q-28 -82 -98.5 -131t-164.5 -49h-2l-20 -43l2 -1q6 3 13 3q33 0 52.5 -21.5t19.5 -49.5q0 -30 -19.5 -53t-53.5 -23
q-63 0 -74 62h27q9 -35 47 -35q18 0 32 13t14 36q0 20 -13.5 32.5t-32.5 12.5q-26 0 -41 -25l-22 5l41 90q-107 9 -178 85t-71 190q0 118 79.5 198t199.5 80q86 0 160 -48t104 -137z" />
    <glyph glyph-name="egrave" unicode="&#xe8;" horiz-adv-x="619" 
d="M589 277l-1 -15h-528q1 -62 25.5 -111.5t62.5 -78.5t80 -44t83 -15q74 0 134.5 36.5t91.5 103.5h31q-35 -82 -104.5 -124t-153.5 -42q-121 1 -200 80t-79 197q0 119 80.5 199t199.5 80q111 0 192 -73.5t86 -192.5zM560 288q-4 94 -78 161.5t-167 67.5q-102 0 -175 -65
t-79 -164h499zM427 628l-13 -23l-238 138l14 23z" />
    <glyph glyph-name="eacute" unicode="&#xe9;" horiz-adv-x="619" 
d="M589 277l-1 -15h-528q1 -62 25.5 -111.5t62.5 -78.5t80 -44t83 -15q74 0 134.5 36.5t91.5 103.5h31q-35 -82 -104.5 -124t-153.5 -42q-121 1 -200 80t-79 197q0 119 80.5 199t199.5 80q111 0 192 -73.5t86 -192.5zM560 288q-4 94 -78 161.5t-167 67.5q-102 0 -175 -65
t-79 -164h499zM438 743l-238 -138l-13 23l237 138z" />
    <glyph glyph-name="ecircumflex" unicode="&#xea;" horiz-adv-x="619" 
d="M589 277l-1 -15h-528q1 -62 25.5 -111.5t62.5 -78.5t80 -44t83 -15q74 0 134.5 36.5t91.5 103.5h31q-35 -82 -104.5 -124t-153.5 -42q-121 1 -200 80t-79 197q0 119 80.5 199t199.5 80q111 0 192 -73.5t86 -192.5zM560 288q-4 94 -78 161.5t-167 67.5q-102 0 -175 -65
t-79 -164h499zM505 638l-26 -15l-170 94l-170 -94l-25 15l195 110z" />
    <glyph glyph-name="edieresis" unicode="&#xeb;" horiz-adv-x="619" 
d="M589 277l-1 -15h-528q1 -62 25.5 -111.5t62.5 -78.5t80 -44t83 -15q74 0 134.5 36.5t91.5 103.5h31q-35 -82 -104.5 -124t-153.5 -42q-121 1 -200 80t-79 197q0 119 80.5 199t199.5 80q111 0 192 -73.5t86 -192.5zM560 288q-4 94 -78 161.5t-167 67.5q-102 0 -175 -65
t-79 -164h499zM379 618h-29v116h29v-116zM259 618h-29v116h29v-116z" />
    <glyph glyph-name="igrave" unicode="&#xec;" horiz-adv-x="184" 
d="M106 0h-28v530h28v-530zM190 628l-13 -23l-238 138l14 23z" />
    <glyph glyph-name="iacute" unicode="&#xed;" horiz-adv-x="184" 
d="M106 0h-28v530h28v-530zM246 743l-238 -138l-13 23l237 138z" />
    <glyph glyph-name="icircumflex" unicode="&#xee;" horiz-adv-x="184" 
d="M106 0h-28v530h28v-530zM288 638l-26 -15l-170 94l-170 -94l-25 15l195 110z" />
    <glyph glyph-name="idieresis" unicode="&#xef;" horiz-adv-x="184" 
d="M106 0h-28v530h28v-530zM167 618h-29v116h29v-116zM47 618h-29v116h29v-116z" />
    <glyph glyph-name="eth" unicode="&#xf0;" horiz-adv-x="641" 
d="M600 266q0 -128 -85 -203.5t-198 -75.5q-112 0 -194 74t-82 203q0 123 80 201t203 78q56 0 109 -24t87 -66l2 2q-72 111 -214 186l-191 -77l-20 20l180 73q-75 37 -166 68l34 15q91 -31 166 -70l175 70l19 -21l-163 -65q141 -83 199.5 -177.5t58.5 -210.5zM572 266
q0 104 -74.5 177.5t-175.5 73.5q-109 -1 -181 -73t-72 -179q0 -108 71.5 -180t179.5 -72q109 0 180.5 72.5t71.5 180.5z" />
    <glyph glyph-name="ntilde" unicode="&#xf1;" horiz-adv-x="641" 
d="M564 0h-28v280q0 128 -65 187q-56 50 -150 50q-100 0 -157.5 -56.5t-57.5 -155.5v-305h-28v530h28v-102h2q24 54 83.5 84.5t126.5 30.5q104 0 169 -53q77 -65 77 -210v-280zM501 665q-48 -32 -89 -32q-45 0 -91 25q-51 28 -84 28q-44 0 -78 -27l-20 20q43 35 98 35
q37 0 85 -24q54 -27 89 -27q31 0 70 23z" />
    <glyph glyph-name="ograve" unicode="&#xf2;" horiz-adv-x="641" 
d="M599 265q0 -119 -80 -198.5t-199 -79.5t-199 79.5t-80 198.5t80 198.5t199 79.5t199 -79.5t80 -198.5zM571 265q0 108 -72 180t-179 72t-179 -72t-72 -180t72 -180t179 -72t179 72t72 180zM438 628l-13 -23l-238 138l14 23z" />
    <glyph glyph-name="oacute" unicode="&#xf3;" horiz-adv-x="641" 
d="M599 265q0 -119 -80 -198.5t-199 -79.5t-199 79.5t-80 198.5t80 198.5t199 79.5t199 -79.5t80 -198.5zM571 265q0 108 -72 180t-179 72t-179 -72t-72 -180t72 -180t179 -72t179 72t72 180zM449 743l-238 -138l-13 23l237 138z" />
    <glyph glyph-name="ocircumflex" unicode="&#xf4;" horiz-adv-x="641" 
d="M599 265q0 -119 -80 -198.5t-199 -79.5t-199 79.5t-80 198.5t80 198.5t199 79.5t199 -79.5t80 -198.5zM571 265q0 108 -72 180t-179 72t-179 -72t-72 -180t72 -180t179 -72t179 72t72 180zM516 638l-26 -15l-170 94l-170 -94l-25 15l195 110z" />
    <glyph glyph-name="otilde" unicode="&#xf5;" horiz-adv-x="641" 
d="M599 265q0 -119 -80 -198.5t-199 -79.5t-199 79.5t-80 198.5t80 198.5t199 79.5t199 -79.5t80 -198.5zM571 265q0 108 -72 180t-179 72t-179 -72t-72 -180t72 -180t179 -72t179 72t72 180zM501 665q-48 -32 -89 -32q-45 0 -91 25q-51 28 -84 28q-44 0 -78 -27l-20 20
q43 35 98 35q37 0 85 -24q54 -27 89 -27q31 0 70 23z" />
    <glyph glyph-name="odieresis" unicode="&#xf6;" horiz-adv-x="641" 
d="M599 265q0 -119 -80 -198.5t-199 -79.5t-199 79.5t-80 198.5t80 198.5t199 79.5t199 -79.5t80 -198.5zM571 265q0 108 -72 180t-179 72t-179 -72t-72 -180t72 -180t179 -72t179 72t72 180zM395 618h-29v116h29v-116zM275 618h-29v116h29v-116z" />
    <glyph glyph-name="divide" unicode="&#xf7;" horiz-adv-x="600" 
d="M315 419h-30v81h30v-81zM550 236h-500v28h500v-28zM315 0h-30v81h30v-81z" />
    <glyph glyph-name="oslash" unicode="&#xf8;" horiz-adv-x="641" 
d="M599 265q0 -119 -80 -198.5t-199 -79.5q-85 0 -153 44l-60 -83l-22 17l60 82q-104 80 -104 218q0 119 80 198.5t199 79.5q87 0 153 -44l62 86l21 -17l-60 -84q103 -84 103 -219zM571 265q0 124 -91 197l-298 -410q62 -39 138 -39q107 0 179 72t72 180zM457 477
q-60 40 -137 40q-107 0 -179 -72t-72 -180q0 -124 91 -197z" />
    <glyph glyph-name="ugrave" unicode="&#xf9;" horiz-adv-x="641" 
d="M564 0h-28v107h-2q-24 -58 -82 -89t-127 -31q-106 0 -170 53q-77 65 -77 210v280h28v-280q0 -128 65 -187q55 -50 148 -50q102 0 159.5 57t57.5 159v301h28v-530zM438 628l-13 -23l-238 138l14 23z" />
    <glyph glyph-name="uacute" unicode="&#xfa;" horiz-adv-x="641" 
d="M564 0h-28v107h-2q-24 -58 -82 -89t-127 -31q-106 0 -170 53q-77 65 -77 210v280h28v-280q0 -128 65 -187q55 -50 148 -50q102 0 159.5 57t57.5 159v301h28v-530zM454 743l-238 -138l-13 23l237 138z" />
    <glyph glyph-name="ucircumflex" unicode="&#xfb;" horiz-adv-x="641" 
d="M564 0h-28v107h-2q-24 -58 -82 -89t-127 -31q-106 0 -170 53q-77 65 -77 210v280h28v-280q0 -128 65 -187q55 -50 148 -50q102 0 159.5 57t57.5 159v301h28v-530zM516 638l-26 -15l-170 94l-170 -94l-25 15l195 110z" />
    <glyph glyph-name="udieresis" unicode="&#xfc;" horiz-adv-x="641" 
d="M564 0h-28v107h-2q-24 -58 -82 -89t-127 -31q-106 0 -170 53q-77 65 -77 210v280h28v-280q0 -128 65 -187q55 -50 148 -50q102 0 159.5 57t57.5 159v301h28v-530zM395 618h-29v116h29v-116zM275 618h-29v116h29v-116z" />
    <glyph glyph-name="yacute" unicode="&#xfd;" horiz-adv-x="481" 
d="M480 530l-321 -743h-32l94 214l-210 529h31l196 -491l209 491h33zM374 743l-238 -138l-13 23l237 138z" />
    <glyph glyph-name="thorn" unicode="&#xfe;" horiz-adv-x="681" 
d="M639 265q0 -119 -80.5 -198.5t-199.5 -79.5q-84 0 -151 42.5t-100 110.5h-2v-353h-28v953h28v-353h2q22 47 56.5 80t71.5 48.5t67 21.5t56 6q119 0 199.5 -80t80.5 -198zM611 265q0 108 -71.5 180t-179.5 72q-102 0 -178 -71.5t-76 -183.5q0 -97 73.5 -173t180.5 -76
q108 0 179.5 72t71.5 180z" />
    <glyph glyph-name="ydieresis" unicode="&#xff;" horiz-adv-x="481" 
d="M480 530l-321 -743h-32l94 214l-210 529h31l196 -491l209 491h33zM315 618h-29v116h29v-116zM195 618h-29v116h29v-116z" />
    <glyph glyph-name="Amacron" unicode="&#x100;" horiz-adv-x="687" 
d="M680 0h-32l-111 258h-387l-111 -258h-32l317 740h39zM524 285l-181 427l-180 -427h361zM521 870h-356v30h356v-30z" />
    <glyph glyph-name="amacron" unicode="&#x101;" horiz-adv-x="674" 
d="M596 0h-28v132h-2q-35 -68 -99 -106.5t-147 -38.5q-125 0 -202 82.5t-77 195.5q0 114 77.5 196t201.5 82q90 0 157 -45t89 -103h2v135h28v-530zM571 265q0 108 -72 180t-179 72q-106 0 -179 -71t-72 -181q0 -99 67 -175.5t187 -76.5q108 0 178 73.5t70 178.5zM515 660
h-356v30h356v-30z" />
    <glyph glyph-name="Abreve" unicode="&#x102;" horiz-adv-x="687" 
d="M680 0h-32l-111 258h-387l-111 -258h-32l317 740h39zM524 285l-181 427l-180 -427h361zM535 926q-10 -16 -18.5 -26t-29.5 -25.5t-57.5 -23t-86.5 -7.5q-145 0 -191 82h38q36 -53 153 -53q53 0 88 10.5t45 19.5t21 23h38z" />
    <glyph glyph-name="abreve" unicode="&#x103;" horiz-adv-x="674" 
d="M596 0h-28v132h-2q-35 -68 -99 -106.5t-147 -38.5q-125 0 -202 82.5t-77 195.5q0 114 77.5 196t201.5 82q90 0 157 -45t89 -103h2v135h28v-530zM571 265q0 108 -72 180t-179 72q-106 0 -179 -71t-72 -181q0 -99 67 -175.5t187 -76.5q108 0 178 73.5t70 178.5zM529 716
q-10 -16 -18.5 -26t-29.5 -25.5t-57.5 -23t-86.5 -7.5q-145 0 -191 82h38q36 -53 153 -53q53 0 88 10.5t45 19.5t21 23h38z" />
    <glyph glyph-name="Aogonek" unicode="&#x104;" horiz-adv-x="687" 
d="M723 -193q-19 -13 -56 -13q-47 0 -75.5 26.5t-28.5 70.5q0 70 88 109h-3l-111 258h-387l-111 -258h-32l317 740h39l317 -740q-48 -29 -67 -52t-19 -54t21.5 -51t51.5 -20q31 0 56 13v-29zM524 285l-181 427l-180 -427h361z" />
    <glyph glyph-name="aogonek" unicode="&#x105;" horiz-adv-x="674" 
d="M596 0q-47 -28 -65 -51t-18 -55q0 -31 21.5 -51t51.5 -20q23 0 56 13v-29q-24 -13 -56 -13q-47 0 -75.5 26.5t-28.5 70.5q0 75 88 109h-2v132h-2q-35 -68 -99 -106.5t-147 -38.5q-125 0 -202 82.5t-77 195.5q0 114 77.5 196t201.5 82q90 0 157 -45t89 -103h2v135h28v-530
zM571 265q0 108 -72 180t-179 72q-106 0 -179 -71t-72 -181q0 -99 67 -175.5t187 -76.5q108 0 178 73.5t70 178.5z" />
    <glyph glyph-name="Cacute" unicode="&#x106;" horiz-adv-x="786" 
d="M749 575h-35q-14 20 -35 41t-57 48.5t-88 44.5t-109 17q-148 1 -251 -101t-103 -255q0 -152 103 -254t251 -102q60 0 113.5 18t89.5 46t54.5 46.5t31.5 36.5h34q-42 -71 -128.5 -122.5t-194.5 -51.5q-161 0 -272.5 109t-111.5 274t111.5 274.5t272.5 108.5
q109 0 193 -52.5t131 -125.5zM577 953l-238 -138l-13 23l237 138z" />
    <glyph glyph-name="cacute" unicode="&#x107;" horiz-adv-x="619" 
d="M584 358h-31q-27 75 -90 117t-142 42q-55 0 -96 -16.5t-83 -54.5q-33 -30 -53 -79t-20 -102q0 -110 73.5 -181t177.5 -71q85 0 148 45t84 109h31q-28 -82 -98.5 -131t-164.5 -49q-118 0 -198.5 77.5t-80.5 199.5q0 118 79.5 198.5t199.5 80.5q86 0 160 -48t104 -137z
M473 743l-238 -138l-13 23l237 138z" />
    <glyph glyph-name="Ccircumflex" unicode="&#x108;" horiz-adv-x="786" 
d="M749 575h-35q-14 20 -35 41t-57 48.5t-88 44.5t-109 17q-148 1 -251 -101t-103 -255q0 -152 103 -254t251 -102q60 0 113.5 18t89.5 46t54.5 46.5t31.5 36.5h34q-42 -71 -128.5 -122.5t-194.5 -51.5q-161 0 -272.5 109t-111.5 274t111.5 274.5t272.5 108.5
q109 0 193 -52.5t131 -125.5zM619 848l-26 -15l-170 94l-170 -94l-25 15l195 110z" />
    <glyph glyph-name="ccircumflex" unicode="&#x109;" horiz-adv-x="619" 
d="M584 358h-31q-27 75 -90 117t-142 42q-55 0 -96 -16.5t-83 -54.5q-33 -30 -53 -79t-20 -102q0 -110 73.5 -181t177.5 -71q85 0 148 45t84 109h31q-28 -82 -98.5 -131t-164.5 -49q-118 0 -198.5 77.5t-80.5 199.5q0 118 79.5 198.5t199.5 80.5q86 0 160 -48t104 -137z
M514 638l-26 -15l-170 94l-170 -94l-25 15l195 110z" />
    <glyph glyph-name="Cdotaccent" unicode="&#x10a;" horiz-adv-x="786" 
d="M749 575h-35q-14 20 -35 41t-57 48.5t-88 44.5t-109 17q-148 1 -251 -101t-103 -255q0 -152 103 -254t251 -102q60 0 113.5 18t89.5 46t54.5 46.5t31.5 36.5h34q-42 -71 -128.5 -122.5t-194.5 -51.5q-161 0 -272.5 109t-111.5 274t111.5 274.5t272.5 108.5
q109 0 193 -52.5t131 -125.5zM439 828h-31v116h31v-116z" />
    <glyph glyph-name="cdotaccent" unicode="&#x10b;" horiz-adv-x="619" 
d="M584 358h-31q-27 75 -90 117t-142 42q-55 0 -96 -16.5t-83 -54.5q-33 -30 -53 -79t-20 -102q0 -110 73.5 -181t177.5 -71q85 0 148 45t84 109h31q-28 -82 -98.5 -131t-164.5 -49q-118 0 -198.5 77.5t-80.5 199.5q0 118 79.5 198.5t199.5 80.5q86 0 160 -48t104 -137z
M335 618h-31v116h31v-116z" />
    <glyph glyph-name="Ccaron" unicode="&#x10c;" horiz-adv-x="786" 
d="M749 575h-35q-14 20 -35 41t-57 48.5t-88 44.5t-109 17q-148 1 -251 -101t-103 -255q0 -152 103 -254t251 -102q60 0 113.5 18t89.5 46t54.5 46.5t31.5 36.5h34q-42 -71 -128.5 -122.5t-194.5 -51.5q-161 0 -272.5 109t-111.5 274t111.5 274.5t272.5 108.5
q109 0 193 -52.5t131 -125.5zM619 944l-195 -111l-196 110l26 15l170 -94l170 94z" />
    <glyph glyph-name="ccaron" unicode="&#x10d;" horiz-adv-x="619" 
d="M584 358h-31q-27 75 -90 117t-142 42q-55 0 -96 -16.5t-83 -54.5q-33 -30 -53 -79t-20 -102q0 -110 73.5 -181t177.5 -71q85 0 148 45t84 109h31q-28 -82 -98.5 -131t-164.5 -49q-118 0 -198.5 77.5t-80.5 199.5q0 118 79.5 198.5t199.5 80.5q86 0 160 -48t104 -137z
M513 734l-195 -111l-196 110l26 15l170 -94l170 94z" />
    <glyph glyph-name="Dcaron" unicode="&#x10e;" horiz-adv-x="701" 
d="M659 370q0 -174 -99 -272t-274 -98h-209v740h209q175 0 274 -98t99 -272zM629 368q0 162 -90.5 253.5t-252.5 91.5h-179v-686h179q161 0 252 90.5t91 250.5zM496 944l-195 -111l-196 110l26 15l170 -94l170 94z" />
    <glyph glyph-name="dcaron" unicode="&#x10f;" horiz-adv-x="710" 
d="M596 0h-28v132h-2q-35 -68 -99 -106.5t-147 -38.5q-125 0 -202 82.5t-77 195.5q0 114 77.5 196t201.5 82q90 0 157 -45t89 -103h2v345h28v-740zM571 265q0 108 -72 180t-179 72q-106 0 -179 -71t-72 -181q0 -99 67 -175.5t187 -76.5q108 0 178 73.5t70 178.5zM730 740
l-50 -121h-32l50 121h32z" />
    <glyph glyph-name="Dcroat" unicode="&#x110;" horiz-adv-x="711" 
d="M669 370q0 -174 -99 -272t-274 -98h-209v359h-77v27h77v354h209q175 0 274 -98t99 -272zM639 368q0 162 -90.5 253.5t-252.5 91.5h-179v-327h251v-27h-251v-332h179q161 0 252 90.5t91 250.5z" />
    <glyph glyph-name="dcroat" unicode="&#x111;" horiz-adv-x="677" 
d="M596 0h-28v132h-2q-35 -68 -99 -106.5t-147 -38.5q-125 0 -202 82.5t-77 195.5q0 114 77.5 196t201.5 82q90 0 157 -45t89 -103h2v209h-222v26h222v110h28v-110h71v-26h-71v-604zM571 265q0 108 -72 180t-179 72q-106 0 -179 -71t-72 -181q0 -99 67 -175.5t187 -76.5
q108 0 178 73.5t70 178.5z" />
    <glyph glyph-name="Emacron" unicode="&#x112;" horiz-adv-x="547" 
d="M483 0h-406v740h406v-27h-376v-327h376v-27h-376v-332h376v-27zM451 870h-356v30h356v-30z" />
    <glyph glyph-name="emacron" unicode="&#x113;" horiz-adv-x="619" 
d="M589 277l-1 -15h-528q1 -62 25.5 -111.5t62.5 -78.5t80 -44t83 -15q74 0 134.5 36.5t91.5 103.5h31q-35 -82 -104.5 -124t-153.5 -42q-121 1 -200 80t-79 197q0 119 80.5 199t199.5 80q111 0 192 -73.5t86 -192.5zM560 288q-4 94 -78 161.5t-167 67.5q-102 0 -175 -65
t-79 -164h499zM487 660h-356v30h356v-30z" />
    <glyph glyph-name="Ebreve" unicode="&#x114;" horiz-adv-x="547" 
d="M483 0h-406v740h406v-27h-376v-327h376v-27h-376v-332h376v-27zM465 926q-10 -16 -18.5 -26t-29.5 -25.5t-57.5 -23t-86.5 -7.5q-145 0 -191 82h38q36 -53 153 -53q53 0 88 10.5t45 19.5t21 23h38z" />
    <glyph glyph-name="ebreve" unicode="&#x115;" horiz-adv-x="619" 
d="M589 277l-1 -15h-528q1 -62 25.5 -111.5t62.5 -78.5t80 -44t83 -15q74 0 134.5 36.5t91.5 103.5h31q-35 -82 -104.5 -124t-153.5 -42q-121 1 -200 80t-79 197q0 119 80.5 199t199.5 80q111 0 192 -73.5t86 -192.5zM560 288q-4 94 -78 161.5t-167 67.5q-102 0 -175 -65
t-79 -164h499zM501 716q-10 -16 -18.5 -26t-29.5 -25.5t-57.5 -23t-86.5 -7.5q-145 0 -191 82h38q36 -53 153 -53q53 0 88 10.5t45 19.5t21 23h38z" />
    <glyph glyph-name="Edotaccent" unicode="&#x116;" horiz-adv-x="547" 
d="M483 0h-406v740h406v-27h-376v-327h376v-27h-376v-332h376v-27zM289 828h-31v116h31v-116z" />
    <glyph glyph-name="edotaccent" unicode="&#x117;" horiz-adv-x="619" 
d="M589 277l-1 -15h-528q1 -62 25.5 -111.5t62.5 -78.5t80 -44t83 -15q74 0 134.5 36.5t91.5 103.5h31q-35 -82 -104.5 -124t-153.5 -42q-121 1 -200 80t-79 197q0 119 80.5 199t199.5 80q111 0 192 -73.5t86 -192.5zM560 288q-4 94 -78 161.5t-167 67.5q-102 0 -175 -65
t-79 -164h499zM325 618h-31v116h31v-116z" />
    <glyph glyph-name="Eogonek" unicode="&#x118;" horiz-adv-x="547" 
d="M473 -193q-24 -13 -56 -13q-47 0 -75.5 26.5t-28.5 70.5q0 73 88 109h-324v740h406v-27h-376v-327h376v-27h-376v-332h376v-27h-53q-46 -26 -66 -50t-20 -56q0 -31 21.5 -51t51.5 -20q23 0 56 13v-29z" />
    <glyph glyph-name="eogonek" unicode="&#x119;" horiz-adv-x="619" 
d="M432 -193q-24 -13 -56 -13q-47 0 -75.5 26.5t-28.5 70.5q0 63 64 97q-2 0 -12 -0.5t-14 -0.5q-121 1 -200 80t-79 197q0 119 80.5 199t199.5 80q111 0 192 -73.5t86 -192.5l-1 -15h-528q1 -62 25.5 -111.5t62.5 -78.5t80 -44t83 -15q74 0 134.5 36.5t91.5 103.5h31
q-56 -128 -189 -158q-42 -24 -59 -47t-17 -54t21.5 -51t51.5 -20q23 0 56 13v-29zM560 288q-4 94 -78 161.5t-167 67.5q-102 0 -175 -65t-79 -164h499z" />
    <glyph glyph-name="Ecaron" unicode="&#x11a;" horiz-adv-x="547" 
d="M483 0h-406v740h406v-27h-376v-327h376v-27h-376v-332h376v-27zM469 944l-195 -111l-196 110l26 15l170 -94l170 94z" />
    <glyph glyph-name="ecaron" unicode="&#x11b;" horiz-adv-x="619" 
d="M589 277l-1 -15h-528q1 -62 25.5 -111.5t62.5 -78.5t80 -44t83 -15q74 0 134.5 36.5t91.5 103.5h31q-35 -82 -104.5 -124t-153.5 -42q-121 1 -200 80t-79 197q0 119 80.5 199t199.5 80q111 0 192 -73.5t86 -192.5zM560 288q-4 94 -78 161.5t-167 67.5q-102 0 -175 -65
t-79 -164h499zM505 734l-195 -111l-196 110l26 15l170 -94l170 94z" />
    <glyph glyph-name="Gcircumflex" unicode="&#x11c;" horiz-adv-x="853" 
d="M819 313q-16 -136 -128.5 -231t-265.5 -95q-161 0 -272.5 109t-111.5 274t111.5 274t272.5 109q103 0 194.5 -47.5t141.5 -129.5h-36q-114 150 -300 150q-148 0 -251 -102t-103 -254t103 -254t251 -102q135 0 236 81.5t122 190.5h-441v27h477zM622 848l-26 -15l-170 94
l-170 -94l-25 15l195 110z" />
    <glyph glyph-name="gcircumflex" unicode="&#x11d;" horiz-adv-x="675" 
d="M598 59q0 -63 -20.5 -114.5t-50.5 -82t-68 -51.5t-70.5 -29t-59.5 -8q-82 0 -155 43.5t-106 119.5h32q34 -56 69 -82q69 -55 156 -55q97 0 171 71.5t74 182.5v78h-3q-34 -68 -98 -106.5t-147 -38.5q-127 0 -204.5 82.5t-77.5 195.5q0 114 78 196t204 82q90 0 157 -45
t89 -103h2v135h28v-471zM573 265q0 108 -72 180t-179 72t-180.5 -71t-73.5 -181q0 -99 68 -175.5t189 -76.5q108 0 178 73.5t70 178.5zM533 638l-26 -15l-170 94l-170 -94l-25 15l195 110z" />
    <glyph glyph-name="Gbreve" unicode="&#x11e;" horiz-adv-x="853" 
d="M819 313q-16 -136 -128.5 -231t-265.5 -95q-161 0 -272.5 109t-111.5 274t111.5 274t272.5 109q103 0 194.5 -47.5t141.5 -129.5h-36q-114 150 -300 150q-148 0 -251 -102t-103 -254t103 -254t251 -102q135 0 236 81.5t122 190.5h-441v27h477zM618 926q-10 -16 -18.5 -26
t-29.5 -25.5t-57.5 -23t-86.5 -7.5q-145 0 -191 82h38q36 -53 153 -53q53 0 88 10.5t45 19.5t21 23h38z" />
    <glyph glyph-name="gbreve" unicode="&#x11f;" horiz-adv-x="675" 
d="M598 59q0 -63 -20.5 -114.5t-50.5 -82t-68 -51.5t-70.5 -29t-59.5 -8q-82 0 -155 43.5t-106 119.5h32q34 -56 69 -82q69 -55 156 -55q97 0 171 71.5t74 182.5v78h-3q-34 -68 -98 -106.5t-147 -38.5q-127 0 -204.5 82.5t-77.5 195.5q0 114 78 196t204 82q90 0 157 -45
t89 -103h2v135h28v-471zM573 265q0 108 -72 180t-179 72t-180.5 -71t-73.5 -181q0 -99 68 -175.5t189 -76.5q108 0 178 73.5t70 178.5zM529 716q-10 -16 -18.5 -26t-29.5 -25.5t-57.5 -23t-86.5 -7.5q-145 0 -191 82h38q36 -53 153 -53q53 0 88 10.5t45 19.5t21 23h38z" />
    <glyph glyph-name="Gdotaccent" unicode="&#x120;" horiz-adv-x="853" 
d="M819 313q-16 -136 -128.5 -231t-265.5 -95q-161 0 -272.5 109t-111.5 274t111.5 274t272.5 109q103 0 194.5 -47.5t141.5 -129.5h-36q-114 150 -300 150q-148 0 -251 -102t-103 -254t103 -254t251 -102q135 0 236 81.5t122 190.5h-441v27h477zM442 828h-31v116h31v-116z
" />
    <glyph glyph-name="gdotaccent" unicode="&#x121;" horiz-adv-x="675" 
d="M598 59q0 -63 -20.5 -114.5t-50.5 -82t-68 -51.5t-70.5 -29t-59.5 -8q-82 0 -155 43.5t-106 119.5h32q34 -56 69 -82q69 -55 156 -55q97 0 171 71.5t74 182.5v78h-3q-34 -68 -98 -106.5t-147 -38.5q-127 0 -204.5 82.5t-77.5 195.5q0 114 78 196t204 82q90 0 157 -45
t89 -103h2v135h28v-471zM573 265q0 108 -72 180t-179 72t-180.5 -71t-73.5 -181q0 -99 68 -175.5t189 -76.5q108 0 178 73.5t70 178.5zM353 618h-31v116h31v-116z" />
    <glyph glyph-name="Gcommaaccent" unicode="&#x122;" horiz-adv-x="853" 
d="M819 313q-16 -136 -128.5 -231t-265.5 -95q-161 0 -272.5 109t-111.5 274t111.5 274t272.5 109q103 0 194.5 -47.5t141.5 -129.5h-36q-114 150 -300 150q-148 0 -251 -102t-103 -254t103 -254t251 -102q135 0 236 81.5t122 190.5h-441v27h477zM461 -83l-50 -121h-32
l50 121h32z" />
    <glyph glyph-name="gcommaaccent" unicode="&#x123;" horiz-adv-x="675" 
d="M296 619l50 121h32l-50 -121h-32zM598 59q0 -63 -20.5 -114.5t-50.5 -82t-68 -51.5t-70.5 -29t-59.5 -8q-82 0 -155 43.5t-106 119.5h32q34 -56 69 -82q69 -55 156 -55q97 0 171 71.5t74 182.5v78h-3q-34 -68 -98 -106.5t-147 -38.5q-127 0 -204.5 82.5t-77.5 195.5
q0 114 78 196t204 82q90 0 157 -45t89 -103h2v135h28v-471zM573 265q0 108 -72 180t-179 72t-180.5 -71t-73.5 -181q0 -99 68 -175.5t189 -76.5q108 0 178 73.5t70 178.5z" />
    <glyph glyph-name="Hcircumflex" unicode="&#x124;" horiz-adv-x="628" 
d="M551 0h-30v359h-414v-359h-30v740h30v-354h414v354h30v-740zM510 848l-26 -15l-170 94l-170 -94l-25 15l195 110z" />
    <glyph glyph-name="hcircumflex" unicode="&#x125;" horiz-adv-x="640" 
d="M564 0h-28v280q0 128 -65 187q-56 50 -150 50q-100 0 -157.5 -56.5t-57.5 -155.5v-305h-28v740h28v-312h2q24 54 83.5 84.5t126.5 30.5q104 0 169 -53q77 -65 77 -210v-280zM379 821l-26 -15l-170 94l-170 -94l-25 15l195 110z" />
    <glyph glyph-name="Hbar" unicode="&#x126;" horiz-adv-x="628" 
d="M551 0h-30v359h-414v-359h-30v539h-77v27h77v174h30v-174h414v174h30v-174h77v-27h-77v-539zM107 386h414v153h-414v-153z" />
    <glyph glyph-name="hbar" unicode="&#x127;" horiz-adv-x="640" 
d="M564 0h-28v280q0 128 -65 187q-56 50 -150 50q-100 0 -157.5 -56.5t-57.5 -155.5v-305h-28v604h-71v26h71v110h28v-110h222v-26h-222v-176h2q24 54 83.5 84.5t126.5 30.5q104 0 169 -53q77 -65 77 -210v-280z" />
    <glyph glyph-name="Itilde" unicode="&#x128;" horiz-adv-x="185" 
d="M107 0h-30v740h30v-740zM273 875q-48 -32 -89 -32q-45 0 -91 25q-51 28 -84 28q-44 0 -78 -27l-20 20q43 35 98 35q37 0 85 -24q54 -27 89 -27q31 0 70 23z" />
    <glyph glyph-name="itilde" unicode="&#x129;" horiz-adv-x="184" 
d="M106 0h-28v530h28v-530zM273 665q-48 -32 -89 -32q-45 0 -91 25q-51 28 -84 28q-44 0 -78 -27l-20 20q43 35 98 35q37 0 85 -24q54 -27 89 -27q31 0 70 23z" />
    <glyph glyph-name="Imacron" unicode="&#x12a;" horiz-adv-x="185" 
d="M107 0h-30v740h30v-740zM270 870h-356v30h356v-30z" />
    <glyph glyph-name="imacron" unicode="&#x12b;" horiz-adv-x="184" 
d="M106 0h-28v530h28v-530zM270 660h-356v30h356v-30z" />
    <glyph glyph-name="Ibreve" unicode="&#x12c;" horiz-adv-x="185" 
d="M107 0h-30v740h30v-740zM284 926q-10 -16 -18.5 -26t-29.5 -25.5t-57.5 -23t-86.5 -7.5q-145 0 -191 82h38q36 -53 153 -53q53 0 88 10.5t45 19.5t21 23h38z" />
    <glyph glyph-name="ibreve" unicode="&#x12d;" horiz-adv-x="184" 
d="M106 0h-28v530h28v-530zM284 716q-10 -16 -18.5 -26t-29.5 -25.5t-57.5 -23t-86.5 -7.5q-145 0 -191 82h38q36 -53 153 -53q53 0 88 10.5t45 19.5t21 23h38z" />
    <glyph glyph-name="Iogonek" unicode="&#x12e;" horiz-adv-x="185" 
d="M151 -193q-24 -13 -56 -13q-47 0 -75.5 26.5t-28.5 70.5q0 70 88 109h-2v740h30v-740h1q-48 -28 -67 -51t-19 -55q0 -31 21.5 -51t51.5 -20q23 0 56 13v-29z" />
    <glyph glyph-name="iogonek" unicode="&#x12f;" horiz-adv-x="184" 
d="M150 -193q-24 -13 -56 -13q-47 0 -75.5 26.5t-28.5 70.5q0 77 88 109v530h28v-530q-50 -29 -67.5 -51t-17.5 -55q0 -31 21.5 -51t51.5 -20q23 0 56 13v-29zM106 649h-28v91h28v-91z" />
    <glyph glyph-name="Idotaccent" unicode="&#x130;" horiz-adv-x="185" 
d="M107 0h-30v740h30v-740zM108 828h-31v116h31v-116z" />
    <glyph glyph-name="dotlessi" unicode="&#x131;" horiz-adv-x="184" 
d="M106 0h-28v530h28v-530z" />
    <glyph glyph-name="IJ" unicode="&#x132;" horiz-adv-x="638" 
d="M107 0h-30v740h30v-740zM562 212q0 -80 -18 -122q-17 -39 -51 -65q-51 -38 -118 -38q-66 0 -118.5 40.5t-65.5 113.5h33q9 -39 29 -66.5t44 -39.5t43 -16.5t35 -4.5h2q54 1 90 26.5t49 60.5q16 41 16 111v528h30v-528z" />
    <glyph glyph-name="ij" unicode="&#x133;" horiz-adv-x="403" 
d="M106 649h-28v91h28v-91zM106 0h-28v530h28v-530zM307 648h-28v92h28v-92zM307 6q0 -29 -1 -45t-4 -44.5t-12 -46t-23.5 -37t-39 -31t-57.5 -15.5v30q29 4 49 15.5t31.5 27t18 40t8.5 48t2 58.5v524h28v-524z" />
    <glyph glyph-name="Jcircumflex" unicode="&#x134;" horiz-adv-x="453" 
d="M377 212q0 -80 -18 -122q-17 -39 -51 -65q-51 -38 -118 -38q-66 0 -118.5 40.5t-65.5 113.5h33q9 -39 29 -66.5t44 -39.5t43 -16.5t35 -4.5h2q54 1 90 26.5t49 60.5q16 41 16 111v528h30v-528zM494 848l-26 -15l-170 94l-170 -94l-25 15l195 110z" />
    <glyph glyph-name="jcircumflex" unicode="&#x135;" horiz-adv-x="219" 
d="M123 6q0 -29 -1 -45t-4 -44.5t-12 -46t-23.5 -37t-39 -31t-57.5 -15.5v30q29 4 49 15.5t31.5 27t18 40t8.5 48t2 58.5v524h28v-524zM307 638l-26 -15l-170 94l-170 -94l-25 15l195 110z" />
    <glyph glyph-name="Kcommaaccent" unicode="&#x136;" horiz-adv-x="536" 
d="M536 0h-36l-259 351l-120 -158v-193h-30v740h30v-500h2l377 500h36l-276 -365zM303 -83l-50 -121h-32l50 121h32z" />
    <glyph glyph-name="kcommaaccent" unicode="&#x137;" horiz-adv-x="467" 
d="M451 0h-37l-194 249l-114 -152v-97h-28v740h28v-595h2l289 385h37l-196 -259zM268 -83l-50 -121h-32l50 121h32z" />
    <glyph glyph-name="kgreenlandic" unicode="&#x138;" horiz-adv-x="467" 
d="M451 0h-37l-199 240l-109 -127v-113h-28v530h28v-369h2l314 369h37l-226 -268z" />
    <glyph glyph-name="Lacute" unicode="&#x139;" horiz-adv-x="423" 
d="M420 0h-343v740h30v-713h313v-27zM265 953l-238 -138l-13 23l237 138z" />
    <glyph glyph-name="lacute" unicode="&#x13a;" horiz-adv-x="183" 
d="M106 0h-28v740h28v-740zM225 953l-238 -138l-13 23l237 138z" />
    <glyph glyph-name="Lcommaaccent" unicode="&#x13b;" horiz-adv-x="423" 
d="M420 0h-343v740h30v-713h313v-27zM246 -83l-50 -121h-32l50 121h32z" />
    <glyph glyph-name="lcommaaccent" unicode="&#x13c;" horiz-adv-x="183" 
d="M106 0h-28v740h28v-740zM126 -83l-50 -121h-32l50 121h32z" />
    <glyph glyph-name="Lcaron" unicode="&#x13d;" horiz-adv-x="423" 
d="M420 0h-343v740h30v-713h313v-27zM334 739l-50 -121h-32l50 121h32z" />
    <glyph glyph-name="lcaron" unicode="&#x13e;" horiz-adv-x="216" 
d="M106 0h-28v740h28v-740zM236 740l-50 -121h-32l50 121h32z" />
    <glyph glyph-name="Ldot" unicode="&#x13f;" horiz-adv-x="433" 
d="M420 0h-343v740h30v-713h313v-27zM317 278h-31v116h31v-116z" />
    <glyph glyph-name="ldot" unicode="&#x140;" horiz-adv-x="210" 
d="M106 0h-28v740h28v-740zM210 278h-31v116h31v-116z" />
    <glyph glyph-name="Lslash" unicode="&#x141;" horiz-adv-x="423" 
d="M424 0h-343v340l-81 -60v35l81 60v365h30v-343l157 115v-35l-157 -115v-3v-332h313v-27z" />
    <glyph glyph-name="lslash" unicode="&#x142;" horiz-adv-x="219" 
d="M220 470l-97 -72v-398h-28v382l-79 -58v30l79 58v328h28v-312l97 71v-29z" />
    <glyph glyph-name="Nacute" unicode="&#x143;" horiz-adv-x="738" 
d="M661 0h-38l-514 710h-2v-710h-30v740h45l507 -700h2v700h30v-740zM503 953l-238 -138l-13 23l237 138z" />
    <glyph glyph-name="nacute" unicode="&#x144;" horiz-adv-x="641" 
d="M564 0h-28v280q0 128 -65 187q-56 50 -150 50q-100 0 -157.5 -56.5t-57.5 -155.5v-305h-28v530h28v-102h2q24 54 83.5 84.5t126.5 30.5q104 0 169 -53q77 -65 77 -210v-280zM454 743l-238 -138l-13 23l237 138z" />
    <glyph glyph-name="Ncommaaccent" unicode="&#x145;" horiz-adv-x="738" 
d="M661 0h-38l-514 710h-2v-710h-30v740h45l507 -700h2v700h30v-740zM404 -83l-50 -121h-32l50 121h32z" />
    <glyph glyph-name="ncommaaccent" unicode="&#x146;" horiz-adv-x="641" 
d="M564 0h-28v280q0 128 -65 187q-56 50 -150 50q-100 0 -157.5 -56.5t-57.5 -155.5v-305h-28v530h28v-102h2q24 54 83.5 84.5t126.5 30.5q104 0 169 -53q77 -65 77 -210v-280zM355 -83l-50 -121h-32l50 121h32z" />
    <glyph glyph-name="Ncaron" unicode="&#x147;" horiz-adv-x="738" 
d="M661 0h-38l-514 710h-2v-710h-30v740h45l507 -700h2v700h30v-740zM565 944l-195 -111l-196 110l26 15l170 -94l170 94z" />
    <glyph glyph-name="ncaron" unicode="&#x148;" horiz-adv-x="641" 
d="M564 0h-28v280q0 128 -65 187q-56 50 -150 50q-100 0 -157.5 -56.5t-57.5 -155.5v-305h-28v530h28v-102h2q24 54 83.5 84.5t126.5 30.5q104 0 169 -53q77 -65 77 -210v-280zM501 734l-195 -111l-196 110l26 15l170 -94l170 94z" />
    <glyph glyph-name="napostrophe" unicode="&#x149;" horiz-adv-x="681" 
d="M604 0h-28v280q0 128 -65 187q-56 50 -150 50q-100 0 -157.5 -56.5t-57.5 -155.5v-305h-28v530h28v-102h2q24 54 83.5 84.5t126.5 30.5q104 0 169 -53q77 -65 77 -210v-280zM97 740l-64 -154h-33l64 154h33z" />
    <glyph glyph-name="Eng" unicode="&#x14a;" horiz-adv-x="738" 
d="M661 0q0 -32 -1 -53t-8.5 -52t-21.5 -50.5t-41.5 -36t-66.5 -21.5v32q66 10 87 53t22 128l-522 710h-2v-710h-30v740h45l507 -690h2v690h30v-740z" />
    <glyph glyph-name="eng" unicode="&#x14b;" horiz-adv-x="641" 
d="M564 6q0 -29 -1 -45t-4 -44.5t-12 -46t-23.5 -37t-39 -31t-57.5 -15.5v30q66 10 87 53.5t22 129.5v280q0 128 -65 187q-56 50 -150 50q-100 0 -157.5 -56.5t-57.5 -155.5v-305h-28v530h28v-102h2q24 54 83.5 84.5t126.5 30.5q104 0 169 -53q77 -65 77 -210v-274z" />
    <glyph glyph-name="Omacron" unicode="&#x14c;" 
d="M809 370q0 -165 -111.5 -274t-272.5 -109t-272.5 109t-111.5 274t111.5 274t272.5 109t272.5 -109t111.5 -274zM779 370q0 152 -103 254t-251 102t-251 -102t-103 -254t103 -254t251 -102t251 102t103 254zM603 870h-356v30h356v-30z" />
    <glyph glyph-name="omacron" unicode="&#x14d;" horiz-adv-x="641" 
d="M599 265q0 -119 -80 -198.5t-199 -79.5t-199 79.5t-80 198.5t80 198.5t199 79.5t199 -79.5t80 -198.5zM571 265q0 108 -72 180t-179 72t-179 -72t-72 -180t72 -180t179 -72t179 72t72 180zM498 660h-356v30h356v-30z" />
    <glyph glyph-name="Obreve" unicode="&#x14e;" 
d="M809 370q0 -165 -111.5 -274t-272.5 -109t-272.5 109t-111.5 274t111.5 274t272.5 109t272.5 -109t111.5 -274zM779 370q0 152 -103 254t-251 102t-251 -102t-103 -254t103 -254t251 -102t251 102t103 254zM617 926q-10 -16 -18.5 -26t-29.5 -25.5t-57.5 -23t-86.5 -7.5
q-145 0 -191 82h38q36 -53 153 -53q53 0 88 10.5t45 19.5t21 23h38z" />
    <glyph glyph-name="obreve" unicode="&#x14f;" horiz-adv-x="641" 
d="M599 265q0 -119 -80 -198.5t-199 -79.5t-199 79.5t-80 198.5t80 198.5t199 79.5t199 -79.5t80 -198.5zM571 265q0 108 -72 180t-179 72t-179 -72t-72 -180t72 -180t179 -72t179 72t72 180zM512 716q-10 -16 -18.5 -26t-29.5 -25.5t-57.5 -23t-86.5 -7.5q-145 0 -191 82
h38q36 -53 153 -53q53 0 88 10.5t45 19.5t21 23h38z" />
    <glyph glyph-name="Ohungarumlaut" unicode="&#x150;" 
d="M809 370q0 -165 -111.5 -274t-272.5 -109t-272.5 109t-111.5 274t111.5 274t272.5 109t272.5 -109t111.5 -274zM779 370q0 152 -103 254t-251 102t-251 -102t-103 -254t103 -254t251 -102t251 102t103 254zM685 976l-226 -161l-16 23l226 160zM494 976l-226 -161l-16 23
l226 160z" />
    <glyph glyph-name="ohungarumlaut" unicode="&#x151;" horiz-adv-x="641" 
d="M599 265q0 -119 -80 -198.5t-199 -79.5t-199 79.5t-80 198.5t80 198.5t199 79.5t199 -79.5t80 -198.5zM571 265q0 108 -72 180t-179 72t-179 -72t-72 -180t72 -180t179 -72t179 72t72 180zM580 766l-226 -161l-16 23l226 160zM389 766l-226 -161l-16 23l226 160z" />
    <glyph glyph-name="OE" unicode="&#x152;" horiz-adv-x="1178" 
d="M1117 0h-345v229h-2q-31 -106 -127.5 -174t-220.5 -68q-162 0 -271.5 108t-109.5 275t109 275t268 108q126 0 223 -67.5t129 -174.5h2v229h345v-27h-315v-327h315v-27h-315v-332h315v-27zM772 360v22q0 60 -23.5 120t-66 110.5t-111.5 82t-151 31.5q-148 0 -248.5 -100.5
t-100.5 -255.5t100.5 -255.5t248.5 -100.5q80 0 148.5 31t112 81t67.5 111t24 123z" />
    <glyph glyph-name="oe" unicode="&#x153;" horiz-adv-x="1156" 
d="M1116 263h-518q6 -119 79 -184.5t168 -65.5q71 0 133 37t86 105h31q-9 -21 -13.5 -30.5t-16.5 -29.5t-29 -36t-40 -30q-66 -42 -151 -42q-47 0 -96.5 17t-97.5 62.5t-66 111.5h-2q-40 -101 -112 -146t-151 -45q-119 0 -199 79.5t-80 197.5q0 119 80 199t199 80
q63 0 118 -26t93 -73q31 -38 50 -95l2 4q18 54 50.5 92.5t70.5 58t71.5 27.5t65.5 8q117 0 196 -82t79 -194zM1083 289q-2 33 -17.5 70t-44 72.5t-76 58.5t-105.5 23q-94 0 -162 -63t-79 -161h484zM568 263q0 97 -70 175.5t-178 78.5q-107 0 -179 -72t-72 -180t72 -180
t179 -72q105 0 176.5 76t71.5 174z" />
    <glyph glyph-name="Racute" unicode="&#x154;" horiz-adv-x="554" 
d="M540 507q0 -37 -12.5 -74t-37 -71.5t-68.5 -57t-100 -24.5l-29 -1l199 -279h-38l-217 306h46q58 0 94 9t70 38q63 66 63 158q0 50 -23.5 97.5t-64.5 74.5q-31 20 -70 25t-116 5h-139v-713h-30v740h169q140 0 197 -31q45 -24 75.5 -78.5t31.5 -118.5v-5zM431 953
l-238 -138l-13 23l237 138z" />
    <glyph glyph-name="racute" unicode="&#x155;" horiz-adv-x="302" 
d="M293 516q-67 -2 -116 -37q-43 -39 -57 -83.5t-14 -108.5v-287h-28v530h28v-96h2q14 28 34 49t38 31.5t42.5 17.5t37.5 8.5t33 2.5v-27zM345 743l-238 -138l-13 23l237 138z" />
    <glyph glyph-name="Rcommaaccent" unicode="&#x156;" horiz-adv-x="554" 
d="M540 507q0 -37 -12.5 -74t-37 -71.5t-68.5 -57t-100 -24.5l-29 -1l199 -279h-38l-217 306h46q58 0 94 9t70 38q63 66 63 158q0 50 -23.5 97.5t-64.5 74.5q-31 20 -70 25t-116 5h-139v-713h-30v740h169q140 0 197 -31q45 -24 75.5 -78.5t31.5 -118.5v-5zM292 -83l-50 -121
h-32l50 121h32z" />
    <glyph glyph-name="rcommaaccent" unicode="&#x157;" horiz-adv-x="302" 
d="M293 516q-67 -2 -116 -37q-43 -39 -57 -83.5t-14 -108.5v-287h-28v530h28v-96h2q14 28 34 49t38 31.5t42.5 17.5t37.5 8.5t33 2.5v-27zM121 -83l-50 -121h-32l50 121h32z" />
    <glyph glyph-name="Rcaron" unicode="&#x158;" horiz-adv-x="554" 
d="M540 507q0 -37 -12.5 -74t-37 -71.5t-68.5 -57t-100 -24.5l-29 -1l199 -279h-38l-217 306h46q58 0 94 9t70 38q63 66 63 158q0 50 -23.5 97.5t-64.5 74.5q-31 20 -70 25t-116 5h-139v-713h-30v740h169q140 0 197 -31q45 -24 75.5 -78.5t31.5 -118.5v-5zM473 944
l-195 -111l-196 110l26 15l170 -94l170 94z" />
    <glyph glyph-name="rcaron" unicode="&#x159;" horiz-adv-x="302" 
d="M293 516q-67 -2 -116 -37q-43 -39 -57 -83.5t-14 -108.5v-287h-28v530h28v-96h2q14 28 34 49t38 31.5t42.5 17.5t37.5 8.5t33 2.5v-27zM372 734l-195 -111l-196 110l26 15l170 -94l170 94z" />
    <glyph glyph-name="Sacute" unicode="&#x15a;" horiz-adv-x="518" 
d="M474 194q0 -89 -65 -148t-150 -59q-35 0 -70 12t-66.5 35t-52.5 63t-25 90h30q6 -50 27.5 -86.5t50 -54t54.5 -25t51 -7.5q73 0 129.5 50t56.5 126q0 39 -14 69.5t-31 48t-48 32.5t-48 20t-48 13t-46.5 12.5t-48 20t-50.5 33t-33 49t-16 71.5v3q0 87 58.5 138.5
t142.5 51.5q71 0 125.5 -43.5t65.5 -128.5h-30q-27 145 -163 145q-72 0 -120.5 -45t-48.5 -116q0 -34 11.5 -60.5t27.5 -42.5t46.5 -30.5t52.5 -21.5t61 -17q81 -20 122 -54q62 -53 62 -144zM413 953l-238 -138l-13 23l237 138z" />
    <glyph glyph-name="sacute" unicode="&#x15b;" horiz-adv-x="426" 
d="M366 137q0 -63 -44.5 -106.5t-110.5 -43.5t-114.5 42t-48.5 108v10h28q0 -62 38 -98t97 -36q57 0 92 36.5t35 88.5v4q-1 53 -31.5 81.5t-96.5 45.5q-71 18 -107 46.5t-36 90.5q0 59 38.5 98t105.5 39q61 0 100.5 -36t39.5 -102h-28q0 56 -32 84t-80 28q-57 0 -86.5 -31
t-29.5 -80q2 -46 29 -69t87 -40q30 -8 43.5 -12t38.5 -16.5t37 -26.5t23 -38.5t13 -57.5v-9zM357 743l-238 -138l-13 23l237 138z" />
    <glyph glyph-name="Scircumflex" unicode="&#x15c;" horiz-adv-x="518" 
d="M474 194q0 -89 -65 -148t-150 -59q-35 0 -70 12t-66.5 35t-52.5 63t-25 90h30q6 -50 27.5 -86.5t50 -54t54.5 -25t51 -7.5q73 0 129.5 50t56.5 126q0 39 -14 69.5t-31 48t-48 32.5t-48 20t-48 13t-46.5 12.5t-48 20t-50.5 33t-33 49t-16 71.5v3q0 87 58.5 138.5
t142.5 51.5q71 0 125.5 -43.5t65.5 -128.5h-30q-27 145 -163 145q-72 0 -120.5 -45t-48.5 -116q0 -34 11.5 -60.5t27.5 -42.5t46.5 -30.5t52.5 -21.5t61 -17q81 -20 122 -54q62 -53 62 -144zM455 848l-26 -15l-170 94l-170 -94l-25 15l195 110z" />
    <glyph glyph-name="scircumflex" unicode="&#x15d;" horiz-adv-x="426" 
d="M366 137q0 -63 -44.5 -106.5t-110.5 -43.5t-114.5 42t-48.5 108v10h28q0 -62 38 -98t97 -36q57 0 92 36.5t35 88.5v4q-1 53 -31.5 81.5t-96.5 45.5q-71 18 -107 46.5t-36 90.5q0 59 38.5 98t105.5 39q61 0 100.5 -36t39.5 -102h-28q0 56 -32 84t-80 28q-57 0 -86.5 -31
t-29.5 -80q2 -46 29 -69t87 -40q30 -8 43.5 -12t38.5 -16.5t37 -26.5t23 -38.5t13 -57.5v-9zM409 638l-26 -15l-170 94l-170 -94l-25 15l195 110z" />
    <glyph glyph-name="Scedilla" unicode="&#x15e;" horiz-adv-x="518" 
d="M339 -125q0 -30 -19.5 -53t-53.5 -23q-63 0 -74 62h27q9 -35 47 -35q18 0 32 13t14 36q0 20 -13.5 32.5t-32.5 12.5q-26 0 -41 -25l-22 5l40 88q-73 5 -132.5 56t-65.5 143h30q6 -50 27.5 -86.5t50 -54t54.5 -25t51 -7.5q73 0 129.5 50t56.5 126t-41 116t-148 67
q-31 8 -46.5 12.5t-48 20t-50.5 33.5t-33 50.5t-16 72.5q0 87 58.5 138.5t142.5 51.5q71 0 125.5 -43.5t65.5 -128.5h-30q-27 145 -163 145q-72 0 -120.5 -45t-48.5 -116q0 -34 11.5 -60.5t27.5 -42.5t46.5 -30.5t52.5 -21.5t61 -17q184 -46 184 -198q0 -85 -60 -143
t-142 -63l-20 -44l2 -1q6 3 13 3q33 0 52.5 -21.5t19.5 -49.5z" />
    <glyph glyph-name="scedilla" unicode="&#x15f;" horiz-adv-x="426" 
d="M287 -125q0 -30 -19.5 -53t-53.5 -23q-63 0 -74 62h27q9 -35 47 -35q18 0 32 13t14 36q0 20 -13.5 32.5t-32.5 12.5q-26 0 -41 -25l-22 5l40 88q-60 6 -101.5 47t-41.5 102v10h28q0 -62 38 -98t97 -36q57 0 92 36.5t35 88.5v4q-1 53 -31.5 81.5t-96.5 45.5
q-71 18 -107 46.5t-36 90.5q0 59 38.5 98t105.5 39q61 0 100.5 -36t39.5 -102h-28q0 56 -32 84t-80 28q-57 0 -86.5 -31t-29.5 -80q2 -46 29 -69t87 -40q30 -8 43.5 -12t38.5 -16.5t37 -26.5t23 -38.5t13 -57.5v-9q0 -60 -42 -103t-104 -47l-20 -43l2 -1q6 3 13 3
q33 0 52.5 -21.5t19.5 -49.5z" />
    <glyph glyph-name="Scaron" unicode="&#x160;" horiz-adv-x="518" 
d="M474 194q0 -89 -65 -148t-150 -59q-35 0 -70 12t-66.5 35t-52.5 63t-25 90h30q6 -50 27.5 -86.5t50 -54t54.5 -25t51 -7.5q73 0 129.5 50t56.5 126q0 39 -14 69.5t-31 48t-48 32.5t-48 20t-48 13t-46.5 12.5t-48 20t-50.5 33t-33 49t-16 71.5v3q0 87 58.5 138.5
t142.5 51.5q71 0 125.5 -43.5t65.5 -128.5h-30q-27 145 -163 145q-72 0 -120.5 -45t-48.5 -116q0 -34 11.5 -60.5t27.5 -42.5t46.5 -30.5t52.5 -21.5t61 -17q81 -20 122 -54q62 -53 62 -144zM455 919l-195 -111l-196 110l26 15l170 -94l170 94z" />
    <glyph glyph-name="scaron" unicode="&#x161;" horiz-adv-x="426" 
d="M366 137q0 -63 -44.5 -106.5t-110.5 -43.5t-114.5 42t-48.5 108v10h28q0 -62 38 -98t97 -36q57 0 92 36.5t35 88.5v4q-1 53 -31.5 81.5t-96.5 45.5q-71 18 -107 46.5t-36 90.5q0 59 38.5 98t105.5 39q61 0 100.5 -36t39.5 -102h-28q0 56 -32 84t-80 28q-57 0 -86.5 -31
t-29.5 -80q2 -46 29 -69t87 -40q30 -8 43.5 -12t38.5 -16.5t37 -26.5t23 -38.5t13 -57.5v-9zM409 734l-195 -111l-196 110l26 15l170 -94l170 94z" />
    <glyph glyph-name="Tcedilla" unicode="&#x162;" horiz-adv-x="443" 
d="M437 713h-201v-713h-30v713h-201v27h432v-27zM256 -83l-50 -121h-32l50 121h32z" />
    <glyph glyph-name="tcedilla" unicode="&#x163;" horiz-adv-x="296" 
d="M288 504h-136v-504h-28v504h-117v26h117v210h28v-210h136v-26zM163 -83l-50 -121h-32l50 121h32z" />
    <glyph glyph-name="Tcaron" unicode="&#x164;" horiz-adv-x="443" 
d="M437 713h-201v-713h-30v713h-201v27h432v-27zM417 944l-195 -111l-196 110l26 15l170 -94l170 94z" />
    <glyph glyph-name="tcaron" unicode="&#x165;" horiz-adv-x="296" 
d="M288 504h-136v-504h-28v504h-117v26h117v210h28v-210h136v-26zM316 740l-50 -121h-32l50 121h32z" />
    <glyph glyph-name="Tbar" unicode="&#x166;" horiz-adv-x="443" 
d="M386 359h-150v-359h-30v359h-150v27h150v327h-201v27h432v-27h-201v-327h150v-27z" />
    <glyph glyph-name="tbar" unicode="&#x167;" horiz-adv-x="296" 
d="M268 284h-116v-284h-28v284h-97v26h97v194h-117v26h117v210h28v-210h136v-26h-136v-194h116v-26z" />
    <glyph glyph-name="Utilde" unicode="&#x168;" horiz-adv-x="605" 
d="M529 260q0 -34 -2 -57t-9.5 -57.5t-27 -63t-50.5 -50.5q-63 -45 -138 -45q-74 0 -137 45q-31 22 -50.5 50.5t-27 63t-9.5 57.5t-2 57v480h30v-480q0 -45 1.5 -67t12 -52t32.5 -59q24 -31 65.5 -49.5t86.5 -18.5q43 0 84 18.5t65 49.5q22 29 32.5 59t12 52t1.5 67v480h30
v-480zM483 875q-48 -32 -89 -32q-45 0 -91 25q-51 28 -84 28q-44 0 -78 -27l-20 20q43 35 98 35q37 0 85 -24q54 -27 89 -27q31 0 70 23z" />
    <glyph glyph-name="utilde" unicode="&#x169;" horiz-adv-x="641" 
d="M564 0h-28v107h-2q-24 -58 -82 -89t-127 -31q-106 0 -170 53q-77 65 -77 210v280h28v-280q0 -128 65 -187q55 -50 148 -50q102 0 159.5 57t57.5 159v301h28v-530zM501 665q-48 -32 -89 -32q-45 0 -91 25q-51 28 -84 28q-44 0 -78 -27l-20 20q43 35 98 35q37 0 85 -24
q54 -27 89 -27q31 0 70 23z" />
    <glyph glyph-name="Umacron" unicode="&#x16a;" horiz-adv-x="605" 
d="M529 260q0 -34 -2 -57t-9.5 -57.5t-27 -63t-50.5 -50.5q-63 -45 -138 -45q-74 0 -137 45q-31 22 -50.5 50.5t-27 63t-9.5 57.5t-2 57v480h30v-480q0 -45 1.5 -67t12 -52t32.5 -59q24 -31 65.5 -49.5t86.5 -18.5q43 0 84 18.5t65 49.5q22 29 32.5 59t12 52t1.5 67v480h30
v-480zM480 870h-356v30h356v-30z" />
    <glyph glyph-name="umacron" unicode="&#x16b;" horiz-adv-x="641" 
d="M564 0h-28v107h-2q-24 -58 -82 -89t-127 -31q-106 0 -170 53q-77 65 -77 210v280h28v-280q0 -128 65 -187q55 -50 148 -50q102 0 159.5 57t57.5 159v301h28v-530zM498 660h-356v30h356v-30z" />
    <glyph glyph-name="Ubreve" unicode="&#x16c;" horiz-adv-x="605" 
d="M529 260q0 -34 -2 -57t-9.5 -57.5t-27 -63t-50.5 -50.5q-63 -45 -138 -45q-74 0 -137 45q-31 22 -50.5 50.5t-27 63t-9.5 57.5t-2 57v480h30v-480q0 -45 1.5 -67t12 -52t32.5 -59q24 -31 65.5 -49.5t86.5 -18.5q43 0 84 18.5t65 49.5q22 29 32.5 59t12 52t1.5 67v480h30
v-480zM494 926q-10 -16 -18.5 -26t-29.5 -25.5t-57.5 -23t-86.5 -7.5q-145 0 -191 82h38q36 -53 153 -53q53 0 88 10.5t45 19.5t21 23h38z" />
    <glyph glyph-name="ubreve" unicode="&#x16d;" horiz-adv-x="641" 
d="M564 0h-28v107h-2q-24 -58 -82 -89t-127 -31q-106 0 -170 53q-77 65 -77 210v280h28v-280q0 -128 65 -187q55 -50 148 -50q102 0 159.5 57t57.5 159v301h28v-530zM512 716q-10 -16 -18.5 -26t-29.5 -25.5t-57.5 -23t-86.5 -7.5q-145 0 -191 82h38q36 -53 153 -53
q53 0 88 10.5t45 19.5t21 23h38z" />
    <glyph glyph-name="Uring" unicode="&#x16e;" horiz-adv-x="605" 
d="M529 260q0 -34 -2 -57t-9.5 -57.5t-27 -63t-50.5 -50.5q-63 -45 -138 -45q-74 0 -137 45q-31 22 -50.5 50.5t-27 63t-9.5 57.5t-2 57v480h30v-480q0 -45 1.5 -67t12 -52t32.5 -59q24 -31 65.5 -49.5t86.5 -18.5q43 0 84 18.5t65 49.5q22 29 32.5 59t12 52t1.5 67v480h30
v-480zM394 896q0 -38 -27 -64.5t-65 -26.5t-64.5 26.5t-26.5 64.5t27 64.5t64 26.5q38 0 65 -26.5t27 -64.5zM366 897q0 26 -18.5 45t-45.5 19q-26 0 -44.5 -19t-18.5 -45t18.5 -44.5t44.5 -18.5q27 0 45.5 18.5t18.5 44.5z" />
    <glyph glyph-name="uring" unicode="&#x16f;" horiz-adv-x="641" 
d="M564 0h-28v107h-2q-24 -58 -82 -89t-127 -31q-106 0 -170 53q-77 65 -77 210v280h28v-280q0 -128 65 -187q55 -50 148 -50q102 0 159.5 57t57.5 159v301h28v-530zM412 686q0 -38 -27 -64.5t-65 -26.5t-64.5 26.5t-26.5 64.5t27 64.5t64 26.5q38 0 65 -26.5t27 -64.5z
M384 687q0 26 -18.5 45t-45.5 19q-26 0 -44.5 -19t-18.5 -45t18.5 -44.5t44.5 -18.5q27 0 45.5 18.5t18.5 44.5z" />
    <glyph glyph-name="Uhungarumlaut" unicode="&#x170;" horiz-adv-x="605" 
d="M529 260q0 -34 -2 -57t-9.5 -57.5t-27 -63t-50.5 -50.5q-63 -45 -138 -45q-74 0 -137 45q-31 22 -50.5 50.5t-27 63t-9.5 57.5t-2 57v480h30v-480q0 -45 1.5 -67t12 -52t32.5 -59q24 -31 65.5 -49.5t86.5 -18.5q43 0 84 18.5t65 49.5q22 29 32.5 59t12 52t1.5 67v480h30
v-480zM562 976l-226 -161l-16 23l226 160zM371 976l-226 -161l-16 23l226 160z" />
    <glyph glyph-name="uhungarumlaut" unicode="&#x171;" horiz-adv-x="641" 
d="M564 0h-28v107h-2q-24 -58 -82 -89t-127 -31q-106 0 -170 53q-77 65 -77 210v280h28v-280q0 -128 65 -187q55 -50 148 -50q102 0 159.5 57t57.5 159v301h28v-530zM580 766l-226 -161l-16 23l226 160zM389 766l-226 -161l-16 23l226 160z" />
    <glyph glyph-name="Uogonek" unicode="&#x172;" horiz-adv-x="605" 
d="M412 -193q-24 -13 -56 -13q-47 0 -75.5 26.5t-28.5 70.5q0 61 62 97q-2 0 -6 -0.5t-6 -0.5q-74 0 -137 45q-31 22 -50.5 50.5t-27 63t-9.5 57.5t-2 57v480h30v-480q0 -45 1.5 -67t12 -52t32.5 -59q24 -31 65.5 -49.5t86.5 -18.5q43 0 84 18.5t65 49.5q22 29 32.5 59
t12 52t1.5 67v480h30v-480q0 -34 -2 -57t-9.5 -57.5t-27 -63t-50.5 -50.5q-40 -28 -82 -38q-40 -23 -57.5 -46t-17.5 -54t21.5 -51t51.5 -20q23 0 56 13v-29z" />
    <glyph glyph-name="uogonek" unicode="&#x173;" horiz-adv-x="641" 
d="M610 -193q-24 -13 -56 -13q-47 0 -75.5 26.5t-28.5 70.5q0 70 88 109h-2v107h-2q-24 -58 -82 -89t-127 -31q-106 0 -170 53q-77 65 -77 210v280h28v-280q0 -128 65 -187q55 -50 148 -50q102 0 159.5 57t57.5 159v301h28v-530q-47 -27 -65 -50t-18 -56q0 -32 19.5 -51.5
t53.5 -19.5q23 0 56 13v-29z" />
    <glyph glyph-name="Wcircumflex" unicode="&#x174;" horiz-adv-x="888" 
d="M876 740l-212 -740h-39l-181 661h-2l-179 -661h-40l-211 740h32l198 -699h2l189 699h21l191 -699h2l198 699h31zM640 848l-26 -15l-170 94l-170 -94l-25 15l195 110z" />
    <glyph glyph-name="wcircumflex" unicode="&#x175;" horiz-adv-x="758" 
d="M749 530l-196 -530h-32l-142 402h-2l-140 -402h-32l-195 530h31l179 -488h2l147 416h21l147 -416h2l178 488h32zM575 638l-26 -15l-170 94l-170 -94l-25 15l195 110z" />
    <glyph glyph-name="Ycircumflex" unicode="&#x176;" horiz-adv-x="554" 
d="M539 740l-247 -485v-255h-30v255l-247 485h33l229 -451l228 451h34zM473 848l-26 -15l-170 94l-170 -94l-25 15l195 110z" />
    <glyph glyph-name="ycircumflex" unicode="&#x177;" horiz-adv-x="481" 
d="M480 530l-321 -743h-32l94 214l-210 529h31l196 -491l209 491h33zM436 638l-26 -15l-170 94l-170 -94l-25 15l195 110z" />
    <glyph glyph-name="Ydieresis" unicode="&#x178;" horiz-adv-x="554" 
d="M539 740l-247 -485v-255h-30v255l-247 485h33l229 -451l228 451h34zM352 803h-29v116h29v-116zM232 803h-29v116h29v-116z" />
    <glyph glyph-name="Zacute" unicode="&#x179;" horiz-adv-x="499" 
d="M493 0h-473l403 713h-417v27h466l-403 -713h424v-27zM383 953l-238 -138l-13 23l237 138z" />
    <glyph glyph-name="zacute" unicode="&#x17a;" horiz-adv-x="407" 
d="M394 0h-382v24l329 480h-311v26h347v-27l-329 -477h346v-26zM337 743l-238 -138l-13 23l237 138z" />
    <glyph glyph-name="Zdotaccent" unicode="&#x17b;" horiz-adv-x="499" 
d="M493 0h-473l403 713h-417v27h466l-403 -713h424v-27zM251 828h-31v116h31v-116z" />
    <glyph glyph-name="zdotaccent" unicode="&#x17c;" horiz-adv-x="407" 
d="M394 0h-382v24l329 480h-311v26h347v-27l-329 -477h346v-26zM219 618h-31v116h31v-116z" />
    <glyph glyph-name="Zcaron" unicode="&#x17d;" horiz-adv-x="499" 
d="M493 0h-473l403 713h-417v27h466l-403 -713h424v-27zM440 919l-195 -111l-196 110l26 15l170 -94l170 94z" />
    <glyph glyph-name="zcaron" unicode="&#x17e;" horiz-adv-x="407" 
d="M394 0h-382v24l329 480h-311v26h347v-27l-329 -477h346v-26zM399 734l-195 -111l-196 110l26 15l170 -94l170 94z" />
    <glyph glyph-name="florin" unicode="&#x192;" horiz-adv-x="555" 
d="M542 810l-6 -26q-12 2 -19 2h-5q-57 -3 -90 -36q-39 -38 -57 -137l-9 -51h141l-7 -27h-138l-94 -498q-6 -33 -10.5 -52t-18 -48.5t-31 -46t-49.5 -29.5t-74 -13q-33 0 -60 8l6 28q36 -9 54 -9q35 0 61.5 10.5t41 24.5t25.5 38.5t14.5 40t8.5 42.5l95 504h-144l6 27h142
l10 51q13 66 27.5 100.5t42.5 59.5q46 40 110 40q15 0 27 -3z" />
    <glyph glyph-name="AEacute" unicode="&#x1fc;" horiz-adv-x="944" 
d="M870 0h-346v264h-315l-183 -264h-34l512 740h366v-27h-316v-327h316v-27h-316v-332h316v-27zM524 291v431h-2l-291 -431h293zM719 953l-238 -138l-13 23l237 138z" />
    <glyph glyph-name="aeacute" unicode="&#x1fd;" horiz-adv-x="1154" 
d="M1113 262h-518q6 -72 35 -124.5t69 -77.5t75.5 -36t68.5 -11q75 0 131 41t90 99h33q-30 -66 -97 -115.5t-154 -50.5q-69 0 -127 29.5t-96 85.5q-15 23 -26 60h-2v-162h-28v162h-2q-11 -38 -26 -61q-44 -63 -106.5 -88.5t-112.5 -25.5q-119 -1 -199 78.5t-80 198.5
t79.5 199t197.5 80q69 0 129 -31t98 -91q4 -7 20 -46h2v155h28v-154h2q18 43 20 46q76 121 218 121q125 0 200.5 -82.5t77.5 -198.5zM1082 288q-18 111 -83.5 170t-161.5 59q-107 0 -178 -82q-22 -25 -35.5 -53t-18 -45.5t-9.5 -48.5h486zM568 265q0 101 -72.5 176.5
t-174.5 75.5q-108 0 -180 -72t-72 -180t72 -180t180 -72q100 0 173.5 74.5t73.5 177.5zM732 743l-238 -138l-13 23l237 138z" />
    <glyph glyph-name="Oslashacute" unicode="&#x1fe;" 
d="M809 370q0 -165 -111.5 -274t-272.5 -109q-118 0 -210 61l-98 -134l-23 18l96 132q-69 52 -109 131.5t-40 174.5q0 165 111.5 274t272.5 109q122 0 219 -65l88 121l24 -18l-88 -121q67 -54 104 -131t37 -169zM779 370q0 85 -34 157t-94 120l-419 -576q86 -57 193 -57
q148 0 251 102t103 254zM627 665q-91 61 -202 61q-148 0 -251 -102t-103 -254q0 -88 36 -161.5t100 -121.5zM586 953l-238 -138l-13 23l237 138z" />
    <glyph glyph-name="oslashacute" unicode="&#x1ff;" horiz-adv-x="641" 
d="M599 265q0 -119 -80 -198.5t-199 -79.5q-85 0 -153 44l-60 -83l-22 17l60 82q-104 80 -104 218q0 119 80 198.5t199 79.5q87 0 153 -44l62 86l21 -17l-60 -84q103 -84 103 -219zM571 265q0 124 -91 197l-298 -410q62 -39 138 -39q107 0 179 72t72 180zM457 477
q-60 40 -137 40q-107 0 -179 -72t-72 -180q0 -124 91 -197zM476 743l-238 -138l-13 23l237 138z" />
    <glyph glyph-name="Scommaaccent" unicode="&#x218;" horiz-adv-x="518" 
d="M474 194q0 -89 -65 -148t-150 -59q-35 0 -70 12t-66.5 35t-52.5 63t-25 90h30q6 -50 27.5 -86.5t50 -54t54.5 -25t51 -7.5q73 0 129.5 50t56.5 126q0 39 -14 69.5t-31 48t-48 32.5t-48 20t-48 13t-46.5 12.5t-48 20t-50.5 33t-33 49t-16 71.5v3q0 87 58.5 138.5
t142.5 51.5q71 0 125.5 -43.5t65.5 -128.5h-30q-27 145 -163 145q-72 0 -120.5 -45t-48.5 -116q0 -34 11.5 -60.5t27.5 -42.5t46.5 -30.5t52.5 -21.5t61 -17q81 -20 122 -54q62 -53 62 -144zM294 -83l-50 -121h-32l50 121h32z" />
    <glyph glyph-name="scommaaccent" unicode="&#x219;" horiz-adv-x="426" 
d="M366 137q0 -63 -44.5 -106.5t-110.5 -43.5t-114.5 42t-48.5 108v10h28q0 -62 38 -98t97 -36q57 0 92 36.5t35 88.5v4q-1 53 -31.5 81.5t-96.5 45.5q-71 18 -107 46.5t-36 90.5q0 59 38.5 98t105.5 39q61 0 100.5 -36t39.5 -102h-28q0 56 -32 84t-80 28q-57 0 -86.5 -31
t-29.5 -80q2 -46 29 -69t87 -40q30 -8 43.5 -12t38.5 -16.5t37 -26.5t23 -38.5t13 -57.5v-9zM233 -83l-50 -121h-32l50 121h32z" />
    <glyph glyph-name="Tcommaaccent" unicode="&#x21a;" horiz-adv-x="443" 
d="M437 713h-201v-713h-30v713h-201v27h432v-27zM256 -83l-50 -121h-32l50 121h32z" />
    <glyph glyph-name="tcommaaccent" unicode="&#x21b;" horiz-adv-x="296" 
d="M288 504h-136v-504h-28v504h-117v26h117v210h28v-210h136v-26zM163 -83l-50 -121h-32l50 121h32z" />
    <glyph glyph-name="circumflex" unicode="&#x2c6;" horiz-adv-x="555" 
d="M473 638l-26 -15l-170 94l-170 -94l-25 15l195 110z" />
    <glyph glyph-name="caron" unicode="&#x2c7;" horiz-adv-x="555" 
d="M473 734l-195 -111l-196 110l26 15l170 -94l170 94z" />
    <glyph glyph-name="uni02C9" unicode="&#x2c9;" horiz-adv-x="555" 
d="M455 660h-356v30h356v-30z" />
    <glyph glyph-name="breve" unicode="&#x2d8;" horiz-adv-x="555" 
d="M469 716q-10 -16 -18.5 -26t-29.5 -25.5t-57.5 -23t-86.5 -7.5q-145 0 -191 82h38q36 -53 153 -53q53 0 88 10.5t45 19.5t21 23h38z" />
    <glyph glyph-name="dotaccent" unicode="&#x2d9;" horiz-adv-x="555" 
d="M293 618h-31v116h31v-116z" />
    <glyph glyph-name="ring" unicode="&#x2da;" horiz-adv-x="555" 
d="M369 686q0 -38 -27 -64.5t-65 -26.5q-37 0 -64 26.5t-27 64.5t27 64.5t64 26.5q38 0 65 -26.5t27 -64.5zM341 687q0 26 -18.5 45t-45.5 19q-26 0 -44.5 -19t-18.5 -45t18.5 -44.5t44.5 -18.5q27 0 45.5 18.5t18.5 44.5z" />
    <glyph glyph-name="ogonek" unicode="&#x2db;" horiz-adv-x="555" 
d="M357 -193q-24 -13 -56 -13q-47 0 -75.5 26.5t-28.5 70.5q0 77 88 109h29q-50 -29 -68 -51t-18 -55q0 -31 21.5 -51t51.5 -20q23 0 56 13v-29z" />
    <glyph glyph-name="tilde" unicode="&#x2dc;" horiz-adv-x="555" 
d="M458 665q-48 -32 -89 -32q-45 0 -91 25q-51 28 -84 28q-44 0 -78 -27l-20 20q43 35 98 35q37 0 85 -24q54 -27 89 -27q31 0 70 23z" />
    <glyph glyph-name="hungarumlaut" unicode="&#x2dd;" horiz-adv-x="555" 
d="M537 766l-226 -161l-16 23l226 160zM346 766l-226 -161l-16 23l226 160z" />
    <glyph glyph-name="uni03A9" unicode="&#x3a9;" horiz-adv-x="652" 
d="M599 0h-189v28q160 139 160 352q0 134 -63.5 220t-177.5 86q-111 0 -179 -86.5t-68 -217.5q0 -125 45 -208t116 -146v-28h-189v28h147q-58 49 -102.5 137.5t-44.5 212.5q0 143 76.5 238.5t197.5 95.5q125 0 197.5 -91t72.5 -242q0 -113 -44 -206t-103 -145h148v-28z" />
    <glyph glyph-name="uni03BC" unicode="&#x3bc;" horiz-adv-x="561" 
d="M484 0h-28v119h-2q-43 -132 -181 -132q-119 0 -170 90h-2v-258h-28v711h28v-300q0 -36 1.5 -58t10.5 -52.5t27 -50.5q47 -56 133 -56q85 0 134 66.5t49 198.5v252h28v-530z" />
    <glyph glyph-name="pi" unicode="&#x3c0;" horiz-adv-x="558" 
d="M511 30l9 -28q-14 -7 -40 -7q-47 0 -70.5 30t-23.5 78v367h-227v-350q0 -69 -11 -120h-31q12 45 12 118v352q-47 0 -97 -18q-1 4 -5 14t-5 15q49 19 113 19h386v-30h-105v-367q0 -78 66 -78q15 0 29 5z" />
    <glyph glyph-name="Wgrave" unicode="&#x1e80;" horiz-adv-x="888" 
d="M876 740l-212 -740h-39l-181 661h-2l-179 -661h-40l-211 740h32l198 -699h2l189 699h21l191 -699h2l198 699h31zM542 838l-13 -23l-238 138l14 23z" />
    <glyph glyph-name="wgrave" unicode="&#x1e81;" horiz-adv-x="758" 
d="M749 530l-196 -530h-32l-142 402h-2l-140 -402h-32l-195 530h31l179 -488h2l147 416h21l147 -416h2l178 488h32zM497 628l-13 -23l-238 138l14 23z" />
    <glyph glyph-name="Wacute" unicode="&#x1e82;" horiz-adv-x="888" 
d="M876 740l-212 -740h-39l-181 661h-2l-179 -661h-40l-211 740h32l198 -699h2l189 699h21l191 -699h2l198 699h31zM598 953l-238 -138l-13 23l237 138z" />
    <glyph glyph-name="wacute" unicode="&#x1e83;" horiz-adv-x="758" 
d="M749 530l-196 -530h-32l-142 402h-2l-140 -402h-32l-195 530h31l179 -488h2l147 416h21l147 -416h2l178 488h32zM513 743l-238 -138l-13 23l237 138z" />
    <glyph glyph-name="Wdieresis" unicode="&#x1e84;" horiz-adv-x="888" 
d="M876 740l-212 -740h-39l-181 661h-2l-179 -661h-40l-211 740h32l198 -699h2l189 699h21l191 -699h2l198 699h31zM519 828h-29v116h29v-116zM399 828h-29v116h29v-116z" />
    <glyph glyph-name="wdieresis" unicode="&#x1e85;" horiz-adv-x="758" 
d="M749 530l-196 -530h-32l-142 402h-2l-140 -402h-32l-195 530h31l179 -488h2l147 416h21l147 -416h2l178 488h32zM454 618h-29v116h29v-116zM334 618h-29v116h29v-116z" />
    <glyph glyph-name="Ygrave" unicode="&#x1ef2;" horiz-adv-x="554" 
d="M539 740l-247 -485v-255h-30v255l-247 485h33l229 -451l228 451h34zM395 838l-13 -23l-238 138l14 23z" />
    <glyph glyph-name="ygrave" unicode="&#x1ef3;" horiz-adv-x="481" 
d="M480 530l-321 -743h-32l94 214l-210 529h31l196 -491l209 491h33zM358 628l-13 -23l-238 138l14 23z" />
    <glyph glyph-name="endash" unicode="&#x2013;" horiz-adv-x="500" 
d="M465 262h-430v29h430v-29z" />
    <glyph glyph-name="emdash" unicode="&#x2014;" horiz-adv-x="1000" 
d="M965 262h-930v29h930v-29z" />
    <glyph glyph-name="quoteleft" unicode="&#x2018;" horiz-adv-x="277" 
d="M187 586h-33l-64 154h33z" />
    <glyph glyph-name="quoteright" unicode="&#x2019;" horiz-adv-x="277" 
d="M187 740l-64 -154h-33l64 154h33z" />
    <glyph glyph-name="quotesinglbase" unicode="&#x201a;" horiz-adv-x="277" 
d="M187 82l-64 -154h-33l64 154h33z" />
    <glyph glyph-name="quotedblleft" unicode="&#x201c;" horiz-adv-x="370" 
d="M278 586h-33l-64 154h33zM189 586h-33l-64 154h33z" />
    <glyph glyph-name="quotedblright" unicode="&#x201d;" horiz-adv-x="370" 
d="M278 740l-64 -154h-33l64 154h33zM189 740l-64 -154h-33l64 154h33z" />
    <glyph glyph-name="quotedblbase" unicode="&#x201e;" horiz-adv-x="370" 
d="M278 82l-64 -154h-33l64 154h33zM189 82l-64 -154h-33l64 154h33z" />
    <glyph glyph-name="dagger" unicode="&#x2020;" horiz-adv-x="573" 
d="M491 496h-190v-596h-30v596h-188v30h188v214h30v-214h190v-30z" />
    <glyph glyph-name="daggerdbl" unicode="&#x2021;" horiz-adv-x="573" 
d="M491 85h-188v-185h-30v185h-190v30h190v410h-190v30h190v185h30v-185h188v-30h-188v-410h188v-30z" />
    <glyph glyph-name="bullet" unicode="&#x2022;" horiz-adv-x="375" 
d="M340 377q0 -64 -45 -109.5t-107 -45.5q-63 0 -108 46t-45 109t44.5 109t109.5 46q62 0 106.5 -45.5t44.5 -109.5z" />
    <glyph glyph-name="ellipsis" unicode="&#x2026;" horiz-adv-x="1000" 
d="M848 0h-30v82h30v-82zM515 0h-30v82h30v-82zM182 0h-30v82h30v-82z" />
    <glyph glyph-name="perthousand" unicode="&#x2030;" horiz-adv-x="1089" 
d="M1070 150q0 -70 -46 -116.5t-117 -46.5t-117 46.5t-46 116.5t46 116.5t117 46.5t117 -46.5t46 -116.5zM346 590q0 -70 -46 -116.5t-117 -46.5t-117 46.5t-46 116.5t46 116.5t117 46.5t117 -46.5t46 -116.5zM601 740l-457 -740h-32l457 740h32zM695 150
q0 -70 -46.5 -116.5t-116.5 -46.5t-116.5 46.5t-46.5 116.5t46.5 116.5t116.5 46.5t116.5 -46.5t46.5 -116.5zM1042 150q0 60 -37.5 99t-97.5 39t-97.5 -39t-37.5 -99t37.5 -99t97.5 -39t97.5 39t37.5 99zM318 590q0 60 -37.5 99t-97.5 39t-97.5 -39t-37.5 -99t37.5 -99
t97.5 -39t97.5 39t37.5 99zM667 150q0 60 -37.5 99t-97.5 39t-97.5 -39t-37.5 -99t37.5 -99t97.5 -39t97.5 39t37.5 99z" />
    <glyph glyph-name="guilsinglleft" unicode="&#x2039;" horiz-adv-x="248" 
d="M184 110l-20 -26l-111 191l111 194l20 -26l-96 -168z" />
    <glyph glyph-name="guilsinglright" unicode="&#x203a;" horiz-adv-x="248" 
d="M195 275l-111 -191l-20 26l96 165l-96 168l20 26z" />
    <glyph glyph-name="fraction" unicode="&#x2044;" horiz-adv-x="86" 
d="M227 740l-330 -740h-29l329 740h30z" />
    <glyph glyph-name="Euro" unicode="&#x20ac;" horiz-adv-x="555" 
d="M536 152q-13 -75 -55 -116q-51 -49 -145 -49q-106 0 -162 71q-57 71 -65 239h-82l5 26h76v38q0 46 1 70h-82l5 26h78q7 136 56 210q57 86 171 86q91 0 143 -52q43 -45 50 -116h-29q-8 64 -45 99q-44 42 -120 42q-97 0 -146 -76q-43 -66 -50 -193h304l-5 -26h-300
q-1 -21 -1 -60q0 -7 0.5 -23t0.5 -25h280l-5 -26h-274q8 -157 59 -223q46 -60 138 -60q82 0 126 44q31 31 43 94h30z" />
    <glyph glyph-name="litre" unicode="&#x2113;" horiz-adv-x="450" 
d="M370 60q-55 -71 -117 -71q-39 0 -61 24q-32 32 -32 104v153l-62 -74l-22 17l84 104v264q0 147 92 147q36 0 52 -26.5t16 -63.5q0 -145 -99 -293q-25 -35 -29 -40v-200q0 -44 17.5 -65t44.5 -21q43 0 93 58q4 -4 12.5 -10t10.5 -7zM290 638q0 22 -11 40.5t-32 18.5
q-55 0 -55 -126v-215q7 9 18 27q35 57 57.5 128.5t22.5 126.5z" />
    <glyph glyph-name="trademark" unicode="&#x2122;" horiz-adv-x="908" 
d="M838 296h-27v405h-2l-208 -405h-16l-208 404h-2v-404h-27v444h37l208 -402l209 402h36v-444zM285 716h-125v-420h-27v420h-124l1 24h275v-24z" />
    <glyph glyph-name="Omega" unicode="&#x2126;" horiz-adv-x="652" 
d="M599 0h-189v28q160 139 160 352q0 134 -63.5 220t-177.5 86q-111 0 -179 -86.5t-68 -217.5q0 -125 45 -208t116 -146v-28h-189v28h147q-58 49 -102.5 137.5t-44.5 212.5q0 143 76.5 238.5t197.5 95.5q125 0 197.5 -91t72.5 -242q0 -113 -44 -206t-103 -145h148v-28z" />
    <glyph glyph-name="estimated" unicode="&#x212e;" horiz-adv-x="626" 
d="M600 284h-439v-195q64 -64 156 -64q133 0 209 129q6 -3 12 -6.5t13 -8t11 -6.5q-48 -72 -104.5 -108.5t-140.5 -36.5q-125 0 -201 85t-76 211q0 127 75.5 212t201.5 85q128 0 203 -83.5t80 -213.5zM474 321v158q-65 65 -157 65q-93 0 -156 -64v-159h313z" />
    <glyph glyph-name="onethird" unicode="&#x2153;" horiz-adv-x="718" 
d="M148 296h-28v419h-95v25h123v-444zM482 740l-330 -740h-29l329 740h30zM668 131q0 -61 -39 -100t-100 -39q-55 0 -96.5 37.5t-42.5 104.5h28q1 -41 20 -69t42.5 -38t48.5 -10q51 0 81 31.5t30 80.5q0 41 -30 76.5t-89 35.5h-27v25h27q30 0 50 10t28 25.5t10.5 25.5
t2.5 19q0 34 -21.5 57t-57.5 24q-35 0 -57 -22.5t-24 -58.5h-28q3 53 36.5 79.5t73.5 26.5q42 0 74 -29.5t32 -75.5q0 -62 -57 -92q38 -15 61.5 -49t23.5 -75z" />
    <glyph glyph-name="twothirds" unicode="&#x2154;" horiz-adv-x="840" 
d="M324 296h-271v23l185 193q55 58 55 104q0 44 -24 75.5t-78 31.5q-45 0 -73 -30t-30 -84v-9h-28v8q2 70 41.5 105t91.5 35q58 0 93 -35.5t35 -96.5q0 -56 -64 -122l-165 -173h232v-25zM604 740l-330 -740h-29l329 740h30zM790 131q0 -61 -39 -100t-100 -39
q-55 0 -96.5 37.5t-42.5 104.5h28q1 -41 20 -69t42.5 -38t48.5 -10q51 0 81 31.5t30 80.5q0 41 -30 76.5t-89 35.5h-27v25h27q30 0 50 10t28 25.5t10.5 25.5t2.5 19q0 34 -21.5 57t-57.5 24q-35 0 -57 -22.5t-24 -58.5h-28q3 53 36.5 79.5t73.5 26.5q42 0 74 -29.5t32 -75.5
q0 -62 -57 -92q38 -15 61.5 -49t23.5 -75z" />
    <glyph glyph-name="oneeighth" unicode="&#x215b;" horiz-adv-x="722" 
d="M148 296h-28v419h-95v25h123v-444zM482 740l-330 -740h-29l329 740h30zM672 127q-1 -56 -41 -95.5t-97 -39.5t-97 39.5t-41 95.5q0 42 23 76t61 48q-24 16 -40 41.5t-16 52.5q0 43 32.5 75t77.5 32t77.5 -31t32.5 -76q0 -27 -16 -52.5t-40 -41.5q38 -15 61 -48t23 -76z
M644 127q0 46 -32 78.5t-78 32.5t-78 -32.5t-32 -78.5t32 -78t78 -32t78 32t32 78zM616 344q0 35 -23.5 59t-58.5 24t-58.5 -24t-23.5 -59q0 -34 23.5 -58t58.5 -24t58.5 24t23.5 58z" />
    <glyph glyph-name="threeeighths" unicode="&#x215c;" horiz-adv-x="850" 
d="M318 427q0 -61 -39 -100t-100 -39q-55 0 -96.5 37.5t-42.5 104.5h28q1 -41 20 -69t42.5 -38t48.5 -10q51 0 81 31.5t30 80.5q0 41 -30 76.5t-89 35.5h-27v25h27q30 0 50 10t28 25.5t10.5 25.5t2.5 19q0 34 -21.5 57t-57.5 24q-35 0 -57 -22.5t-24 -58.5h-28
q3 53 36.5 79.5t73.5 26.5q42 0 74 -29.5t32 -75.5q0 -62 -57 -92q38 -15 61.5 -49t23.5 -75zM610 740l-330 -740h-29l329 740h30zM800 127q-1 -56 -41 -95.5t-97 -39.5t-97 39.5t-41 95.5q0 42 23 76t61 48q-24 16 -40 41.5t-16 52.5q0 43 32.5 75t77.5 32t77.5 -31
t32.5 -76q0 -27 -16 -52.5t-40 -41.5q38 -15 61 -48t23 -76zM772 127q0 46 -32 78.5t-78 32.5t-78 -32.5t-32 -78.5t32 -78t78 -32t78 32t32 78zM744 344q0 35 -23.5 59t-58.5 24t-58.5 -24t-23.5 -59q0 -34 23.5 -58t58.5 -24t58.5 24t23.5 58z" />
    <glyph glyph-name="fiveeighths" unicode="&#x215d;" horiz-adv-x="875" 
d="M342 442q0 -65 -45 -109.5t-106 -44.5q-50 0 -96.5 37.5t-53.5 106.5h28q6 -55 42.5 -87t80.5 -32q50 0 86 38t36 90q0 54 -36.5 91.5t-85.5 37.5q-57 0 -98 -52l-22 6l40 216h205v-25h-182q-7 -36 -29 -153q40 33 87 33q64 0 106.5 -45.5t42.5 -107.5zM635 740
l-330 -740h-29l329 740h30zM825 127q-1 -56 -41 -95.5t-97 -39.5t-97 39.5t-41 95.5q0 42 23 76t61 48q-24 16 -40 41.5t-16 52.5q0 43 32.5 75t77.5 32t77.5 -31t32.5 -76q0 -27 -16 -52.5t-40 -41.5q38 -15 61 -48t23 -76zM797 127q0 46 -32 78.5t-78 32.5t-78 -32.5
t-32 -78.5t32 -78t78 -32t78 32t32 78zM769 344q0 35 -23.5 59t-58.5 24t-58.5 -24t-23.5 -59q0 -34 23.5 -58t58.5 -24t58.5 24t23.5 58z" />
    <glyph glyph-name="seveneighths" unicode="&#x215e;" horiz-adv-x="707" 
d="M274 718l-197 -422h-29l196 419h-210v25h240v-22zM467 740l-330 -740h-29l329 740h30zM657 127q-1 -56 -41 -95.5t-97 -39.5t-97 39.5t-41 95.5q0 42 23 76t61 48q-24 16 -40 41.5t-16 52.5q0 43 32.5 75t77.5 32t77.5 -31t32.5 -76q0 -27 -16 -52.5t-40 -41.5
q38 -15 61 -48t23 -76zM629 127q0 46 -32 78.5t-78 32.5t-78 -32.5t-32 -78.5t32 -78t78 -32t78 32t32 78zM601 344q0 35 -23.5 59t-58.5 24t-58.5 -24t-23.5 -59q0 -34 23.5 -58t58.5 -24t58.5 24t23.5 58z" />
    <glyph glyph-name="partialdiff" unicode="&#x2202;" horiz-adv-x="518" 
d="M463 518q0 -90 -27 -202q-14 -58 -33.5 -109.5t-50 -103t-75.5 -82t-98 -30.5q-61 0 -97.5 45t-36.5 121q0 135 74.5 240.5t177.5 105.5q87 0 127 -79h2q6 46 6 85q0 185 -135 185q-40 0 -82 -24l-12 27q15 10 45 18.5t53 8.5q78 0 120 -52t42 -154zM417 373
q-11 45 -44 72t-84 27q-58 0 -107.5 -45t-78 -117t-28.5 -151q0 -66 30.5 -102.5t77.5 -36.5q78 0 138.5 90t95.5 263z" />
    <glyph glyph-name="Delta" unicode="&#x2206;" horiz-adv-x="536" 
d="M504 0h-486v23q39 113 118.5 338.5t118.5 338.5h15q39 -113 117 -338.5t117 -338.5v-23zM470 28q-32 95 -96.5 284t-96.5 284q-5 12 -9 29.5t-5 21.5h-1q-9 -36 -15 -51q-21 -62 -89 -261t-105 -307h417z" />
    <glyph glyph-name="product" unicode="&#x220f;" horiz-adv-x="644" 
d="M557 -230h-29v904h-411v-904h-29v930h469v-930z" />
    <glyph glyph-name="summation" unicode="&#x2211;" horiz-adv-x="569" 
d="M553 -230h-531v6q56 78 168 231.5t168 231.5q-52 75 -154.5 224.5t-154.5 224.5v12h476v-28h-428q23 -34 131.5 -191t166.5 -242q-53 -73 -160 -220.5t-160 -220.5h478v-28z" />
    <glyph glyph-name="minus" unicode="&#x2212;" horiz-adv-x="600" 
d="M550 236h-500v28h500v-28z" />
    <glyph glyph-name="uni2215" unicode="&#x2215;" horiz-adv-x="86" 
d="M227 740l-330 -740h-29l329 740h30z" />
    <glyph glyph-name="uni2219" unicode="&#x2219;" horiz-adv-x="277" 
d="M154 331h-30v81h30v-81z" />
    <glyph glyph-name="radical" unicode="&#x221a;" horiz-adv-x="436" 
d="M453 728q-38 -143 -105 -404.5t-86 -335.5h-25q-23 62 -68 187.5t-68 187.5q-8 -5 -26 -13t-26 -12q-2 5 -5.5 15t-5.5 15l42 18t41 17q25 -67 71 -193t55 -150q28 110 169 668h37z" />
    <glyph glyph-name="infinity" unicode="&#x221e;" horiz-adv-x="695" 
d="M637 294q0 -58 -36 -98t-93 -40q-101 0 -158 106h-2q-27 -45 -67 -75.5t-84 -30.5q-66 0 -101 38.5t-35 94.5q0 60 34 99t98 39q96 0 156 -105h2q64 105 151 105q59 0 97 -35.5t38 -97.5zM601 293q0 45 -25 74t-71 29q-76 0 -140 -104q59 -105 138 -105q48 0 73 29.5
t25 76.5zM333 292q-24 45 -63 74.5t-76 29.5q-50 0 -73.5 -30t-23.5 -77t27.5 -74.5t69.5 -27.5q76 0 139 105z" />
    <glyph glyph-name="integral" unicode="&#x222b;" horiz-adv-x="449" 
d="M370 709q-16 10 -43 10q-41 0 -63 -28t-22 -77v-699q0 -62 -33 -95.5t-85 -33.5q-30 0 -50 10q2 5 5 14.5t5 13.5q22 -9 43 -9q85 0 85 104v701q0 60 33 94t87 34q31 0 47 -10q-1 -4 -4 -14t-5 -15z" />
    <glyph glyph-name="approxequal" unicode="&#x2248;" horiz-adv-x="600" 
d="M523 358q-18 -33 -44.5 -52t-54.5 -19q-36 0 -114 36t-112 37h-5q-62 0 -98 -62l-19 18q38 72 116 72h6q40 -2 118 -37q78 -36 106 -36q26 0 44.5 16.5t37.5 45.5zM523 188q-18 -33 -44.5 -52t-54.5 -19q-36 0 -114 36t-112 37h-5q-62 0 -98 -62l-19 18q38 72 116 72h6
q40 -2 118 -37q78 -36 106 -36q26 0 44.5 16.5t37.5 45.5z" />
    <glyph glyph-name="notequal" unicode="&#x2260;" horiz-adv-x="600" 
d="M488 500l-97 -139h159v-28h-175l-116 -166h291v-28h-306l-97 -139h-35l97 139h-159v28h174l116 166h-290v28h306l97 139h35z" />
    <glyph glyph-name="lessequal" unicode="&#x2264;" horiz-adv-x="600" 
d="M550 80l-500 235v32l500 235v-31l-467 -220l467 -220v-31zM552 0h-504v28h504v-28z" />
    <glyph glyph-name="greaterequal" unicode="&#x2265;" horiz-adv-x="600" 
d="M550 315l-500 -235v31l467 220l-467 220v31l500 -235v-32zM552 0h-504v28h504v-28z" />
    <glyph glyph-name="lozenge" unicode="&#x25ca;" horiz-adv-x="495" 
d="M443 350q-30 -58 -90 -175t-90 -175h-22q-30 58 -90 174.5t-90 174.5l180 351h22q30 -58 90 -175t90 -175zM405 350l-153 297q-25 -50 -77 -148.5t-77 -148.5l153 -297q52 99 154 297z" />
    <glyph glyph-name="A.alt01" unicode="&#xe000;" horiz-adv-x="656" 
d="M579 0h-30v251h-341l-178 -251h-37l526 740h60v-740zM549 278v450h-2l-319 -450h321z" />
    <glyph glyph-name="Aacute.alt01" unicode="&#xe001;" horiz-adv-x="656" 
d="M579 0h-30v251h-341l-178 -251h-37l526 740h60v-740zM549 278v450h-2l-319 -450h321zM472 803l237 138l14 -23l-238 -138z" />
    <glyph glyph-name="Agrave.alt01" unicode="&#xe002;" horiz-adv-x="656" 
d="M579 0h-30v251h-341l-178 -251h-37l526 740h60v-740zM549 278v450h-2l-319 -450h321zM356 941l237 -138l-13 -23l-238 138z" />
    <glyph glyph-name="Acircumflex.alt01" unicode="&#xe003;" horiz-adv-x="656" 
d="M579 0h-30v251h-341l-178 -251h-37l526 740h60v-740zM549 278v450h-2l-319 -450h321zM558 915l182 -117h-45l-151 95l-150 -95h-45l181 117h28z" />
    <glyph glyph-name="Adieresis.alt01" unicode="&#xe004;" horiz-adv-x="656" 
d="M579 0h-30v251h-341l-178 -251h-37l526 740h60v-740zM549 278v450h-2l-319 -450h321zM468 914v-116h-29v116h29zM634 914v-116h-29v116h29z" />
    <glyph glyph-name="Atilde.alt01" unicode="&#xe005;" horiz-adv-x="656" 
d="M579 0h-30v251h-341l-178 -251h-37l526 740h60v-740zM549 278v450h-2l-319 -450h321zM693 880l20 -20q-36 -40 -95 -40q-35 0 -90 18.5t-85 18.5q-49 0 -75 -32l-20 20q36 40 95 40q35 0 90 -18.5t85 -18.5q49 0 75 32z" />
    <glyph glyph-name="Aring.alt01" unicode="&#xe006;" horiz-adv-x="656" 
d="M579 0h-30v251h-341l-178 -251h-37l526 740h60v-740zM549 278v450h-2l-319 -450h321zM553 942q37 0 64 -27t27 -64q0 -38 -27 -64.5t-65 -26.5t-64.5 27t-26.5 64q0 38 27 64.5t65 26.5zM551 916q-26 0 -44 -19t-18 -45t18.5 -44.5t44.5 -18.5t45 18.5t19 44.5
q0 27 -19 45.5t-46 18.5z" />
    <glyph glyph-name="Amacron.alt01" unicode="&#xe007;" horiz-adv-x="656" 
d="M579 0h-30v251h-341l-178 -251h-37l526 740h60v-740zM549 278v450h-2l-319 -450h321zM726 870h-356v30h356v-30z" />
    <glyph glyph-name="Abreve.alt01" unicode="&#xe008;" horiz-adv-x="656" 
d="M579 0h-30v251h-341l-178 -251h-37l526 740h60v-740zM549 278v450h-2l-319 -450h321zM740 926q-10 -16 -18.5 -26t-29.5 -25.5t-57.5 -23t-86.5 -7.5q-145 0 -191 82h38q36 -53 153 -53q53 0 88 10.5t45 19.5t21 23h38z" />
    <glyph glyph-name="Aogonek.alt01" unicode="&#xe009;" horiz-adv-x="656" 
d="M622 -193q-24 -13 -56 -13q-47 0 -75.5 26.5t-28.5 70.5q0 70 88 109h-1v251h-341l-178 -251h-37l526 740h60v-740q-47 -27 -66.5 -50.5t-19.5 -55.5q0 -31 21.5 -51t51.5 -20q23 0 56 13v-29zM549 278v450h-2l-319 -450h321z" />
    <glyph glyph-name="A.alt02" unicode="&#xe00a;" horiz-adv-x="656" 
d="M663 0h-37l-178 251h-341v-251h-30v740h60zM428 278l-319 450h-2v-450h321z" />
    <glyph glyph-name="Aacute.alt02" unicode="&#xe00b;" horiz-adv-x="656" 
d="M664 0h-37l-178 251h-341v-251h-30v740h60zM429 278l-319 450h-2v-450h321zM64 803l237 138l14 -23l-238 -138z" />
    <glyph glyph-name="Agrave.alt02" unicode="&#xe00c;" horiz-adv-x="656" 
d="M664 0h-37l-178 251h-341v-251h-30v740h60zM429 278l-319 450h-2v-450h321zM-14 941l237 -138l-13 -23l-238 138z" />
    <glyph glyph-name="Acircumflex.alt02" unicode="&#xe00d;" horiz-adv-x="656" 
d="M664 0h-37l-178 251h-341v-251h-30v740h60zM429 278l-319 450h-2v-450h321zM130 915l182 -117h-45l-151 95l-150 -95h-45l181 117h28z" />
    <glyph glyph-name="Adieresis.alt02" unicode="&#xe00e;" horiz-adv-x="656" 
d="M664 0h-37l-178 251h-341v-251h-30v740h60zM429 278l-319 450h-2v-450h321zM34 914v-116h-29v116h29zM200 914v-116h-29v116h29z" />
    <glyph glyph-name="Atilde.alt02" unicode="&#xe00f;" horiz-adv-x="656" 
d="M664 0h-37l-178 251h-341v-251h-30v740h60zM429 278l-319 450h-2v-450h321zM278 875l20 -20q-36 -40 -95 -40q-35 0 -90 18.5t-85 18.5q-49 0 -75 -32l-20 20q36 40 95 40q35 0 90 -18.5t85 -18.5q49 0 75 32z" />
    <glyph glyph-name="Aring.alt02" unicode="&#xe010;" horiz-adv-x="656" 
d="M664 0h-37l-178 251h-341v-251h-30v740h60zM429 278l-319 450h-2v-450h321zM103 942q37 0 64 -27t27 -64q0 -38 -27 -64.5t-65 -26.5t-64.5 27t-26.5 64q0 38 27 64.5t65 26.5zM101 916q-26 0 -44 -19t-18 -45t18.5 -44.5t44.5 -18.5t45 18.5t19 44.5q0 27 -19 45.5
t-46 18.5z" />
    <glyph glyph-name="Amacron.alt02" unicode="&#xe011;" horiz-adv-x="656" 
d="M663 0h-37l-178 251h-341v-251h-30v740h60zM428 278l-319 450h-2v-450h321zM283 870h-356v30h356v-30z" />
    <glyph glyph-name="Abreve.alt02" unicode="&#xe012;" horiz-adv-x="656" 
d="M663 0h-37l-178 251h-341v-251h-30v740h60zM428 278l-319 450h-2v-450h321zM298 926q-10 -16 -18.5 -26t-29.5 -25.5t-57.5 -23t-86.5 -7.5q-145 0 -191 82h38q36 -53 153 -53q53 0 88 10.5t45 19.5t21 23h38z" />
    <glyph glyph-name="Aogonek.alt02" unicode="&#xe013;" horiz-adv-x="656" 
d="M705 -193q-24 -13 -56 -13q-47 0 -75.5 26.5t-28.5 70.5q0 70 88 109h-7l-178 251h-341v-251h-30v740h60l526 -740h-1q-49 -30 -67.5 -52t-18.5 -54q0 -31 21.5 -51t51.5 -20q23 0 56 13v-29zM428 278l-319 450h-2v-450h321z" />
    <glyph glyph-name="A.alt03" unicode="&#xe014;" horiz-adv-x="886" 
d="M809 0h-30v216h-2q-41 -102 -135.5 -165.5t-216.5 -63.5q-161 0 -272.5 109t-111.5 274t111.5 274t272.5 109q122 0 218 -65.5t134 -163.5h2v216h30v-740zM779 370q0 152 -103 254t-251 102t-251 -102t-103 -254t103 -254t251 -102t251 102t103 254z" />
    <glyph glyph-name="Aacute.alt03" unicode="&#xe015;" horiz-adv-x="886" 
d="M809 0h-30v216h-2q-41 -102 -135.5 -165.5t-216.5 -63.5q-161 0 -272.5 109t-111.5 274t111.5 274t272.5 109q122 0 218 -65.5t134 -163.5h2v216h30v-740zM779 370q0 152 -103 254t-251 102t-251 -102t-103 -254t103 -254t251 -102t251 102t103 254zM332 833l237 138
l14 -23l-238 -138z" />
    <glyph glyph-name="Agrave.alt03" unicode="&#xe016;" horiz-adv-x="886" 
d="M809 0h-30v216h-2q-41 -102 -135.5 -165.5t-216.5 -63.5q-161 0 -272.5 109t-111.5 274t111.5 274t272.5 109q122 0 218 -65.5t134 -163.5h2v216h30v-740zM779 370q0 152 -103 254t-251 102t-251 -102t-103 -254t103 -254t251 -102t251 102t103 254zM279 971l237 -138
l-13 -23l-238 138z" />
    <glyph glyph-name="Acircumflex.alt03" unicode="&#xe017;" horiz-adv-x="886" 
d="M809 0h-30v216h-2q-41 -102 -135.5 -165.5t-216.5 -63.5q-161 0 -272.5 109t-111.5 274t111.5 274t272.5 109q122 0 218 -65.5t134 -163.5h2v216h30v-740zM779 370q0 152 -103 254t-251 102t-251 -102t-103 -254t103 -254t251 -102t251 102t103 254zM440 915l182 -117
h-45l-151 95l-150 -95h-45l181 117h28z" />
    <glyph glyph-name="Adieresis.alt03" unicode="&#xe018;" horiz-adv-x="886" 
d="M809 0h-30v216h-2q-41 -102 -135.5 -165.5t-216.5 -63.5q-161 0 -272.5 109t-111.5 274t111.5 274t272.5 109q122 0 218 -65.5t134 -163.5h2v216h30v-740zM779 370q0 152 -103 254t-251 102t-251 -102t-103 -254t103 -254t251 -102t251 102t103 254zM353 935v-116h-29
v116h29zM519 935v-116h-29v116h29z" />
    <glyph glyph-name="Atilde.alt03" unicode="&#xe019;" horiz-adv-x="886" 
d="M809 0h-30v216h-2q-41 -102 -135.5 -165.5t-216.5 -63.5q-161 0 -272.5 109t-111.5 274t111.5 274t272.5 109q122 0 218 -65.5t134 -163.5h2v216h30v-740zM779 370q0 152 -103 254t-251 102t-251 -102t-103 -254t103 -254t251 -102t251 102t103 254zM588 895l20 -20
q-36 -40 -95 -40q-35 0 -90 18.5t-85 18.5q-49 0 -75 -32l-20 20q36 40 95 40q35 0 90 -18.5t85 -18.5q49 0 75 32z" />
    <glyph glyph-name="Aring.alt03" unicode="&#xe01a;" horiz-adv-x="886" 
d="M809 0h-30v216h-2q-41 -102 -135.5 -165.5t-216.5 -63.5q-161 0 -272.5 109t-111.5 274t111.5 274t272.5 109q122 0 218 -65.5t134 -163.5h2v216h30v-740zM779 370q0 152 -103 254t-251 102t-251 -102t-103 -254t103 -254t251 -102t251 102t103 254zM425 962q37 0 64 -27
t27 -64q0 -38 -27 -64.5t-65 -26.5t-64.5 27t-26.5 64q0 38 27 64.5t65 26.5zM423 936q-26 0 -44 -19t-18 -45t18.5 -44.5t44.5 -18.5t45 18.5t19 44.5q0 27 -19 45.5t-46 18.5z" />
    <glyph glyph-name="Amacron.alt03" unicode="&#xe01b;" horiz-adv-x="886" 
d="M809 0h-30v216h-2q-41 -102 -135.5 -165.5t-216.5 -63.5q-161 0 -272.5 109t-111.5 274t111.5 274t272.5 109q122 0 218 -65.5t134 -163.5h2v216h30v-740zM779 370q0 152 -103 254t-251 102t-251 -102t-103 -254t103 -254t251 -102t251 102t103 254zM601 870h-356v30h356
v-30z" />
    <glyph glyph-name="Abreve.alt03" unicode="&#xe01c;" horiz-adv-x="886" 
d="M809 0h-30v216h-2q-41 -102 -135.5 -165.5t-216.5 -63.5q-161 0 -272.5 109t-111.5 274t111.5 274t272.5 109q122 0 218 -65.5t134 -163.5h2v216h30v-740zM779 370q0 152 -103 254t-251 102t-251 -102t-103 -254t103 -254t251 -102t251 102t103 254zM615 926
q-10 -16 -18.5 -26t-29.5 -25.5t-57.5 -23t-86.5 -7.5q-145 0 -191 82h38q36 -53 153 -53q53 0 88 10.5t45 19.5t21 23h38z" />
    <glyph glyph-name="Aogonek.alt03" unicode="&#xe01d;" horiz-adv-x="886" 
d="M852 -193q-24 -13 -56 -13q-47 0 -75.5 26.5t-28.5 70.5q0 76 88 109h-1v216h-2q-41 -102 -135.5 -165.5t-216.5 -63.5q-161 0 -272.5 109t-111.5 274t111.5 274t272.5 109q122 0 218 -65.5t134 -163.5h2v216h30v-740q-86 -44 -86 -106q0 -31 21.5 -51t51.5 -20
q23 0 56 13v-29zM779 370q0 152 -103 254t-251 102t-251 -102t-103 -254t103 -254t251 -102t251 102t103 254z" />
    <glyph glyph-name="C.alt01" unicode="&#xe01e;" horiz-adv-x="601" 
d="M550 7q-57 -20 -125 -20q-161 0 -272.5 109t-111.5 274t111.5 274t272.5 109q77 0 125 -22v-29q-63 24 -125 24q-148 0 -251 -102t-103 -254t103 -254t251 -102q59 0 125 22v-29z" />
    <glyph glyph-name="Ccedilla.alt01" unicode="&#xe01f;" horiz-adv-x="601" 
d="M550 7q-57 -20 -125 -20q-20 0 -31 1l-20 -44l2 -1q6 3 13 3q33 0 52.5 -21.5t19.5 -49.5q0 -30 -19.5 -53t-53.5 -23q-63 0 -74 62h27q9 -35 47 -35q18 0 32 13t14 36q0 20 -13.5 32.5t-32.5 12.5q-26 0 -41 -25l-22 5l42 91q-141 21 -233.5 126t-92.5 253
q0 165 111.5 274t272.5 109q77 0 125 -22v-29q-63 24 -125 24q-148 0 -251 -102t-103 -254t103 -254t251 -102q59 0 125 22v-29z" />
    <glyph glyph-name="Cacute.alt01" unicode="&#xe020;" horiz-adv-x="601" 
d="M550 7q-57 -20 -125 -20q-161 0 -272.5 109t-111.5 274t111.5 274t272.5 109q77 0 125 -22v-29q-63 24 -125 24q-148 0 -251 -102t-103 -254t103 -254t251 -102q59 0 125 22v-29zM584 953l-238 -138l-13 23l237 138z" />
    <glyph glyph-name="Ccircumflex.alt01" unicode="&#xe021;" horiz-adv-x="601" 
d="M550 7q-57 -20 -125 -20q-161 0 -272.5 109t-111.5 274t111.5 274t272.5 109q77 0 125 -22v-29q-63 24 -125 24q-148 0 -251 -102t-103 -254t103 -254t251 -102q59 0 125 22v-29zM576 848l-26 -15l-170 94l-170 -94l-25 15l195 110z" />
    <glyph glyph-name="Cdotaccent.alt01" unicode="&#xe022;" horiz-adv-x="601" 
d="M550 7q-57 -20 -125 -20q-161 0 -272.5 109t-111.5 274t111.5 274t272.5 109q77 0 125 -22v-29q-63 24 -125 24q-148 0 -251 -102t-103 -254t103 -254t251 -102q59 0 125 22v-29zM396 828h-31v116h31v-116z" />
    <glyph glyph-name="Ccaron.alt01" unicode="&#xe023;" horiz-adv-x="601" 
d="M550 7q-57 -20 -125 -20q-161 0 -272.5 109t-111.5 274t111.5 274t272.5 109q77 0 125 -22v-29q-63 24 -125 24q-148 0 -251 -102t-103 -254t103 -254t251 -102q59 0 125 22v-29zM576 944l-195 -111l-196 110l26 15l170 -94l170 94z" />
    <glyph glyph-name="E.alt01" unicode="&#xe024;" horiz-adv-x="601" 
d="M550 7q-57 -20 -125 -20q-161 0 -272.5 109t-111.5 274t111.5 274t272.5 109q77 0 125 -22v-29q-63 24 -125 24q-144 0 -246 -96.5t-108 -243.5h470v-27h-470q4 -148 106.5 -246.5t247.5 -98.5q59 0 125 22v-29z" />
    <glyph glyph-name="Eacute.alt01" unicode="&#xe025;" horiz-adv-x="601" 
d="M550 7q-57 -20 -125 -20q-161 0 -272.5 109t-111.5 274t111.5 274t272.5 109q77 0 125 -22v-29q-63 24 -125 24q-144 0 -246 -96.5t-108 -243.5h470v-27h-470q4 -148 106.5 -246.5t247.5 -98.5q59 0 125 22v-29zM310 808l237 138l14 -23l-238 -138z" />
    <glyph glyph-name="Egrave.alt01" unicode="&#xe026;" horiz-adv-x="601" 
d="M550 7q-57 -20 -125 -20q-161 0 -272.5 109t-111.5 274t111.5 274t272.5 109q77 0 125 -22v-29q-63 24 -125 24q-144 0 -246 -96.5t-108 -243.5h470v-27h-470q4 -148 106.5 -246.5t247.5 -98.5q59 0 125 22v-29zM244 946l237 -138l-13 -23l-238 138z" />
    <glyph glyph-name="Ecircumflex.alt01" unicode="&#xe027;" horiz-adv-x="601" 
d="M550 7q-57 -20 -125 -20q-161 0 -272.5 109t-111.5 274t111.5 274t272.5 109q77 0 125 -22v-29q-63 24 -125 24q-144 0 -246 -96.5t-108 -243.5h470v-27h-470q4 -148 106.5 -246.5t247.5 -98.5q59 0 125 22v-29zM382 940l182 -117h-45l-151 95l-150 -95h-45l181 117h28z
" />
    <glyph glyph-name="Edieresis.alt01" unicode="&#xe028;" horiz-adv-x="601" 
d="M550 7q-57 -20 -125 -20q-161 0 -272.5 109t-111.5 274t111.5 274t272.5 109q77 0 125 -22v-29q-63 24 -125 24q-144 0 -246 -96.5t-108 -243.5h470v-27h-470q4 -148 106.5 -246.5t247.5 -98.5q59 0 125 22v-29zM336 919v-116h-29v116h29zM502 919v-116h-29v116h29z" />
    <glyph glyph-name="Emacron.alt01" unicode="&#xe029;" horiz-adv-x="601" 
d="M550 7q-57 -20 -125 -20q-161 0 -272.5 109t-111.5 274t111.5 274t272.5 109q77 0 125 -22v-29q-63 24 -125 24q-144 0 -246 -96.5t-108 -243.5h470v-27h-470q4 -148 106.5 -246.5t247.5 -98.5q59 0 125 22v-29zM558 870h-356v30h356v-30z" />
    <glyph glyph-name="Ebreve.alt01" unicode="&#xe02a;" horiz-adv-x="601" 
d="M550 7q-57 -20 -125 -20q-161 0 -272.5 109t-111.5 274t111.5 274t272.5 109q77 0 125 -22v-29q-63 24 -125 24q-144 0 -246 -96.5t-108 -243.5h470v-27h-470q4 -148 106.5 -246.5t247.5 -98.5q59 0 125 22v-29zM602 926q-10 -16 -18.5 -26t-29.5 -25.5t-57.5 -23
t-86.5 -7.5q-145 0 -191 82h38q36 -53 153 -53q53 0 88 10.5t45 19.5t21 23h38z" />
    <glyph glyph-name="Edotaccent.alt01" unicode="&#xe02b;" horiz-adv-x="601" 
d="M550 7q-57 -20 -125 -20q-161 0 -272.5 109t-111.5 274t111.5 274t272.5 109q77 0 125 -22v-29q-63 24 -125 24q-144 0 -246 -96.5t-108 -243.5h470v-27h-470q4 -148 106.5 -246.5t247.5 -98.5q59 0 125 22v-29zM436 828h-31v116h31v-116z" />
    <glyph glyph-name="Eogonek.alt01" unicode="&#xe02c;" horiz-adv-x="601" 
d="M550 -193q-24 -13 -56 -13q-47 0 -75.5 26.5t-28.5 70.5q0 62 63 97q-5 0 -14 -0.5t-14 -0.5q-161 0 -272.5 109t-111.5 274t111.5 274t272.5 109q77 0 125 -22v-29q-63 24 -125 24q-144 0 -246 -96.5t-108 -243.5h470v-27h-470q4 -148 106.5 -246.5t247.5 -98.5
q59 0 125 22v-29q-17 -6 -55 -14q-43 -26 -58.5 -47t-15.5 -52t21.5 -51t51.5 -20q23 0 56 13v-29z" />
    <glyph glyph-name="Ecaron.alt01" unicode="&#xe02d;" horiz-adv-x="601" 
d="M550 7q-57 -20 -125 -20q-161 0 -272.5 109t-111.5 274t111.5 274t272.5 109q77 0 125 -22v-29q-63 24 -125 24q-144 0 -246 -96.5t-108 -243.5h470v-27h-470q4 -148 106.5 -246.5t247.5 -98.5q59 0 125 22v-29zM566 944l-195 -111l-196 110l26 15l170 -94l170 94z" />
    <glyph glyph-name="E.alt02" unicode="&#xe02e;" 
d="M809 370q0 -6 -1 -11h-737q4 -148 106.5 -246.5t247.5 -98.5q105 0 191 54t128 145h33q-45 -103 -139.5 -164.5t-212.5 -61.5q-161 0 -272.5 109t-111.5 274t111.5 274t272.5 109t272.5 -109t111.5 -274zM779 386q-6 147 -108 243.5t-246 96.5t-246 -96.5t-108 -243.5
h708z" />
    <glyph glyph-name="Eacute.alt02" unicode="&#xe02f;" 
d="M809 370q0 -6 -1 -11h-737q4 -148 106.5 -246.5t247.5 -98.5q105 0 191 54t128 145h33q-45 -103 -139.5 -164.5t-212.5 -61.5q-161 0 -272.5 109t-111.5 274t111.5 274t272.5 109t272.5 -109t111.5 -274zM779 386q-6 147 -108 243.5t-246 96.5t-246 -96.5t-108 -243.5
h708zM332 803l237 138l14 -23l-238 -138z" />
    <glyph glyph-name="Egrave.alt02" unicode="&#xe030;" 
d="M809 370q0 -6 -1 -11h-737q4 -148 106.5 -246.5t247.5 -98.5q105 0 191 54t128 145h33q-45 -103 -139.5 -164.5t-212.5 -61.5q-161 0 -272.5 109t-111.5 274t111.5 274t272.5 109t272.5 -109t111.5 -274zM779 386q-6 147 -108 243.5t-246 96.5t-246 -96.5t-108 -243.5
h708zM299 971l237 -138l-13 -23l-238 138z" />
    <glyph glyph-name="Ecircumflex.alt02" unicode="&#xe031;" 
d="M809 370q0 -6 -1 -11h-737q4 -148 106.5 -246.5t247.5 -98.5q105 0 191 54t128 145h33q-45 -103 -139.5 -164.5t-212.5 -61.5q-161 0 -272.5 109t-111.5 274t111.5 274t272.5 109t272.5 -109t111.5 -274zM779 386q-6 147 -108 243.5t-246 96.5t-246 -96.5t-108 -243.5
h708zM434 915l182 -117h-45l-151 95l-150 -95h-45l181 117h28z" />
    <glyph glyph-name="Edieresis.alt02" unicode="&#xe032;" 
d="M809 370q0 -6 -1 -11h-737q4 -148 106.5 -246.5t247.5 -98.5q105 0 191 54t128 145h33q-45 -103 -139.5 -164.5t-212.5 -61.5q-161 0 -272.5 109t-111.5 274t111.5 274t272.5 109t272.5 -109t111.5 -274zM779 386q-6 147 -108 243.5t-246 96.5t-246 -96.5t-108 -243.5
h708zM353 924v-116h-29v116h29zM519 924v-116h-29v116h29z" />
    <glyph glyph-name="Emacron.alt02" unicode="&#xe033;" 
d="M809 370q0 -6 -1 -11h-737q4 -148 106.5 -246.5t247.5 -98.5q105 0 191 54t128 145h33q-45 -103 -139.5 -164.5t-212.5 -61.5q-161 0 -272.5 109t-111.5 274t111.5 274t272.5 109t272.5 -109t111.5 -274zM779 386q-6 147 -108 243.5t-246 96.5t-246 -96.5t-108 -243.5
h708zM603 870h-356v30h356v-30z" />
    <glyph glyph-name="Ebreve.alt02" unicode="&#xe034;" 
d="M809 370q0 -6 -1 -11h-737q4 -148 106.5 -246.5t247.5 -98.5q105 0 191 54t128 145h33q-45 -103 -139.5 -164.5t-212.5 -61.5q-161 0 -272.5 109t-111.5 274t111.5 274t272.5 109t272.5 -109t111.5 -274zM779 386q-6 147 -108 243.5t-246 96.5t-246 -96.5t-108 -243.5
h708zM617 926q-10 -16 -18.5 -26t-29.5 -25.5t-57.5 -23t-86.5 -7.5q-145 0 -191 82h38q36 -53 153 -53q53 0 88 10.5t45 19.5t21 23h38z" />
    <glyph glyph-name="Edotaccent.alt02" unicode="&#xe035;" 
d="M809 370q0 -6 -1 -11h-737q4 -148 106.5 -246.5t247.5 -98.5q105 0 191 54t128 145h33q-45 -103 -139.5 -164.5t-212.5 -61.5q-161 0 -272.5 109t-111.5 274t111.5 274t272.5 109t272.5 -109t111.5 -274zM779 386q-6 147 -108 243.5t-246 96.5t-246 -96.5t-108 -243.5
h708zM441 828h-31v116h31v-116z" />
    <glyph glyph-name="Eogonek.alt02" unicode="&#xe036;" 
d="M555 -193q-24 -13 -56 -13q-47 0 -75.5 26.5t-28.5 70.5q0 60 64 98q-22 -2 -34 -2q-161 0 -272.5 109t-111.5 274t111.5 274t272.5 109t272.5 -109t111.5 -274q0 -6 -1 -11h-737q4 -148 106.5 -246.5t247.5 -98.5q105 0 191 54t128 145h33q-37 -86 -109.5 -143.5
t-165.5 -74.5q-43 -26 -59.5 -48t-16.5 -53t21.5 -51t51.5 -20q23 0 56 13v-29zM779 386q-6 147 -108 243.5t-246 96.5t-246 -96.5t-108 -243.5h708z" />
    <glyph glyph-name="Ecaron.alt02" unicode="&#xe037;" 
d="M809 370q0 -6 -1 -11h-737q4 -148 106.5 -246.5t247.5 -98.5q105 0 191 54t128 145h33q-45 -103 -139.5 -164.5t-212.5 -61.5q-161 0 -272.5 109t-111.5 274t111.5 274t272.5 109t272.5 -109t111.5 -274zM779 386q-6 147 -108 243.5t-246 96.5t-246 -96.5t-108 -243.5
h708zM621 944l-195 -111l-196 110l26 15l170 -94l170 94z" />
    <glyph glyph-name="K.alt01" unicode="&#xe038;" horiz-adv-x="522" 
d="M522 0h-36l-259 351l-120 -158v-193h-30v740h30v-500h2l377 500h36l-276 -365z" />
    <glyph glyph-name="Kcommaaccent.alt01" unicode="&#xe039;" horiz-adv-x="522" 
d="M522 0h-36l-259 351l-120 -158v-193h-30v740h30v-500h2l377 500h36l-276 -365zM302 -83l-50 -121h-32l50 121h32z" />
    <glyph glyph-name="K.alt02" unicode="&#xe03a;" horiz-adv-x="529" 
d="M529 0h-38l-297 380l284 360h36l-283 -359zM107 0h-30v740h30v-740z" />
    <glyph glyph-name="Kcommaaccent.alt02" unicode="&#xe03b;" horiz-adv-x="529" 
d="M529 0h-38l-297 380l284 360h36l-283 -359zM107 0h-30v740h30v-740zM306 -83l-50 -121h-32l50 121h32z" />
    <glyph glyph-name="M.alt01" unicode="&#xe03c;" horiz-adv-x="1190" 
d="M1113 0h-30v712h-2l-508 -712h-23v712h-2l-508 -712h-37l529 740h48v-676h2l483 676h48v-740z" />
    <glyph glyph-name="M.alt02" unicode="&#xe03d;" horiz-adv-x="1196" 
d="M1193 0h-37l-514 720h-2v-720h-23l-508 712h-2v-712h-30v740h48l483 -676h2v676h55z" />
    <glyph glyph-name="M.alt03" unicode="&#xe03e;" horiz-adv-x="1143" 
d="M1067 0h-30v489q0 108 -53 172.5t-169 64.5q-112 0 -170 -68t-58 -171v-487h-30v489q0 108 -53 172.5t-169 64.5q-112 0 -170 -68t-58 -171v-487h-30v740h30v-117h2q62 130 226 130q204 0 237 -175h2q48 175 241 175q128 0 190 -71.5t62 -193.5v-488z" />
    <glyph glyph-name="N.alt01" unicode="&#xe03f;" horiz-adv-x="678" 
d="M602 0h-30v489q0 106 -57.5 171.5t-174.5 65.5q-113 0 -173 -68.5t-60 -170.5v-487h-30v740h30v-119h2q63 132 231 132q129 0 195.5 -72t66.5 -193v-488z" />
    <glyph glyph-name="Ntilde.alt01" unicode="&#xe040;" horiz-adv-x="678" 
d="M602 0h-30v489q0 106 -57.5 171.5t-174.5 65.5q-113 0 -173 -68.5t-60 -170.5v-487h-30v740h30v-119h2q63 132 231 132q129 0 195.5 -72t66.5 -193v-488zM488 905l20 -20q-36 -40 -95 -40q-35 0 -90 18.5t-85 18.5q-49 0 -75 -32l-20 20q36 40 95 40q35 0 90 -18.5
t85 -18.5q49 0 75 32z" />
    <glyph glyph-name="Nacute.alt01" unicode="&#xe041;" horiz-adv-x="678" 
d="M602 0h-30v489q0 106 -57.5 171.5t-174.5 65.5q-113 0 -173 -68.5t-60 -170.5v-487h-30v740h30v-119h2q63 132 231 132q129 0 195.5 -72t66.5 -193v-488zM493 953l-238 -138l-13 23l237 138z" />
    <glyph glyph-name="Ncommaaccent.alt01" unicode="&#xe042;" horiz-adv-x="678" 
d="M602 0h-30v489q0 106 -57.5 171.5t-174.5 65.5q-113 0 -173 -68.5t-60 -170.5v-487h-30v740h30v-119h2q63 132 231 132q129 0 195.5 -72t66.5 -193v-488zM360 -83l-50 -121h-32l50 121h32z" />
    <glyph glyph-name="Ncaron.alt01" unicode="&#xe043;" horiz-adv-x="678" 
d="M602 0h-30v489q0 106 -57.5 171.5t-174.5 65.5q-113 0 -173 -68.5t-60 -170.5v-487h-30v740h30v-119h2q63 132 231 132q129 0 195.5 -72t66.5 -193v-488zM535 944l-195 -111l-196 110l26 15l170 -94l170 94z" />
    <glyph glyph-name="U.alt01" unicode="&#xe044;" horiz-adv-x="678" 
d="M601 0h-30v117h-2q-68 -130 -231 -130q-129 0 -195.5 72t-66.5 193v488h30v-489q0 -106 57.5 -171.5t174.5 -65.5q113 0 173 68.5t60 170.5v487h30v-740z" />
    <glyph glyph-name="Uacute.alt01" unicode="&#xe045;" horiz-adv-x="678" 
d="M601 0h-30v117h-2q-68 -130 -231 -130q-129 0 -195.5 72t-66.5 193v488h30v-489q0 -106 57.5 -171.5t174.5 -65.5q113 0 173 68.5t60 170.5v487h30v-740zM222 803l237 138l14 -23l-238 -138z" />
    <glyph glyph-name="Ugrave.alt01" unicode="&#xe046;" horiz-adv-x="678" 
d="M601 0h-30v117h-2q-68 -130 -231 -130q-129 0 -195.5 72t-66.5 193v488h30v-489q0 -106 57.5 -171.5t174.5 -65.5q113 0 173 68.5t60 170.5v487h30v-740zM198 941l237 -138l-13 -23l-238 138z" />
    <glyph glyph-name="Ucircumflex.alt01" unicode="&#xe047;" horiz-adv-x="678" 
d="M601 0h-30v117h-2q-68 -130 -231 -130q-129 0 -195.5 72t-66.5 193v488h30v-489q0 -106 57.5 -171.5t174.5 -65.5q113 0 173 68.5t60 170.5v487h30v-740zM345 915l182 -117h-45l-151 95l-150 -95h-45l181 117h28z" />
    <glyph glyph-name="Udieresis.alt01" unicode="&#xe048;" horiz-adv-x="678" 
d="M408 803h-29v116h29v-116zM288 803h-29v116h29v-116zM601 0h-30v117h-2q-68 -130 -231 -130q-129 0 -195.5 72t-66.5 193v488h30v-489q0 -106 57.5 -171.5t174.5 -65.5q113 0 173 68.5t60 170.5v487h30v-740z" />
    <glyph glyph-name="Utilde.alt01" unicode="&#xe049;" horiz-adv-x="678" 
d="M601 0h-30v117h-2q-68 -130 -231 -130q-129 0 -195.5 72t-66.5 193v488h30v-489q0 -106 57.5 -171.5t174.5 -65.5q113 0 173 68.5t60 170.5v487h30v-740zM520 875q-48 -32 -89 -32q-45 0 -91 25q-51 28 -84 28q-44 0 -78 -27l-20 20q43 35 98 35q37 0 85 -24
q54 -27 89 -27q31 0 70 23z" />
    <glyph glyph-name="Umacron.alt01" unicode="&#xe04a;" horiz-adv-x="678" 
d="M601 0h-30v117h-2q-68 -130 -231 -130q-129 0 -195.5 72t-66.5 193v488h30v-489q0 -106 57.5 -171.5t174.5 -65.5q113 0 173 68.5t60 170.5v487h30v-740zM517 870h-356v30h356v-30z" />
    <glyph glyph-name="Ubreve.alt01" unicode="&#xe04b;" horiz-adv-x="678" 
d="M601 0h-30v117h-2q-68 -130 -231 -130q-129 0 -195.5 72t-66.5 193v488h30v-489q0 -106 57.5 -171.5t174.5 -65.5q113 0 173 68.5t60 170.5v487h30v-740zM531 926q-10 -16 -18.5 -26t-29.5 -25.5t-57.5 -23t-86.5 -7.5q-145 0 -191 82h38q36 -53 153 -53q53 0 88 10.5
t45 19.5t21 23h38z" />
    <glyph glyph-name="Uhungarumlaut.alt01" unicode="&#xe04c;" horiz-adv-x="678" 
d="M601 0h-30v117h-2q-68 -130 -231 -130q-129 0 -195.5 72t-66.5 193v488h30v-489q0 -106 57.5 -171.5t174.5 -65.5q113 0 173 68.5t60 170.5v487h30v-740zM599 976l-226 -161l-16 23l226 160zM408 976l-226 -161l-16 23l226 160z" />
    <glyph glyph-name="Uring.alt01" unicode="&#xe04d;" horiz-adv-x="678" 
d="M601 0h-30v117h-2q-68 -130 -231 -130q-129 0 -195.5 72t-66.5 193v488h30v-489q0 -106 57.5 -171.5t174.5 -65.5q113 0 173 68.5t60 170.5v487h30v-740zM431 896q0 -38 -27 -64.5t-65 -26.5q-37 0 -64 26.5t-27 64.5t27 64.5t64 26.5q38 0 65 -26.5t27 -64.5zM403 897
q0 26 -18.5 45t-45.5 19q-26 0 -44.5 -19t-18.5 -45t18.5 -44.5t44.5 -18.5q27 0 45.5 18.5t18.5 44.5z" />
    <glyph glyph-name="Uogonek.alt01" unicode="&#xe04e;" horiz-adv-x="678" 
d="M644 -193q-24 -13 -56 -13q-47 0 -75.5 26.5t-28.5 70.5q0 70 88 109h-1v117h-2q-68 -130 -231 -130q-129 0 -195.5 72t-66.5 193v488h30v-489q0 -106 57.5 -171.5t174.5 -65.5q113 0 173 68.5t60 170.5v487h30v-740q-49 -28 -67.5 -51t-18.5 -55q0 -31 21.5 -51
t51.5 -20q23 0 56 13v-29z" />
    <glyph glyph-name="V.alt02" unicode="&#xe04f;" horiz-adv-x="651" 
d="M648 740l-520 -740h-51v740h30v-715h2l503 715h36z" />
    <glyph glyph-name="V.alt01" unicode="&#xe050;" horiz-adv-x="651" 
d="M574 0h-51l-520 740h36l503 -715h2v715h30v-740z" />
    <glyph glyph-name="W.alt02" unicode="&#xe051;" horiz-adv-x="1190" 
d="M1187 740l-517 -740h-55v721h-2l-484 -721h-52v740h30v-718h2l482 718h54v-720h2l503 720h37z" />
    <glyph glyph-name="Wcircumflex.alt02" unicode="&#xe052;" horiz-adv-x="1190" 
d="M1187 740l-517 -740h-55v721h-2l-484 -721h-52v740h30v-718h2l482 718h54v-720h2l503 720h37zM811 848l-26 -15l-170 94l-170 -94l-25 15l195 110z" />
    <glyph glyph-name="Wgrave.alt02" unicode="&#xe053;" horiz-adv-x="1190" 
d="M1187 740l-517 -740h-55v721h-2l-484 -721h-52v740h30v-718h2l482 718h54v-720h2l503 720h37zM713 838l-13 -23l-238 138l14 23z" />
    <glyph glyph-name="Wacute.alt02" unicode="&#xe054;" horiz-adv-x="1190" 
d="M1187 740l-517 -740h-55v721h-2l-484 -721h-52v740h30v-718h2l482 718h54v-720h2l503 720h37zM769 953l-238 -138l-13 23l237 138z" />
    <glyph glyph-name="Wdieresis.alt02" unicode="&#xe055;" horiz-adv-x="1190" 
d="M1187 740l-517 -740h-55v721h-2l-484 -721h-52v740h30v-718h2l482 718h54v-720h2l503 720h37zM690 828h-29v116h29v-116zM570 828h-29v116h29v-116z" />
    <glyph glyph-name="W.alt01" unicode="&#xe056;" horiz-adv-x="1190" 
d="M1113 0h-52l-484 721h-2v-721h-55l-517 740h37l503 -720h2v720h54l482 -718h2v718h30v-740z" />
    <glyph glyph-name="Wcircumflex.alt01" unicode="&#xe057;" horiz-adv-x="1190" 
d="M1113 0h-52l-484 721h-2v-721h-55l-517 740h37l503 -720h2v720h54l482 -718h2v718h30v-740zM771 848l-26 -15l-170 94l-170 -94l-25 15l195 110z" />
    <glyph glyph-name="Wgrave.alt01" unicode="&#xe058;" horiz-adv-x="1190" 
d="M1113 0h-52l-484 721h-2v-721h-55l-517 740h37l503 -720h2v720h54l482 -718h2v718h30v-740zM663 838l-13 -23l-238 138l14 23z" />
    <glyph glyph-name="Wacute.alt01" unicode="&#xe059;" horiz-adv-x="1190" 
d="M1113 0h-52l-484 721h-2v-721h-55l-517 740h37l503 -720h2v720h54l482 -718h2v718h30v-740zM729 953l-238 -138l-13 23l237 138z" />
    <glyph glyph-name="Wdieresis.alt01" unicode="&#xe05a;" horiz-adv-x="1190" 
d="M1113 0h-52l-484 721h-2v-721h-55l-517 740h37l503 -720h2v720h54l482 -718h2v718h30v-740zM650 828h-29v116h29v-116zM530 828h-29v116h29v-116z" />
    <glyph glyph-name="c.alt01" unicode="&#xe05b;" horiz-adv-x="522" 
d="M461 22q-65 -35 -141 -35q-118 0 -198.5 78t-80.5 200q0 118 79.5 198t199.5 80q81 0 141 -36v-32q-64 42 -140 42q-104 0 -178 -70t-74 -182q0 -110 73.5 -181t177.5 -71q35 0 66.5 8.5t41.5 14t33 18.5v-32z" />
    <glyph glyph-name="ccedilla.alt01" unicode="&#xe05c;" horiz-adv-x="522" 
d="M461 22q-65 -35 -141 -35h-10l-20 -43l2 -1q6 3 13 3q33 0 52.5 -21.5t19.5 -49.5q0 -30 -19.5 -53t-53.5 -23q-63 0 -74 62h27q9 -35 47 -35q18 0 32 13t14 36q0 20 -13.5 32.5t-32.5 12.5q-26 0 -41 -25l-22 5l41 89q-104 13 -172.5 88.5t-68.5 187.5q0 118 79.5 198
t199.5 80q81 0 141 -36v-32q-64 42 -140 42q-104 0 -178 -70t-74 -182q0 -110 73.5 -181t177.5 -71q35 0 66.5 8.5t41.5 14t33 18.5v-32z" />
    <glyph glyph-name="cacute.alt01" unicode="&#xe05d;" horiz-adv-x="522" 
d="M461 22q-65 -35 -141 -35q-118 0 -198.5 78t-80.5 200q0 118 79.5 198t199.5 80q81 0 141 -36v-32q-64 42 -140 42q-104 0 -178 -70t-74 -182q0 -110 73.5 -181t177.5 -71q35 0 66.5 8.5t41.5 14t33 18.5v-32zM475 743l-238 -138l-13 23l237 138z" />
    <glyph glyph-name="ccircumflex.alt01" unicode="&#xe05e;" horiz-adv-x="522" 
d="M461 22q-65 -35 -141 -35q-118 0 -198.5 78t-80.5 200q0 118 79.5 198t199.5 80q81 0 141 -36v-32q-64 42 -140 42q-104 0 -178 -70t-74 -182q0 -110 73.5 -181t177.5 -71q35 0 66.5 8.5t41.5 14t33 18.5v-32zM507 638l-26 -15l-170 94l-170 -94l-25 15l195 110z" />
    <glyph glyph-name="cdotaccent.alt01" unicode="&#xe05f;" horiz-adv-x="522" 
d="M461 22q-65 -35 -141 -35q-118 0 -198.5 78t-80.5 200q0 118 79.5 198t199.5 80q81 0 141 -36v-32q-64 42 -140 42q-104 0 -178 -70t-74 -182q0 -110 73.5 -181t177.5 -71q35 0 66.5 8.5t41.5 14t33 18.5v-32zM327 618h-31v116h31v-116z" />
    <glyph glyph-name="ccaron.alt01" unicode="&#xe060;" horiz-adv-x="522" 
d="M461 22q-65 -35 -141 -35q-118 0 -198.5 78t-80.5 200q0 118 79.5 198t199.5 80q81 0 141 -36v-32q-64 42 -140 42q-104 0 -178 -70t-74 -182q0 -110 73.5 -181t177.5 -71q35 0 66.5 8.5t41.5 14t33 18.5v-32zM487 734l-195 -111l-196 110l26 15l170 -94l170 94z" />
    <glyph glyph-name="e.alt01" unicode="&#xe061;" horiz-adv-x="602" 
d="M551 425l-406 -341q36 -36 86 -53.5t90 -17.5q105 0 180 73v-37q-78 -62 -181 -62q-120 0 -199.5 79t-79.5 198t80.5 199t199.5 80q77 0 136 -34t94 -84zM512 428q-26 34 -76.5 61.5t-113.5 27.5q-101 0 -177 -69.5t-76 -180.5q0 -97 57 -163z" />
    <glyph glyph-name="eacute.alt01" unicode="&#xe062;" horiz-adv-x="602" 
d="M551 425l-406 -341q36 -36 86 -53.5t90 -17.5q105 0 180 73v-37q-78 -62 -181 -62q-120 0 -199.5 79t-79.5 198t80.5 199t199.5 80q77 0 136 -34t94 -84zM512 428q-26 34 -76.5 61.5t-113.5 27.5q-101 0 -177 -69.5t-76 -180.5q0 -97 57 -163zM209 613l237 138l14 -23
l-238 -138z" />
    <glyph glyph-name="egrave.alt01" unicode="&#xe063;" horiz-adv-x="602" 
d="M551 425l-406 -341q36 -36 86 -53.5t90 -17.5q105 0 180 73v-37q-78 -62 -181 -62q-120 0 -199.5 79t-79.5 198t80.5 199t199.5 80q77 0 136 -34t94 -84zM512 428q-26 34 -76.5 61.5t-113.5 27.5q-101 0 -177 -69.5t-76 -180.5q0 -97 57 -163zM175 751l237 -138l-13 -23
l-238 138z" />
    <glyph glyph-name="ecircumflex.alt01" unicode="&#xe064;" horiz-adv-x="602" 
d="M551 425l-406 -341q36 -36 86 -53.5t90 -17.5q105 0 180 73v-37q-78 -62 -181 -62q-120 0 -199.5 79t-79.5 198t80.5 199t199.5 80q77 0 136 -34t94 -84zM512 428q-26 34 -76.5 61.5t-113.5 27.5q-101 0 -177 -69.5t-76 -180.5q0 -97 57 -163zM318 725l182 -117h-45
l-151 95l-150 -95h-45l181 117h28z" />
    <glyph glyph-name="edieresis.alt01" unicode="&#xe065;" horiz-adv-x="602" 
d="M551 425l-406 -341q36 -36 86 -53.5t90 -17.5q105 0 180 73v-37q-78 -62 -181 -62q-120 0 -199.5 79t-79.5 198t80.5 199t199.5 80q77 0 136 -34t94 -84zM512 428q-26 34 -76.5 61.5t-113.5 27.5q-101 0 -177 -69.5t-76 -180.5q0 -97 57 -163zM242 724v-116h-29v116h29z
M408 724v-116h-29v116h29z" />
    <glyph glyph-name="emacron.alt01" unicode="&#xe066;" horiz-adv-x="602" 
d="M551 425l-406 -341q36 -36 86 -53.5t90 -17.5q105 0 180 73v-37q-78 -62 -181 -62q-120 0 -199.5 79t-79.5 198t80.5 199t199.5 80q77 0 136 -34t94 -84zM512 428q-26 34 -76.5 61.5t-113.5 27.5q-101 0 -177 -69.5t-76 -180.5q0 -97 57 -163zM499 660h-356v30h356v-30z
" />
    <glyph glyph-name="ebreve.alt01" unicode="&#xe067;" horiz-adv-x="602" 
d="M551 425l-406 -341q36 -36 86 -53.5t90 -17.5q105 0 180 73v-37q-78 -62 -181 -62q-120 0 -199.5 79t-79.5 198t80.5 199t199.5 80q77 0 136 -34t94 -84zM512 428q-26 34 -76.5 61.5t-113.5 27.5q-101 0 -177 -69.5t-76 -180.5q0 -97 57 -163zM513 716q-10 -16 -18.5 -26
t-29.5 -25.5t-57.5 -23t-86.5 -7.5q-145 0 -191 82h38q36 -53 153 -53q53 0 88 10.5t45 19.5t21 23h38z" />
    <glyph glyph-name="edotaccent.alt01" unicode="&#xe068;" horiz-adv-x="602" 
d="M551 425l-406 -341q36 -36 86 -53.5t90 -17.5q105 0 180 73v-37q-78 -62 -181 -62q-120 0 -199.5 79t-79.5 198t80.5 199t199.5 80q77 0 136 -34t94 -84zM512 428q-26 34 -76.5 61.5t-113.5 27.5q-101 0 -177 -69.5t-76 -180.5q0 -97 57 -163zM331 618h-31v116h31v-116z
" />
    <glyph glyph-name="eogonek.alt01" unicode="&#xe069;" horiz-adv-x="602" 
d="M551 425l-406 -341q36 -36 86 -53.5t90 -17.5q105 0 180 73v-37q-57 -44 -115 -55q-42 -25 -58 -47t-16 -53t21.5 -51t51.5 -20q23 0 56 13v-29q-24 -13 -56 -13q-47 0 -75.5 26.5t-28.5 70.5q0 60 63 97q-8 -1 -24 -1q-120 0 -199.5 79t-79.5 198t80.5 199t199.5 80
q77 0 136 -34t94 -84zM512 428q-26 34 -76.5 61.5t-113.5 27.5q-101 0 -177 -69.5t-76 -180.5q0 -97 57 -163z" />
    <glyph glyph-name="ecaron.alt01" unicode="&#xe06a;" horiz-adv-x="602" 
d="M551 425l-406 -341q36 -36 86 -53.5t90 -17.5q105 0 180 73v-37q-78 -62 -181 -62q-120 0 -199.5 79t-79.5 198t80.5 199t199.5 80q77 0 136 -34t94 -84zM512 428q-26 34 -76.5 61.5t-113.5 27.5q-101 0 -177 -69.5t-76 -180.5q0 -97 57 -163zM517 734l-195 -111
l-196 110l26 15l170 -94l170 94z" />
    <glyph glyph-name="f.alt01" unicode="&#xe06b;" horiz-adv-x="200" 
d="M260 726q-19 -2 -29 -3t-34 -9.5t-37.5 -22t-25.5 -41t-12 -65.5v-585h-28v504h-87v26h87v52q0 163 166 171v-27z" />
    <glyph glyph-name="f.alt02" unicode="&#xe06c;" horiz-adv-x="247" 
d="M244 504h-138v-504h-28v582q0 163 166 171v-27q-19 -2 -29 -3t-34 -9.5t-37.5 -22t-25.5 -41t-12 -65.5v-55h138v-26z" />
    <glyph glyph-name="k.alt01" unicode="&#xe06d;" horiz-adv-x="467" 
d="M451 0h-37l-194 249l-114 -152v-97h-28v740h28v-595h2l289 385h37l-196 -259z" />
    <glyph glyph-name="kcommaaccent.alt01" unicode="&#xe06e;" horiz-adv-x="467" 
d="M451 0h-37l-194 249l-114 -152v-97h-28v740h28v-595h2l289 385h37l-196 -259zM275 -83l-50 -121h-32l50 121h32z" />
    <glyph glyph-name="k.alt02" unicode="&#xe06f;" horiz-adv-x="442" 
d="M108 257l257 273h41l-260 -270l284 -260h-43zM106 740v-740h-28v740h28z" />
    <glyph glyph-name="kcommaaccent.alt02" unicode="&#xe070;" horiz-adv-x="442" 
d="M108 257l257 273h41l-260 -270l284 -260h-43zM106 740v-740h-28v740h28zM262 -83l-50 -121h-32l50 121h32z" />
    <glyph glyph-name="t.alt01" unicode="&#xe071;" horiz-adv-x="230" 
d="M152 0h-28v504h-117v26h117v210h28v-740z" />
    <glyph glyph-name="tcaron.alt01" unicode="&#xe072;" horiz-adv-x="272" 
d="M152 0h-28v504h-117v26h117v210h28v-740zM292 740l-50 -121h-32l50 121h32z" />
    <glyph glyph-name="tcedilla.alt01" unicode="&#xe073;" horiz-adv-x="230" 
d="M152 0h-28v504h-117v26h117v210h28v-740zM156 -83l-50 -121h-32l50 121h32z" />
    <glyph glyph-name="tcommaaccent.alt01" unicode="&#xe074;" horiz-adv-x="230" 
d="M152 0h-28v504h-117v26h117v210h28v-740zM156 -83l-50 -121h-32l50 121h32z" />
    <glyph glyph-name="t.alt02" unicode="&#xe075;" horiz-adv-x="250" 
d="M242 504h-136v-504h-28v740h28v-210h136v-26z" />
    <glyph glyph-name="tcaron.alt02" unicode="&#xe076;" horiz-adv-x="272" 
d="M242 504h-136v-504h-28v740h28v-210h136v-26zM292 740l-50 -121h-32l50 121h32z" />
    <glyph glyph-name="tcedilla.alt02" unicode="&#xe077;" horiz-adv-x="250" 
d="M242 504h-136v-504h-28v740h28v-210h136v-26zM118 -83l-50 -121h-32l50 121h32z" />
    <glyph glyph-name="tcommaaccent.alt02" unicode="&#xe078;" horiz-adv-x="250" 
d="M242 504h-136v-504h-28v740h28v-210h136v-26zM120 -83l-50 -121h-32l50 121h32z" />
    <glyph glyph-name="v.alt02" unicode="&#xe079;" horiz-adv-x="502" 
d="M497 530l-373 -530h-46v530h28v-504h2l355 504h34z" />
    <glyph glyph-name="v.alt01" unicode="&#xe07a;" horiz-adv-x="502" 
d="M424 0h-46l-373 530h34l355 -504h2v504h28v-530z" />
    <glyph glyph-name="w.alt02" unicode="&#xe07b;" horiz-adv-x="883" 
d="M878 530l-363 -530h-44v512h-3l-347 -512h-43v530h28v-500h2l339 500h52v-501h2l344 501h33z" />
    <glyph glyph-name="wcircumflex.alt02" unicode="&#xe07c;" horiz-adv-x="883" 
d="M878 530l-363 -530h-44v512h-3l-347 -512h-43v530h28v-500h2l339 500h52v-501h2l344 501h33zM667 638l-26 -15l-170 94l-170 -94l-25 15l195 110z" />
    <glyph glyph-name="wgrave.alt02" unicode="&#xe07d;" horiz-adv-x="883" 
d="M878 530l-363 -530h-44v512h-3l-347 -512h-43v530h28v-500h2l339 500h52v-501h2l344 501h33zM559 628l-13 -23l-238 138l14 23z" />
    <glyph glyph-name="wacute.alt02" unicode="&#xe07e;" horiz-adv-x="883" 
d="M878 530l-363 -530h-44v512h-3l-347 -512h-43v530h28v-500h2l339 500h52v-501h2l344 501h33zM635 743l-238 -138l-13 23l237 138z" />
    <glyph glyph-name="wdieresis.alt02" unicode="&#xe07f;" horiz-adv-x="883" 
d="M878 530l-363 -530h-44v512h-3l-347 -512h-43v530h28v-500h2l339 500h52v-501h2l344 501h33zM546 618h-29v116h29v-116zM426 618h-29v116h29v-116z" />
    <glyph glyph-name="w.alt01" unicode="&#xe080;" horiz-adv-x="883" 
d="M805 0h-43l-347 512h-3v-512h-44l-363 530h33l344 -501h2v501h52l339 -500h2v500h28v-530z" />
    <glyph glyph-name="wcircumflex.alt01" unicode="&#xe081;" horiz-adv-x="883" 
d="M805 0h-43l-347 512h-3v-512h-44l-363 530h33l344 -501h2v501h52l339 -500h2v500h28v-530zM607 638l-26 -15l-170 94l-170 -94l-25 15l195 110z" />
    <glyph glyph-name="wgrave.alt01" unicode="&#xe082;" horiz-adv-x="883" 
d="M805 0h-43l-347 512h-3v-512h-44l-363 530h33l344 -501h2v501h52l339 -500h2v500h28v-530zM489 628l-13 -23l-238 138l14 23z" />
    <glyph glyph-name="wacute.alt01" unicode="&#xe083;" horiz-adv-x="883" 
d="M805 0h-43l-347 512h-3v-512h-44l-363 530h33l344 -501h2v501h52l339 -500h2v500h28v-530zM575 743l-238 -138l-13 23l237 138z" />
    <glyph glyph-name="wdieresis.alt01" unicode="&#xe084;" horiz-adv-x="883" 
d="M805 0h-43l-347 512h-3v-512h-44l-363 530h33l344 -501h2v501h52l339 -500h2v500h28v-530zM486 618h-29v116h29v-116zM366 618h-29v116h29v-116z" />
    <glyph glyph-name="y.alt01" unicode="&#xe085;" horiz-adv-x="521" 
d="M515 530l-512 -730h-34l109 155v575h28v-532h2l373 532h34z" />
    <glyph glyph-name="yacute.alt01" unicode="&#xe086;" horiz-adv-x="521" 
d="M515 530l-512 -730h-34l109 155v575h28v-532h2l373 532h34zM221 613l237 138l14 -23l-238 -138z" />
    <glyph glyph-name="ydieresis.alt01" unicode="&#xe087;" horiz-adv-x="521" 
d="M515 530l-512 -730h-34l109 155v575h28v-532h2l373 532h34zM229 724v-116h-29v116h29zM395 724v-116h-29v116h29z" />
    <glyph glyph-name="ycircumflex.alt01" unicode="&#xe088;" horiz-adv-x="521" 
d="M515 530l-512 -730h-34l109 155v575h28v-532h2l373 532h34zM486 638l-26 -15l-170 94l-170 -94l-25 15l195 110z" />
    <glyph glyph-name="ygrave.alt01" unicode="&#xe089;" horiz-adv-x="521" 
d="M515 530l-512 -730h-34l109 155v575h28v-532h2l373 532h34zM368 628l-13 -23l-238 138l14 23z" />
    <glyph glyph-name="C_A" unicode="&#xe08a;" horiz-adv-x="1047" 
d="M970 0h-30v301h-305l-204 -287q112 1 199 58t133 141h34q-51 -98 -148 -162t-224 -64q-161 0 -272.5 109t-111.5 274t111.5 274t272.5 109t280 -105l-20 -21q-119 99 -260 99q-148 0 -251 -102t-103 -254q0 -144 93 -244t231 -111l515 725h60v-740zM940 328v400h-2
l-284 -400h286z" />
    <glyph glyph-name="C_Aacute" unicode="&#xe08b;" horiz-adv-x="1047" 
d="M970 0h-30v301h-305l-204 -287q112 1 199 58t133 141h34q-51 -98 -148 -162t-224 -64q-161 0 -272.5 109t-111.5 274t111.5 274t272.5 109t280 -105l-20 -21q-119 99 -260 99q-148 0 -251 -102t-103 -254q0 -144 93 -244t231 -111l515 725h60v-740zM940 328v400h-2
l-284 -400h286zM1087 953l-238 -138l-13 23l237 138z" />
    <glyph glyph-name="C_Agrave" unicode="&#xe08c;" horiz-adv-x="1047" 
d="M970 0h-30v301h-305l-204 -287q112 1 199 58t133 141h34q-51 -98 -148 -162t-224 -64q-161 0 -272.5 109t-111.5 274t111.5 274t272.5 109t280 -105l-20 -21q-119 99 -260 99q-148 0 -251 -102t-103 -254q0 -144 93 -244t231 -111l515 725h60v-740zM940 328v400h-2
l-284 -400h286zM1031 838l-13 -23l-238 138l14 23z" />
    <glyph glyph-name="C_Acircumflex" unicode="&#xe08d;" horiz-adv-x="1047" 
d="M970 0h-30v301h-305l-204 -287q112 1 199 58t133 141h34q-51 -98 -148 -162t-224 -64q-161 0 -272.5 109t-111.5 274t111.5 274t272.5 109t280 -105l-20 -21q-119 99 -260 99q-148 0 -251 -102t-103 -254q0 -144 93 -244t231 -111l515 725h60v-740zM940 328v400h-2
l-284 -400h286zM1139 848l-26 -15l-170 94l-170 -94l-25 15l195 110z" />
    <glyph glyph-name="C_Adieresis" unicode="&#xe08e;" horiz-adv-x="1047" 
d="M970 0h-30v301h-305l-204 -287q112 1 199 58t133 141h34q-51 -98 -148 -162t-224 -64q-161 0 -272.5 109t-111.5 274t111.5 274t272.5 109t280 -105l-20 -21q-119 99 -260 99q-148 0 -251 -102t-103 -254q0 -144 93 -244t231 -111l515 725h60v-740zM940 328v400h-2
l-284 -400h286zM1018 828h-29v116h29v-116zM898 828h-29v116h29v-116z" />
    <glyph glyph-name="C_Atilde" unicode="&#xe08f;" horiz-adv-x="1047" 
d="M970 0h-30v301h-305l-204 -287q112 1 199 58t133 141h34q-51 -98 -148 -162t-224 -64q-161 0 -272.5 109t-111.5 274t111.5 274t272.5 109t280 -105l-20 -21q-119 99 -260 99q-148 0 -251 -102t-103 -254q0 -144 93 -244t231 -111l515 725h60v-740zM940 328v400h-2
l-284 -400h286zM1124 875q-48 -32 -89 -32q-45 0 -91 25q-51 28 -84 28q-44 0 -78 -27l-20 20q43 35 98 35q37 0 85 -24q54 -27 89 -27q31 0 70 23z" />
    <glyph glyph-name="C_Amacron" unicode="&#xe090;" horiz-adv-x="1047" 
d="M970 0h-30v301h-305l-204 -287q112 1 199 58t133 141h34q-51 -98 -148 -162t-224 -64q-161 0 -272.5 109t-111.5 274t111.5 274t272.5 109t280 -105l-20 -21q-119 99 -260 99q-148 0 -251 -102t-103 -254q0 -144 93 -244t231 -111l515 725h60v-740zM940 328v400h-2
l-284 -400h286zM1121 870h-356v30h356v-30z" />
    <glyph glyph-name="C_Abreve" unicode="&#xe091;" horiz-adv-x="1047" 
d="M970 0h-30v301h-305l-204 -287q112 1 199 58t133 141h34q-51 -98 -148 -162t-224 -64q-161 0 -272.5 109t-111.5 274t111.5 274t272.5 109t280 -105l-20 -21q-119 99 -260 99q-148 0 -251 -102t-103 -254q0 -144 93 -244t231 -111l515 725h60v-740zM940 328v400h-2
l-284 -400h286zM1135 926q-10 -16 -18.5 -26t-29.5 -25.5t-57.5 -23t-86.5 -7.5q-145 0 -191 82h38q36 -53 153 -53q53 0 88 10.5t45 19.5t21 23h38z" />
    <glyph glyph-name="C_Aogonek" unicode="&#xe092;" horiz-adv-x="1047" 
d="M1013 -193q-24 -13 -56 -13q-47 0 -75.5 26.5t-28.5 70.5q0 70 88 109h-1v301h-305l-204 -287q112 1 199 58t133 141h34q-51 -98 -148 -162t-224 -64q-161 0 -272.5 109t-111.5 274t111.5 274t272.5 109t280 -105l-20 -21q-119 99 -260 99q-148 0 -251 -102t-103 -254
q0 -144 93 -244t231 -111l515 725h60v-740q-47 -25 -66.5 -49.5t-19.5 -56.5q0 -31 21.5 -51t51.5 -20q23 0 56 13v-29zM940 328v400h-2l-284 -400h286z" />
    <glyph glyph-name="Ccedilla_A" unicode="&#xe093;" horiz-adv-x="1047" 
d="M482 -125q0 -30 -19.5 -53t-53.5 -23q-63 0 -74 62h27q9 -35 47 -35q18 0 32 13t14 36q0 20 -13.5 32.5t-32.5 12.5q-26 0 -41 -25l-22 5l41 89q-148 13 -247 119.5t-99 261.5q0 165 111.5 274t272.5 109t280 -105l-20 -21q-119 99 -260 99q-148 0 -251 -102t-103 -254
q0 -144 93 -244t231 -111l515 725h60v-740h-30v301h-305l-204 -287q112 1 199 58t133 141h34q-51 -98 -148 -162t-224 -64q-2 0 -5.5 0.5t-4.5 0.5l-20 -44l2 -1q6 3 13 3q33 0 52.5 -21.5t19.5 -49.5zM940 328v400h-2l-284 -400h286z" />
    <glyph glyph-name="Ccedilla_Aacute" unicode="&#xe094;" horiz-adv-x="1047" 
d="M1107 953l-238 -138l-13 23l237 138zM482 -125q0 -30 -19.5 -53t-53.5 -23q-63 0 -74 62h27q9 -35 47 -35q18 0 32 13t14 36q0 20 -13.5 32.5t-32.5 12.5q-26 0 -41 -25l-22 5l41 89q-148 13 -247 119.5t-99 261.5q0 165 111.5 274t272.5 109t280 -105l-20 -21
q-119 99 -260 99q-148 0 -251 -102t-103 -254q0 -144 93 -244t231 -111l515 725h60v-740h-30v301h-305l-204 -287q112 1 199 58t133 141h34q-51 -98 -148 -162t-224 -64q-2 0 -5.5 0.5t-4.5 0.5l-20 -44l2 -1q6 3 13 3q33 0 52.5 -21.5t19.5 -49.5zM940 328v400h-2
l-284 -400h286z" />
    <glyph glyph-name="Cacute_A" unicode="&#xe095;" horiz-adv-x="1047" 
d="M970 0h-30v301h-305l-204 -287q112 1 199 58t133 141h34q-51 -98 -148 -162t-224 -64q-161 0 -272.5 109t-111.5 274t111.5 274t272.5 109t280 -105l-20 -21q-119 99 -260 99q-148 0 -251 -102t-103 -254q0 -144 93 -244t231 -111l515 725h60v-740zM940 328v400h-2
l-284 -400h286zM577 953l-238 -138l-13 23l237 138z" />
    <glyph glyph-name="Cacute_Aogonek" unicode="&#xe096;" horiz-adv-x="1047" 
d="M1013 -193q-24 -13 -56 -13q-47 0 -75.5 26.5t-28.5 70.5q0 70 88 109h-1v301h-305l-204 -287q112 1 199 58t133 141h34q-51 -98 -148 -162t-224 -64q-161 0 -272.5 109t-111.5 274t111.5 274t272.5 109t280 -105l-20 -21q-119 99 -260 99q-148 0 -251 -102t-103 -254
q0 -144 93 -244t231 -111l515 725h60v-740q-47 -28 -66.5 -51t-19.5 -55q0 -31 21.5 -51t51.5 -20q23 0 56 13v-29zM940 328v400h-2l-284 -400h286zM577 953l-238 -138l-13 23l237 138z" />
    <glyph glyph-name="Ccircumflex_A" unicode="&#xe097;" horiz-adv-x="1047" 
d="M970 0h-30v301h-305l-204 -287q112 1 199 58t133 141h34q-51 -98 -148 -162t-224 -64q-161 0 -272.5 109t-111.5 274t111.5 274t272.5 109t280 -105l-20 -21q-119 99 -260 99q-148 0 -251 -102t-103 -254q0 -144 93 -244t231 -111l515 725h60v-740zM940 328v400h-2
l-284 -400h286zM619 848l-26 -15l-170 94l-170 -94l-25 15l195 110z" />
    <glyph glyph-name="Ccircumflex_Amacron" unicode="&#xe098;" horiz-adv-x="1047" 
d="M970 0h-30v301h-305l-204 -287q112 1 199 58t133 141h34q-51 -98 -148 -162t-224 -64q-161 0 -272.5 109t-111.5 274t111.5 274t272.5 109t280 -105l-20 -21q-119 99 -260 99q-148 0 -251 -102t-103 -254q0 -144 93 -244t231 -111l515 725h60v-740zM940 328v400h-2
l-284 -400h286zM619 848l-26 -15l-170 94l-170 -94l-25 15l195 110zM1121 870h-356v30h356v-30z" />
    <glyph glyph-name="Ccircumflex_Abreve" unicode="&#xe099;" horiz-adv-x="1047" 
d="M970 0h-30v301h-305l-204 -287q112 1 199 58t133 141h34q-51 -98 -148 -162t-224 -64q-161 0 -272.5 109t-111.5 274t111.5 274t272.5 109t280 -105l-20 -21q-119 99 -260 99q-148 0 -251 -102t-103 -254q0 -144 93 -244t231 -111l515 725h60v-740zM940 328v400h-2
l-284 -400h286zM619 848l-26 -15l-170 94l-170 -94l-25 15l195 110zM1135 926q-10 -16 -18.5 -26t-29.5 -25.5t-57.5 -23t-86.5 -7.5q-145 0 -191 82h38q36 -53 153 -53q53 0 88 10.5t45 19.5t21 23h38z" />
    <glyph glyph-name="Cdotaccent_A" unicode="&#xe09a;" horiz-adv-x="1047" 
d="M970 0h-30v301h-305l-204 -287q112 1 199 58t133 141h34q-51 -98 -148 -162t-224 -64q-161 0 -272.5 109t-111.5 274t111.5 274t272.5 109t280 -105l-20 -21q-119 99 -260 99q-148 0 -251 -102t-103 -254q0 -144 93 -244t231 -111l515 725h60v-740zM940 328v400h-2
l-284 -400h286zM439 828h-31v116h31v-116z" />
    <glyph glyph-name="Cdotaccent_Agrave" unicode="&#xe09b;" horiz-adv-x="1047" 
d="M970 0h-30v301h-305l-204 -287q112 1 199 58t133 141h34q-51 -98 -148 -162t-224 -64q-161 0 -272.5 109t-111.5 274t111.5 274t272.5 109t280 -105l-20 -21q-119 99 -260 99q-148 0 -251 -102t-103 -254q0 -144 93 -244t231 -111l515 725h60v-740zM940 328v400h-2
l-284 -400h286zM439 828h-31v116h31v-116zM1031 838l-13 -23l-238 138l14 23z" />
    <glyph glyph-name="Ccaron_A" unicode="&#xe09c;" horiz-adv-x="1047" 
d="M970 0h-30v301h-305l-204 -287q112 1 199 58t133 141h34q-51 -98 -148 -162t-224 -64q-161 0 -272.5 109t-111.5 274t111.5 274t272.5 109t280 -105l-20 -21q-119 99 -260 99q-148 0 -251 -102t-103 -254q0 -144 93 -244t231 -111l515 725h60v-740zM940 328v400h-2
l-284 -400h286zM619 944l-195 -111l-196 110l26 15l170 -94l170 94z" />
    <glyph glyph-name="Ccaron_Aacute" unicode="&#xe09d;" horiz-adv-x="1047" 
d="M970 0h-30v301h-305l-204 -287q112 1 199 58t133 141h34q-51 -98 -148 -162t-224 -64q-161 0 -272.5 109t-111.5 274t111.5 274t272.5 109t280 -105l-20 -21q-119 99 -260 99q-148 0 -251 -102t-103 -254q0 -144 93 -244t231 -111l515 725h60v-740zM940 328v400h-2
l-284 -400h286zM619 944l-195 -111l-196 110l26 15l170 -94l170 94zM1097 953l-238 -138l-13 23l237 138z" />
    <glyph glyph-name="Ccaron_Adieresis" unicode="&#xe09e;" horiz-adv-x="1047" 
d="M970 0h-30v301h-305l-204 -287q112 1 199 58t133 141h34q-51 -98 -148 -162t-224 -64q-161 0 -272.5 109t-111.5 274t111.5 274t272.5 109t280 -105l-20 -21q-119 99 -260 99q-148 0 -251 -102t-103 -254q0 -144 93 -244t231 -111l515 725h60v-740zM940 328v400h-2
l-284 -400h286zM619 944l-195 -111l-196 110l26 15l170 -94l170 94zM1018 828h-29v116h29v-116zM898 828h-29v116h29v-116z" />
    <glyph glyph-name="Ccaron_Amacron" unicode="&#xe09f;" horiz-adv-x="1047" 
d="M970 0h-30v301h-305l-204 -287q112 1 199 58t133 141h34q-51 -98 -148 -162t-224 -64q-161 0 -272.5 109t-111.5 274t111.5 274t272.5 109t280 -105l-20 -21q-119 99 -260 99q-148 0 -251 -102t-103 -254q0 -144 93 -244t231 -111l515 725h60v-740zM940 328v400h-2
l-284 -400h286zM619 944l-195 -111l-196 110l26 15l170 -94l170 94zM1121 870h-356v30h356v-30z" />
    <glyph glyph-name="Ccaron_Abreve" unicode="&#xe0a0;" horiz-adv-x="1047" 
d="M970 0h-30v301h-305l-204 -287q112 1 199 58t133 141h34q-51 -98 -148 -162t-224 -64q-161 0 -272.5 109t-111.5 274t111.5 274t272.5 109t280 -105l-20 -21q-119 99 -260 99q-148 0 -251 -102t-103 -254q0 -144 93 -244t231 -111l515 725h60v-740zM940 328v400h-2
l-284 -400h286zM619 944l-195 -111l-196 110l26 15l170 -94l170 94zM1135 926q-10 -16 -18.5 -26t-29.5 -25.5t-57.5 -23t-86.5 -7.5q-145 0 -191 82h38q36 -53 153 -53q53 0 88 10.5t45 19.5t21 23h38z" />
    <glyph glyph-name="C_O.alt01" unicode="&#xe0a1;" horiz-adv-x="786" 
d="M672 373q0 -103 -69.5 -172.5t-173.5 -69.5t-173.5 69.5t-69.5 172.5t70 172.5t173 69.5t173 -69.5t70 -172.5zM749 575h-35q-14 20 -35 41t-57 48.5t-88 44.5t-109 17q-148 1 -251 -101t-103 -255q0 -152 103 -254t251 -102q60 0 113.5 18t89.5 46t54.5 46.5t31.5 36.5
h34q-42 -71 -128.5 -122.5t-194.5 -51.5q-161 0 -272.5 109t-111.5 274t111.5 274.5t272.5 108.5q109 0 193 -52.5t131 -125.5zM644 373q0 92 -61.5 154t-153.5 62t-153.5 -62t-61.5 -154t61.5 -154t153.5 -62t153.5 62t61.5 154z" />
    <glyph glyph-name="C_O" unicode="&#xe0a2;" horiz-adv-x="1202" 
d="M1160 370q0 -165 -111.5 -274t-272.5 -109q-97 0 -176 41q-82 -41 -175 -41q-161 0 -272.5 109t-111.5 274q0 164 111.5 273.5t272.5 109.5q91 0 173 -42q82 42 178 42q161 0 272.5 -109t111.5 -274zM1130 370q0 152 -103 254t-251 102q-79 0 -149 -31q75 -47 122 -120
h-35q-47 64 -117 104q-80 -45 -127.5 -126.5t-47.5 -182.5t48 -183t129 -127q72 40 115 101h34q-39 -68 -118 -117q69 -30 146 -30q148 0 251 102t103 254zM570 44q-82 51 -130 136.5t-48 189.5t47.5 189t128.5 136q-69 31 -143 31q-149 0 -251.5 -102t-102.5 -254t103 -254
t251 -102q74 0 145 30z" />
    <glyph glyph-name="C_Oacute" unicode="&#xe0a3;" horiz-adv-x="1202" 
d="M1160 370q0 -165 -111.5 -274t-272.5 -109q-97 0 -176 41q-82 -41 -175 -41q-161 0 -272.5 109t-111.5 274q0 164 111.5 273.5t272.5 109.5q91 0 173 -42q82 42 178 42q161 0 272.5 -109t111.5 -274zM1130 370q0 152 -103 254t-251 102q-79 0 -149 -31q75 -47 122 -120
h-35q-47 64 -117 104q-80 -45 -127.5 -126.5t-47.5 -182.5t48 -183t129 -127q72 40 115 101h34q-39 -68 -118 -117q69 -30 146 -30q148 0 251 102t103 254zM570 44q-82 51 -130 136.5t-48 189.5t47.5 189t128.5 136q-69 31 -143 31q-149 0 -251.5 -102t-102.5 -254t103 -254
t251 -102q74 0 145 30zM933 953l-238 -138l-13 23l237 138z" />
    <glyph glyph-name="C_Ograve" unicode="&#xe0a4;" horiz-adv-x="1202" 
d="M1160 370q0 -165 -111.5 -274t-272.5 -109q-97 0 -176 41q-82 -41 -175 -41q-161 0 -272.5 109t-111.5 274q0 164 111.5 273.5t272.5 109.5q91 0 173 -42q82 42 178 42q161 0 272.5 -109t111.5 -274zM1130 370q0 152 -103 254t-251 102q-79 0 -149 -31q75 -47 122 -120
h-35q-47 64 -117 104q-80 -45 -127.5 -126.5t-47.5 -182.5t48 -183t129 -127q72 40 115 101h34q-39 -68 -118 -117q69 -30 146 -30q148 0 251 102t103 254zM570 44q-82 51 -130 136.5t-48 189.5t47.5 189t128.5 136q-69 31 -143 31q-149 0 -251.5 -102t-102.5 -254t103 -254
t251 -102q74 0 145 30zM867 838l-13 -23l-238 138l14 23z" />
    <glyph glyph-name="C_Ocircumflex" unicode="&#xe0a5;" horiz-adv-x="1202" 
d="M1160 370q0 -165 -111.5 -274t-272.5 -109q-97 0 -176 41q-82 -41 -175 -41q-161 0 -272.5 109t-111.5 274q0 164 111.5 273.5t272.5 109.5q91 0 173 -42q82 42 178 42q161 0 272.5 -109t111.5 -274zM1130 370q0 152 -103 254t-251 102q-79 0 -149 -31q75 -47 122 -120
h-35q-47 64 -117 104q-80 -45 -127.5 -126.5t-47.5 -182.5t48 -183t129 -127q72 40 115 101h34q-39 -68 -118 -117q69 -30 146 -30q148 0 251 102t103 254zM570 44q-82 51 -130 136.5t-48 189.5t47.5 189t128.5 136q-69 31 -143 31q-149 0 -251.5 -102t-102.5 -254t103 -254
t251 -102q74 0 145 30zM965 848l-26 -15l-170 94l-170 -94l-25 15l195 110z" />
    <glyph glyph-name="C_Odieresis" unicode="&#xe0a6;" horiz-adv-x="1202" 
d="M1160 370q0 -165 -111.5 -274t-272.5 -109q-97 0 -176 41q-82 -41 -175 -41q-161 0 -272.5 109t-111.5 274q0 164 111.5 273.5t272.5 109.5q91 0 173 -42q82 42 178 42q161 0 272.5 -109t111.5 -274zM1130 370q0 152 -103 254t-251 102q-79 0 -149 -31q75 -47 122 -120
h-35q-47 64 -117 104q-80 -45 -127.5 -126.5t-47.5 -182.5t48 -183t129 -127q72 40 115 101h34q-39 -68 -118 -117q69 -30 146 -30q148 0 251 102t103 254zM570 44q-82 51 -130 136.5t-48 189.5t47.5 189t128.5 136q-69 31 -143 31q-149 0 -251.5 -102t-102.5 -254t103 -254
t251 -102q74 0 145 30zM844 828h-29v116h29v-116zM724 828h-29v116h29v-116z" />
    <glyph glyph-name="C_Obreve" unicode="&#xe0a7;" horiz-adv-x="1202" 
d="M1160 370q0 -165 -111.5 -274t-272.5 -109q-97 0 -176 41q-82 -41 -175 -41q-161 0 -272.5 109t-111.5 274q0 164 111.5 273.5t272.5 109.5q91 0 173 -42q82 42 178 42q161 0 272.5 -109t111.5 -274zM1130 370q0 152 -103 254t-251 102q-79 0 -149 -31q75 -47 122 -120
h-35q-47 64 -117 104q-80 -45 -127.5 -126.5t-47.5 -182.5t48 -183t129 -127q72 40 115 101h34q-39 -68 -118 -117q69 -30 146 -30q148 0 251 102t103 254zM570 44q-82 51 -130 136.5t-48 189.5t47.5 189t128.5 136q-69 31 -143 31q-149 0 -251.5 -102t-102.5 -254t103 -254
t251 -102q74 0 145 30zM961 926q-10 -16 -18.5 -26t-29.5 -25.5t-57.5 -23t-86.5 -7.5q-145 0 -191 82h38q36 -53 153 -53q53 0 88 10.5t45 19.5t21 23h38z" />
    <glyph glyph-name="C_Otilde" unicode="&#xe0a8;" horiz-adv-x="1202" 
d="M1160 370q0 -165 -111.5 -274t-272.5 -109q-97 0 -176 41q-82 -41 -175 -41q-161 0 -272.5 109t-111.5 274q0 164 111.5 273.5t272.5 109.5q91 0 173 -42q82 42 178 42q161 0 272.5 -109t111.5 -274zM1130 370q0 152 -103 254t-251 102q-79 0 -149 -31q75 -47 122 -120
h-35q-47 64 -117 104q-80 -45 -127.5 -126.5t-47.5 -182.5t48 -183t129 -127q72 40 115 101h34q-39 -68 -118 -117q69 -30 146 -30q148 0 251 102t103 254zM570 44q-82 51 -130 136.5t-48 189.5t47.5 189t128.5 136q-69 31 -143 31q-149 0 -251.5 -102t-102.5 -254t103 -254
t251 -102q74 0 145 30zM950 875q-48 -32 -89 -32q-45 0 -91 25q-51 28 -84 28q-44 0 -78 -27l-20 20q43 35 98 35q37 0 85 -24q54 -27 89 -27q31 0 70 23z" />
    <glyph glyph-name="C_Omacron" unicode="&#xe0a9;" horiz-adv-x="1202" 
d="M1160 370q0 -165 -111.5 -274t-272.5 -109q-97 0 -176 41q-82 -41 -175 -41q-161 0 -272.5 109t-111.5 274q0 164 111.5 273.5t272.5 109.5q91 0 173 -42q82 42 178 42q161 0 272.5 -109t111.5 -274zM1130 370q0 152 -103 254t-251 102q-79 0 -149 -31q75 -47 122 -120
h-35q-47 64 -117 104q-80 -45 -127.5 -126.5t-47.5 -182.5t48 -183t129 -127q72 40 115 101h34q-39 -68 -118 -117q69 -30 146 -30q148 0 251 102t103 254zM570 44q-82 51 -130 136.5t-48 189.5t47.5 189t128.5 136q-69 31 -143 31q-149 0 -251.5 -102t-102.5 -254t103 -254
t251 -102q74 0 145 30zM947 870h-356v30h356v-30z" />
    <glyph glyph-name="C_Ohungarumlaut" unicode="&#xe0aa;" horiz-adv-x="1202" 
d="M1160 370q0 -165 -111.5 -274t-272.5 -109q-97 0 -176 41q-82 -41 -175 -41q-161 0 -272.5 109t-111.5 274q0 164 111.5 273.5t272.5 109.5q91 0 173 -42q82 42 178 42q161 0 272.5 -109t111.5 -274zM1130 370q0 152 -103 254t-251 102q-79 0 -149 -31q75 -47 122 -120
h-35q-47 64 -117 104q-80 -45 -127.5 -126.5t-47.5 -182.5t48 -183t129 -127q72 40 115 101h34q-39 -68 -118 -117q69 -30 146 -30q148 0 251 102t103 254zM570 44q-82 51 -130 136.5t-48 189.5t47.5 189t128.5 136q-69 31 -143 31q-149 0 -251.5 -102t-102.5 -254t103 -254
t251 -102q74 0 145 30zM1079 976l-226 -161l-16 23l226 160zM888 976l-226 -161l-16 23l226 160z" />
    <glyph glyph-name="Ccedilla_O" unicode="&#xe0ab;" horiz-adv-x="1202" 
d="M1160 370q0 -165 -111.5 -274t-272.5 -109q-97 0 -176 41q-82 -41 -175 -41q-12 0 -18 1l-20 -44l2 -1q6 3 13 3q33 0 52.5 -21.5t19.5 -49.5q0 -30 -19.5 -53t-53.5 -23q-63 0 -74 62h27q9 -35 47 -35q18 0 32 13t14 36q0 20 -13.5 32.5t-32.5 12.5q-26 0 -41 -25l-22 5
l41 90q-145 16 -241.5 122t-96.5 258q0 164 111.5 273.5t272.5 109.5q91 0 173 -42q82 42 178 42q161 0 272.5 -109t111.5 -274zM1130 370q0 152 -103 254t-251 102q-79 0 -149 -31q75 -47 122 -120h-35q-47 64 -117 104q-80 -45 -127.5 -126.5t-47.5 -182.5t48 -183
t129 -127q72 40 115 101h34q-39 -68 -118 -117q69 -30 146 -30q148 0 251 102t103 254zM570 44q-82 51 -130 136.5t-48 189.5t47.5 189t128.5 136q-69 31 -143 31q-149 0 -251.5 -102t-102.5 -254t103 -254t251 -102q74 0 145 30z" />
    <glyph glyph-name="Ccedilla_Oacute" unicode="&#xe0ac;" horiz-adv-x="1202" 
d="M933 953l-238 -138l-13 23l237 138zM1160 370q0 -165 -111.5 -274t-272.5 -109q-97 0 -176 41q-82 -41 -175 -41q-12 0 -18 1l-20 -44l2 -1q6 3 13 3q33 0 52.5 -21.5t19.5 -49.5q0 -30 -19.5 -53t-53.5 -23q-63 0 -74 62h27q9 -35 47 -35q18 0 32 13t14 36
q0 20 -13.5 32.5t-32.5 12.5q-26 0 -41 -25l-22 5l41 90q-145 16 -241.5 122t-96.5 258q0 164 111.5 273.5t272.5 109.5q91 0 173 -42q82 42 178 42q161 0 272.5 -109t111.5 -274zM1130 370q0 152 -103 254t-251 102q-79 0 -149 -31q75 -47 122 -120h-35q-47 64 -117 104
q-80 -45 -127.5 -126.5t-47.5 -182.5t48 -183t129 -127q72 40 115 101h34q-39 -68 -118 -117q69 -30 146 -30q148 0 251 102t103 254zM570 44q-82 51 -130 136.5t-48 189.5t47.5 189t128.5 136q-69 31 -143 31q-149 0 -251.5 -102t-102.5 -254t103 -254t251 -102
q74 0 145 30z" />
    <glyph glyph-name="Ccedilla_Ograve" unicode="&#xe0ad;" horiz-adv-x="1202" 
d="M857 838l-13 -23l-238 138l14 23zM1160 370q0 -165 -111.5 -274t-272.5 -109q-97 0 -176 41q-82 -41 -175 -41q-12 0 -18 1l-20 -44l2 -1q6 3 13 3q33 0 52.5 -21.5t19.5 -49.5q0 -30 -19.5 -53t-53.5 -23q-63 0 -74 62h27q9 -35 47 -35q18 0 32 13t14 36
q0 20 -13.5 32.5t-32.5 12.5q-26 0 -41 -25l-22 5l41 90q-145 16 -241.5 122t-96.5 258q0 164 111.5 273.5t272.5 109.5q91 0 173 -42q82 42 178 42q161 0 272.5 -109t111.5 -274zM1130 370q0 152 -103 254t-251 102q-79 0 -149 -31q75 -47 122 -120h-35q-47 64 -117 104
q-80 -45 -127.5 -126.5t-47.5 -182.5t48 -183t129 -127q72 40 115 101h34q-39 -68 -118 -117q69 -30 146 -30q148 0 251 102t103 254zM570 44q-82 51 -130 136.5t-48 189.5t47.5 189t128.5 136q-69 31 -143 31q-149 0 -251.5 -102t-102.5 -254t103 -254t251 -102
q74 0 145 30z" />
    <glyph glyph-name="Ccedilla_Ocircumflex" unicode="&#xe0ae;" horiz-adv-x="1202" 
d="M975 848l-26 -15l-170 94l-170 -94l-25 15l195 110zM1160 370q0 -165 -111.5 -274t-272.5 -109q-97 0 -176 41q-82 -41 -175 -41q-12 0 -18 1l-20 -44l2 -1q6 3 13 3q33 0 52.5 -21.5t19.5 -49.5q0 -30 -19.5 -53t-53.5 -23q-63 0 -74 62h27q9 -35 47 -35q18 0 32 13
t14 36q0 20 -13.5 32.5t-32.5 12.5q-26 0 -41 -25l-22 5l41 90q-145 16 -241.5 122t-96.5 258q0 164 111.5 273.5t272.5 109.5q91 0 173 -42q82 42 178 42q161 0 272.5 -109t111.5 -274zM1130 370q0 152 -103 254t-251 102q-79 0 -149 -31q75 -47 122 -120h-35
q-47 64 -117 104q-80 -45 -127.5 -126.5t-47.5 -182.5t48 -183t129 -127q72 40 115 101h34q-39 -68 -118 -117q69 -30 146 -30q148 0 251 102t103 254zM570 44q-82 51 -130 136.5t-48 189.5t47.5 189t128.5 136q-69 31 -143 31q-149 0 -251.5 -102t-102.5 -254t103 -254
t251 -102q74 0 145 30z" />
    <glyph glyph-name="Ccedilla_Odieresis" unicode="&#xe0af;" horiz-adv-x="1202" 
d="M854 828h-29v116h29v-116zM734 828h-29v116h29v-116zM1160 370q0 -165 -111.5 -274t-272.5 -109q-97 0 -176 41q-82 -41 -175 -41q-12 0 -18 1l-20 -44l2 -1q6 3 13 3q33 0 52.5 -21.5t19.5 -49.5q0 -30 -19.5 -53t-53.5 -23q-63 0 -74 62h27q9 -35 47 -35q18 0 32 13
t14 36q0 20 -13.5 32.5t-32.5 12.5q-26 0 -41 -25l-22 5l41 90q-145 16 -241.5 122t-96.5 258q0 164 111.5 273.5t272.5 109.5q91 0 173 -42q82 42 178 42q161 0 272.5 -109t111.5 -274zM1130 370q0 152 -103 254t-251 102q-79 0 -149 -31q75 -47 122 -120h-35
q-47 64 -117 104q-80 -45 -127.5 -126.5t-47.5 -182.5t48 -183t129 -127q72 40 115 101h34q-39 -68 -118 -117q69 -30 146 -30q148 0 251 102t103 254zM570 44q-82 51 -130 136.5t-48 189.5t47.5 189t128.5 136q-69 31 -143 31q-149 0 -251.5 -102t-102.5 -254t103 -254
t251 -102q74 0 145 30z" />
    <glyph glyph-name="Cacute_O" unicode="&#xe0b0;" horiz-adv-x="1202" 
d="M1160 370q0 -165 -111.5 -274t-272.5 -109q-97 0 -176 41q-82 -41 -175 -41q-161 0 -272.5 109t-111.5 274q0 164 111.5 273.5t272.5 109.5q91 0 173 -42q82 42 178 42q161 0 272.5 -109t111.5 -274zM1130 370q0 152 -103 254t-251 102q-79 0 -149 -31q75 -47 122 -120
h-35q-47 64 -117 104q-80 -45 -127.5 -126.5t-47.5 -182.5t48 -183t129 -127q72 40 115 101h34q-39 -68 -118 -117q69 -30 146 -30q148 0 251 102t103 254zM570 44q-82 51 -130 136.5t-48 189.5t47.5 189t128.5 136q-69 31 -143 31q-149 0 -251.5 -102t-102.5 -254t103 -254
t251 -102q74 0 145 30zM577 953l-238 -138l-13 23l237 138z" />
    <glyph glyph-name="Cacute_Oacute" unicode="&#xe0b1;" horiz-adv-x="1202" 
d="M1160 370q0 -165 -111.5 -274t-272.5 -109q-97 0 -176 41q-82 -41 -175 -41q-161 0 -272.5 109t-111.5 274q0 164 111.5 273.5t272.5 109.5q91 0 173 -42q82 42 178 42q161 0 272.5 -109t111.5 -274zM1130 370q0 152 -103 254t-251 102q-79 0 -149 -31q75 -47 122 -120
h-35q-47 64 -117 104q-80 -45 -127.5 -126.5t-47.5 -182.5t48 -183t129 -127q72 40 115 101h34q-39 -68 -118 -117q69 -30 146 -30q148 0 251 102t103 254zM570 44q-82 51 -130 136.5t-48 189.5t47.5 189t128.5 136q-69 31 -143 31q-149 0 -251.5 -102t-102.5 -254t103 -254
t251 -102q74 0 145 30zM577 953l-238 -138l-13 23l237 138zM935 953l-238 -138l-13 23l237 138z" />
    <glyph glyph-name="Ccircumflex_O" unicode="&#xe0b2;" horiz-adv-x="1202" 
d="M1160 370q0 -165 -111.5 -274t-272.5 -109q-97 0 -176 41q-82 -41 -175 -41q-161 0 -272.5 109t-111.5 274q0 164 111.5 273.5t272.5 109.5q91 0 173 -42q82 42 178 42q161 0 272.5 -109t111.5 -274zM1130 370q0 152 -103 254t-251 102q-79 0 -149 -31q75 -47 122 -120
h-35q-47 64 -117 104q-80 -45 -127.5 -126.5t-47.5 -182.5t48 -183t129 -127q72 40 115 101h34q-39 -68 -118 -117q69 -30 146 -30q148 0 251 102t103 254zM570 44q-82 51 -130 136.5t-48 189.5t47.5 189t128.5 136q-69 31 -143 31q-149 0 -251.5 -102t-102.5 -254t103 -254
t251 -102q74 0 145 30zM619 848l-26 -15l-170 94l-170 -94l-25 15l195 110z" />
    <glyph glyph-name="Ccircumflex_Odieresis" unicode="&#xe0b3;" horiz-adv-x="1202" 
d="M1160 370q0 -165 -111.5 -274t-272.5 -109q-97 0 -176 41q-82 -41 -175 -41q-161 0 -272.5 109t-111.5 274q0 164 111.5 273.5t272.5 109.5q91 0 173 -42q82 42 178 42q161 0 272.5 -109t111.5 -274zM1130 370q0 152 -103 254t-251 102q-79 0 -149 -31q75 -47 122 -120
h-35q-47 64 -117 104q-80 -45 -127.5 -126.5t-47.5 -182.5t48 -183t129 -127q72 40 115 101h34q-39 -68 -118 -117q69 -30 146 -30q148 0 251 102t103 254zM570 44q-82 51 -130 136.5t-48 189.5t47.5 189t128.5 136q-69 31 -143 31q-149 0 -251.5 -102t-102.5 -254t103 -254
t251 -102q74 0 145 30zM619 848l-26 -15l-170 94l-170 -94l-25 15l195 110zM856 828h-29v116h29v-116zM736 828h-29v116h29v-116z" />
    <glyph glyph-name="Ccircumflex_Obreve" unicode="&#xe0b4;" horiz-adv-x="1202" 
d="M1160 370q0 -165 -111.5 -274t-272.5 -109q-97 0 -176 41q-82 -41 -175 -41q-161 0 -272.5 109t-111.5 274q0 164 111.5 273.5t272.5 109.5q91 0 173 -42q82 42 178 42q161 0 272.5 -109t111.5 -274zM1130 370q0 152 -103 254t-251 102q-79 0 -149 -31q75 -47 122 -120
h-35q-47 64 -117 104q-80 -45 -127.5 -126.5t-47.5 -182.5t48 -183t129 -127q72 40 115 101h34q-39 -68 -118 -117q69 -30 146 -30q148 0 251 102t103 254zM570 44q-82 51 -130 136.5t-48 189.5t47.5 189t128.5 136q-69 31 -143 31q-149 0 -251.5 -102t-102.5 -254t103 -254
t251 -102q74 0 145 30zM599 848l-26 -15l-170 94l-170 -94l-25 15l195 110zM983 926q-10 -16 -18.5 -26t-29.5 -25.5t-57.5 -23t-86.5 -7.5q-145 0 -191 82h38q36 -53 153 -53q53 0 88 10.5t45 19.5t21 23h38z" />
    <glyph glyph-name="Ccircumflex_Omacron" unicode="&#xe0b5;" horiz-adv-x="1202" 
d="M1160 370q0 -165 -111.5 -274t-272.5 -109q-97 0 -176 41q-82 -41 -175 -41q-161 0 -272.5 109t-111.5 274q0 164 111.5 273.5t272.5 109.5q91 0 173 -42q82 42 178 42q161 0 272.5 -109t111.5 -274zM1130 370q0 152 -103 254t-251 102q-79 0 -149 -31q75 -47 122 -120
h-35q-47 64 -117 104q-80 -45 -127.5 -126.5t-47.5 -182.5t48 -183t129 -127q72 40 115 101h34q-39 -68 -118 -117q69 -30 146 -30q148 0 251 102t103 254zM570 44q-82 51 -130 136.5t-48 189.5t47.5 189t128.5 136q-69 31 -143 31q-149 0 -251.5 -102t-102.5 -254t103 -254
t251 -102q74 0 145 30zM609 848l-26 -15l-170 94l-170 -94l-25 15l195 110zM940 870h-285v30h285v-30z" />
    <glyph glyph-name="Cdotaccent_O" unicode="&#xe0b6;" horiz-adv-x="1202" 
d="M1160 370q0 -165 -111.5 -274t-272.5 -109q-97 0 -176 41q-82 -41 -175 -41q-161 0 -272.5 109t-111.5 274q0 164 111.5 273.5t272.5 109.5q91 0 173 -42q82 42 178 42q161 0 272.5 -109t111.5 -274zM1130 370q0 152 -103 254t-251 102q-79 0 -149 -31q75 -47 122 -120
h-35q-47 64 -117 104q-80 -45 -127.5 -126.5t-47.5 -182.5t48 -183t129 -127q72 40 115 101h34q-39 -68 -118 -117q69 -30 146 -30q148 0 251 102t103 254zM570 44q-82 51 -130 136.5t-48 189.5t47.5 189t128.5 136q-69 31 -143 31q-149 0 -251.5 -102t-102.5 -254t103 -254
t251 -102q74 0 145 30zM437 828h-31v116h31v-116z" />
    <glyph glyph-name="Ccaron_O" unicode="&#xe0b7;" horiz-adv-x="1202" 
d="M1160 370q0 -165 -111.5 -274t-272.5 -109q-97 0 -176 41q-82 -41 -175 -41q-161 0 -272.5 109t-111.5 274q0 164 111.5 273.5t272.5 109.5q91 0 173 -42q82 42 178 42q161 0 272.5 -109t111.5 -274zM1130 370q0 152 -103 254t-251 102q-79 0 -149 -31q75 -47 122 -120
h-35q-47 64 -117 104q-80 -45 -127.5 -126.5t-47.5 -182.5t48 -183t129 -127q72 40 115 101h34q-39 -68 -118 -117q69 -30 146 -30q148 0 251 102t103 254zM570 44q-82 51 -130 136.5t-48 189.5t47.5 189t128.5 136q-69 31 -143 31q-149 0 -251.5 -102t-102.5 -254t103 -254
t251 -102q74 0 145 30zM619 944l-195 -111l-196 110l26 15l170 -94l170 94z" />
    <glyph glyph-name="Ccaron_Oacute" unicode="&#xe0b8;" horiz-adv-x="1202" 
d="M1160 370q0 -165 -111.5 -274t-272.5 -109q-97 0 -176 41q-82 -41 -175 -41q-161 0 -272.5 109t-111.5 274q0 164 111.5 273.5t272.5 109.5q91 0 173 -42q82 42 178 42q161 0 272.5 -109t111.5 -274zM1130 370q0 152 -103 254t-251 102q-79 0 -149 -31q75 -47 122 -120
h-35q-47 64 -117 104q-80 -45 -127.5 -126.5t-47.5 -182.5t48 -183t129 -127q72 40 115 101h34q-39 -68 -118 -117q69 -30 146 -30q148 0 251 102t103 254zM570 44q-82 51 -130 136.5t-48 189.5t47.5 189t128.5 136q-69 31 -143 31q-149 0 -251.5 -102t-102.5 -254t103 -254
t251 -102q74 0 145 30zM619 944l-195 -111l-196 110l26 15l170 -94l170 94zM933 953l-238 -138l-13 23l237 138z" />
    <glyph glyph-name="Ccaron_Ocircumflex" unicode="&#xe0b9;" horiz-adv-x="1202" 
d="M1160 370q0 -165 -111.5 -274t-272.5 -109q-97 0 -176 41q-82 -41 -175 -41q-161 0 -272.5 109t-111.5 274q0 164 111.5 273.5t272.5 109.5q91 0 173 -42q82 42 178 42q161 0 272.5 -109t111.5 -274zM1130 370q0 152 -103 254t-251 102q-79 0 -149 -31q75 -47 122 -120
h-35q-47 64 -117 104q-80 -45 -127.5 -126.5t-47.5 -182.5t48 -183t129 -127q72 40 115 101h34q-39 -68 -118 -117q69 -30 146 -30q148 0 251 102t103 254zM570 44q-82 51 -130 136.5t-48 189.5t47.5 189t128.5 136q-69 31 -143 31q-149 0 -251.5 -102t-102.5 -254t103 -254
t251 -102q74 0 145 30zM607 944l-195 -111l-196 110l26 15l170 -94l170 94zM987 848l-26 -15l-170 94l-170 -94l-25 15l195 110z" />
    <glyph glyph-name="D_E" unicode="&#xe0ba;" horiz-adv-x="1129" 
d="M1065 0h-406v327h-2q-12 -158 -111 -242.5t-260 -84.5h-209v740h209q167 0 263.5 -88.5t107.5 -238.5h2v327h406v-27h-376v-327h376v-27h-376v-332h376v-27zM629 368q0 162 -90.5 253.5t-252.5 91.5h-179v-686h179q161 0 252 90.5t91 250.5z" />
    <glyph glyph-name="D_Eacute" unicode="&#xe0bb;" horiz-adv-x="1129" 
d="M1065 0h-406v327h-2q-12 -158 -111 -242.5t-260 -84.5h-209v740h209q167 0 263.5 -88.5t107.5 -238.5h2v327h406v-27h-376v-327h376v-27h-376v-332h376v-27zM629 368q0 162 -90.5 253.5t-252.5 91.5h-179v-686h179q161 0 252 90.5t91 250.5zM1038 953l-238 -138l-13 23
l237 138z" />
    <glyph glyph-name="D_Egrave" unicode="&#xe0bc;" horiz-adv-x="1129" 
d="M1065 0h-406v327h-2q-12 -158 -111 -242.5t-260 -84.5h-209v740h209q167 0 263.5 -88.5t107.5 -238.5h2v327h406v-27h-376v-327h376v-27h-376v-332h376v-27zM629 368q0 162 -90.5 253.5t-252.5 91.5h-179v-686h179q161 0 252 90.5t91 250.5zM951 838l-13 -23l-238 138
l14 23z" />
    <glyph glyph-name="D_Ecircumflex" unicode="&#xe0bd;" horiz-adv-x="1129" 
d="M1065 0h-406v327h-2q-12 -158 -111 -242.5t-260 -84.5h-209v740h209q167 0 263.5 -88.5t107.5 -238.5h2v327h406v-27h-376v-327h376v-27h-376v-332h376v-27zM629 368q0 162 -90.5 253.5t-252.5 91.5h-179v-686h179q161 0 252 90.5t91 250.5zM1059 848l-26 -15l-170 94
l-170 -94l-25 15l195 110z" />
    <glyph glyph-name="D_Edieresis" unicode="&#xe0be;" horiz-adv-x="1129" 
d="M1065 0h-406v327h-2q-12 -158 -111 -242.5t-260 -84.5h-209v740h209q167 0 263.5 -88.5t107.5 -238.5h2v327h406v-27h-376v-327h376v-27h-376v-332h376v-27zM629 368q0 162 -90.5 253.5t-252.5 91.5h-179v-686h179q161 0 252 90.5t91 250.5zM938 828h-29v116h29v-116z
M818 828h-29v116h29v-116z" />
    <glyph glyph-name="D_Emacron" unicode="&#xe0bf;" horiz-adv-x="1129" 
d="M1065 0h-406v327h-2q-12 -158 -111 -242.5t-260 -84.5h-209v740h209q167 0 263.5 -88.5t107.5 -238.5h2v327h406v-27h-376v-327h376v-27h-376v-332h376v-27zM629 368q0 162 -90.5 253.5t-252.5 91.5h-179v-686h179q161 0 252 90.5t91 250.5zM1041 870h-356v30h356v-30z
" />
    <glyph glyph-name="D_Ebreve" unicode="&#xe0c0;" horiz-adv-x="1129" 
d="M1065 0h-406v327h-2q-12 -158 -111 -242.5t-260 -84.5h-209v740h209q167 0 263.5 -88.5t107.5 -238.5h2v327h406v-27h-376v-327h376v-27h-376v-332h376v-27zM629 368q0 162 -90.5 253.5t-252.5 91.5h-179v-686h179q161 0 252 90.5t91 250.5zM1055 926q-10 -16 -18.5 -26
t-29.5 -25.5t-57.5 -23t-86.5 -7.5q-145 0 -191 82h38q36 -53 153 -53q53 0 88 10.5t45 19.5t21 23h38z" />
    <glyph glyph-name="D_Edotaccent" unicode="&#xe0c1;" horiz-adv-x="1129" 
d="M1065 0h-406v327h-2q-12 -158 -111 -242.5t-260 -84.5h-209v740h209q167 0 263.5 -88.5t107.5 -238.5h2v327h406v-27h-376v-327h376v-27h-376v-332h376v-27zM629 368q0 162 -90.5 253.5t-252.5 91.5h-179v-686h179q161 0 252 90.5t91 250.5zM879 828h-31v116h31v-116z
" />
    <glyph glyph-name="D_Eogonek" unicode="&#xe0c2;" horiz-adv-x="1129" 
d="M1054 -193q-24 -13 -56 -13q-47 0 -75.5 26.5t-28.5 70.5q0 70 88 109h-323v327h-2q-12 -158 -111 -242.5t-260 -84.5h-209v740h209q167 0 263.5 -88.5t107.5 -238.5h2v327h406v-27h-376v-327h376v-27h-376v-332h376v-27h-54q-48 -26 -67 -49.5t-19 -56.5q0 -31 21.5 -51
t51.5 -20q23 0 56 13v-29zM629 368q0 162 -90.5 253.5t-252.5 91.5h-179v-686h179q161 0 252 90.5t91 250.5z" />
    <glyph glyph-name="D_Ecaron" unicode="&#xe0c3;" horiz-adv-x="1129" 
d="M1065 0h-406v327h-2q-12 -158 -111 -242.5t-260 -84.5h-209v740h209q167 0 263.5 -88.5t107.5 -238.5h2v327h406v-27h-376v-327h376v-27h-376v-332h376v-27zM629 368q0 162 -90.5 253.5t-252.5 91.5h-179v-686h179q161 0 252 90.5t91 250.5zM1059 944l-195 -111l-196 110
l26 15l170 -94l170 94z" />
    <glyph glyph-name="Dcaron_E" unicode="&#xe0c4;" horiz-adv-x="1129" 
d="M1065 0h-406v327h-2q-12 -158 -111 -242.5t-260 -84.5h-209v740h209q167 0 263.5 -88.5t107.5 -238.5h2v327h406v-27h-376v-327h376v-27h-376v-332h376v-27zM629 368q0 162 -90.5 253.5t-252.5 91.5h-179v-686h179q161 0 252 90.5t91 250.5zM530 944l-195 -111l-196 110
l26 15l170 -94l170 94z" />
    <glyph glyph-name="Dcaron_Eacute" unicode="&#xe0c5;" horiz-adv-x="1129" 
d="M1065 0h-406v327h-2q-12 -158 -111 -242.5t-260 -84.5h-209v740h209q167 0 263.5 -88.5t107.5 -238.5h2v327h406v-27h-376v-327h376v-27h-376v-332h376v-27zM629 368q0 162 -90.5 253.5t-252.5 91.5h-179v-686h179q161 0 252 90.5t91 250.5zM530 944l-195 -111l-196 110
l26 15l170 -94l170 94zM1026 953l-238 -138l-13 23l237 138z" />
    <glyph glyph-name="Dcaron_Ecaron" unicode="&#xe0c6;" horiz-adv-x="1129" 
d="M1065 0h-406v327h-2q-12 -158 -111 -242.5t-260 -84.5h-209v740h209q167 0 263.5 -88.5t107.5 -238.5h2v327h406v-27h-376v-327h376v-27h-376v-332h376v-27zM629 368q0 162 -90.5 253.5t-252.5 91.5h-179v-686h179q161 0 252 90.5t91 250.5zM1060 944l-195 -111l-196 110
l26 15l170 -94l170 94zM520 944l-195 -111l-196 110l26 15l170 -94l170 94z" />
    <glyph glyph-name="Dcroat_E" unicode="&#xe0c7;" horiz-adv-x="1139" 
d="M1075 0h-406v327h-2q-12 -158 -111 -242.5t-260 -84.5h-209v359h-77v27h77v354h209q167 0 263.5 -88.5t107.5 -238.5h2v327h406v-27h-376v-327h376v-27h-376v-332h376v-27zM639 368q0 162 -90.5 253.5t-252.5 91.5h-179v-327h251v-27h-251v-332h179q161 0 252 90.5
t91 250.5z" />
    <glyph glyph-name="D_I" unicode="&#xe0c8;" horiz-adv-x="766" 
d="M689 0h-30v327h-2q-12 -158 -111 -242.5t-260 -84.5h-209v740h209q167 0 263.5 -88.5t107.5 -238.5h2v327h30v-740zM629 368q0 162 -90.5 253.5t-252.5 91.5h-179v-686h179q161 0 252 90.5t91 250.5z" />
    <glyph glyph-name="D_Iacute" unicode="&#xe0c9;" horiz-adv-x="766" 
d="M689 0h-30v327h-2q-12 -158 -111 -242.5t-260 -84.5h-209v740h209q167 0 263.5 -88.5t107.5 -238.5h2v327h30v-740zM629 368q0 162 -90.5 253.5t-252.5 91.5h-179v-686h179q161 0 252 90.5t91 250.5zM830 953l-238 -138l-13 23l237 138z" />
    <glyph glyph-name="D_Igrave" unicode="&#xe0ca;" horiz-adv-x="766" 
d="M689 0h-30v327h-2q-12 -158 -111 -242.5t-260 -84.5h-209v740h209q167 0 263.5 -88.5t107.5 -238.5h2v327h30v-740zM629 368q0 162 -90.5 253.5t-252.5 91.5h-179v-686h179q161 0 252 90.5t91 250.5zM762 838l-13 -23l-238 138l14 23z" />
    <glyph glyph-name="D_Icircumflex" unicode="&#xe0cb;" horiz-adv-x="766" 
d="M689 0h-30v327h-2q-12 -158 -111 -242.5t-260 -84.5h-209v740h209q167 0 263.5 -88.5t107.5 -238.5h2v327h30v-740zM629 368q0 162 -90.5 253.5t-252.5 91.5h-179v-686h179q161 0 252 90.5t91 250.5zM870 848l-26 -15l-170 94l-170 -94l-25 15l195 110z" />
    <glyph glyph-name="D_Idieresis" unicode="&#xe0cc;" horiz-adv-x="766" 
d="M689 0h-30v327h-2q-12 -158 -111 -242.5t-260 -84.5h-209v740h209q167 0 263.5 -88.5t107.5 -238.5h2v327h30v-740zM629 368q0 162 -90.5 253.5t-252.5 91.5h-179v-686h179q161 0 252 90.5t91 250.5zM749 828h-29v116h29v-116zM629 828h-29v116h29v-116z" />
    <glyph glyph-name="D_Itilde" unicode="&#xe0cd;" horiz-adv-x="766" 
d="M689 0h-30v327h-2q-12 -158 -111 -242.5t-260 -84.5h-209v740h209q167 0 263.5 -88.5t107.5 -238.5h2v327h30v-740zM629 368q0 162 -90.5 253.5t-252.5 91.5h-179v-686h179q161 0 252 90.5t91 250.5zM855 875q-48 -32 -89 -32q-45 0 -91 25q-51 28 -84 28q-44 0 -78 -27
l-20 20q43 35 98 35q37 0 85 -24q54 -27 89 -27q31 0 70 23z" />
    <glyph glyph-name="D_Imacron" unicode="&#xe0ce;" horiz-adv-x="766" 
d="M689 0h-30v327h-2q-12 -158 -111 -242.5t-260 -84.5h-209v740h209q167 0 263.5 -88.5t107.5 -238.5h2v327h30v-740zM629 368q0 162 -90.5 253.5t-252.5 91.5h-179v-686h179q161 0 252 90.5t91 250.5zM852 870h-356v30h356v-30z" />
    <glyph glyph-name="D_Ibreve" unicode="&#xe0cf;" horiz-adv-x="766" 
d="M689 0h-30v327h-2q-12 -158 -111 -242.5t-260 -84.5h-209v740h209q167 0 263.5 -88.5t107.5 -238.5h2v327h30v-740zM629 368q0 162 -90.5 253.5t-252.5 91.5h-179v-686h179q161 0 252 90.5t91 250.5zM866 926q-10 -16 -18.5 -26t-29.5 -25.5t-57.5 -23t-86.5 -7.5
q-145 0 -191 82h38q36 -53 153 -53q53 0 88 10.5t45 19.5t21 23h38z" />
    <glyph glyph-name="D_Idotaccent" unicode="&#xe0d0;" horiz-adv-x="766" 
d="M689 0h-30v327h-2q-12 -158 -111 -242.5t-260 -84.5h-209v740h209q167 0 263.5 -88.5t107.5 -238.5h2v327h30v-740zM629 368q0 162 -90.5 253.5t-252.5 91.5h-179v-686h179q161 0 252 90.5t91 250.5zM690 828h-31v116h31v-116z" />
    <glyph glyph-name="D_Iogonek" unicode="&#xe0d1;" horiz-adv-x="766" 
d="M732 -193q-24 -13 -56 -13q-47 0 -75.5 26.5t-28.5 70.5q0 70 88 109h-1v327h-2q-12 -158 -111 -242.5t-260 -84.5h-209v740h209q167 0 263.5 -88.5t107.5 -238.5h2v327h30v-740q-49 -28 -67.5 -51t-18.5 -55q0 -31 21.5 -51t51.5 -20q23 0 56 13v-29zM629 368
q0 162 -90.5 253.5t-252.5 91.5h-179v-686h179q161 0 252 90.5t91 250.5z" />
    <glyph glyph-name="Dcaron_I" unicode="&#xe0d2;" horiz-adv-x="766" 
d="M689 0h-30v327h-2q-12 -158 -111 -242.5t-260 -84.5h-209v740h209q167 0 263.5 -88.5t107.5 -238.5h2v327h30v-740zM629 368q0 162 -90.5 253.5t-252.5 91.5h-179v-686h179q161 0 252 90.5t91 250.5zM520 944l-195 -111l-196 110l26 15l170 -94l170 94z" />
    <glyph glyph-name="Dcaron_Iacute" unicode="&#xe0d3;" horiz-adv-x="766" 
d="M689 0h-30v327h-2q-12 -158 -111 -242.5t-260 -84.5h-209v740h209q167 0 263.5 -88.5t107.5 -238.5h2v327h30v-740zM629 368q0 162 -90.5 253.5t-252.5 91.5h-179v-686h179q161 0 252 90.5t91 250.5zM520 944l-195 -111l-196 110l26 15l170 -94l170 94zM830 953
l-238 -138l-13 23l237 138z" />
    <glyph glyph-name="Dcroat_I" unicode="&#xe0d4;" horiz-adv-x="776" 
d="M699 0h-30v327h-2q-12 -158 -111 -242.5t-260 -84.5h-209v359h-77v27h77v354h209q167 0 263.5 -88.5t107.5 -238.5h2v327h30v-740zM639 368q0 162 -90.5 253.5t-252.5 91.5h-179v-327h251v-27h-251v-332h179q161 0 252 90.5t91 250.5z" />
    <glyph glyph-name="E_A" unicode="&#xe0d5;" horiz-adv-x="939" 
d="M862 0h-30v244h-346l-154 -217h238v-27h-493v740h367v-27h-337v-327h337v-27h-337v-332h188l507 713h60v-740zM832 271v457h-2l-324 -457h326z" />
    <glyph glyph-name="Eacute_A" unicode="&#xe0d6;" horiz-adv-x="939" 
d="M862 0h-30v244h-346l-154 -217h238v-27h-493v740h367v-27h-337v-327h337v-27h-337v-332h188l507 713h60v-740zM832 271v457h-2l-324 -457h326zM433 953l-238 -138l-13 23l237 138z" />
    <glyph glyph-name="Egrave_A" unicode="&#xe0d7;" horiz-adv-x="939" 
d="M862 0h-30v244h-346l-154 -217h238v-27h-493v740h367v-27h-337v-327h337v-27h-337v-332h188l507 713h60v-740zM832 271v457h-2l-324 -457h326zM360 838l-13 -23l-238 138l14 23z" />
    <glyph glyph-name="Ecircumflex_A" unicode="&#xe0d8;" horiz-adv-x="939" 
d="M862 0h-30v244h-346l-154 -217h238v-27h-493v740h367v-27h-337v-327h337v-27h-337v-332h188l507 713h60v-740zM832 271v457h-2l-324 -457h326zM458 848l-26 -15l-170 94l-170 -94l-25 15l195 110z" />
    <glyph glyph-name="Edieresis_A" unicode="&#xe0d9;" horiz-adv-x="939" 
d="M862 0h-30v244h-346l-154 -217h238v-27h-493v740h367v-27h-337v-327h337v-27h-337v-332h188l507 713h60v-740zM832 271v457h-2l-324 -457h326zM337 828h-29v116h29v-116zM217 828h-29v116h29v-116z" />
    <glyph glyph-name="Emacron_A" unicode="&#xe0da;" horiz-adv-x="939" 
d="M862 0h-30v244h-346l-154 -217h238v-27h-493v740h367v-27h-337v-327h337v-27h-337v-332h188l507 713h60v-740zM832 271v457h-2l-324 -457h326zM440 870h-356v30h356v-30z" />
    <glyph glyph-name="Ebreve_A" unicode="&#xe0db;" horiz-adv-x="939" 
d="M862 0h-30v244h-346l-154 -217h238v-27h-493v740h367v-27h-337v-327h337v-27h-337v-332h188l507 713h60v-740zM832 271v457h-2l-324 -457h326zM454 926q-10 -16 -18.5 -26t-29.5 -25.5t-57.5 -23t-86.5 -7.5q-145 0 -191 82h38q36 -53 153 -53q53 0 88 10.5t45 19.5
t21 23h38z" />
    <glyph glyph-name="Edotaccent_A" unicode="&#xe0dc;" horiz-adv-x="939" 
d="M862 0h-30v244h-346l-154 -217h238v-27h-493v740h367v-27h-337v-327h337v-27h-337v-332h188l507 713h60v-740zM832 271v457h-2l-324 -457h326zM278 828h-31v116h31v-116z" />
    <glyph glyph-name="Ecaron_A" unicode="&#xe0dd;" horiz-adv-x="939" 
d="M862 0h-30v244h-346l-154 -217h238v-27h-493v740h367v-27h-337v-327h337v-27h-337v-332h188l507 713h60v-740zM832 271v457h-2l-324 -457h326zM458 944l-195 -111l-196 110l26 15l170 -94l170 94z" />
    <glyph glyph-name="F_A" unicode="&#xe0de;" horiz-adv-x="919" 
d="M842 0h-30v285h-316l-203 -285h-37l203 285h-352v-285h-30v740h363v-27h-333v-401h371l304 428h60v-740zM812 312v416h-2l-294 -416h296z" />
    <glyph glyph-name="F_Aacute" unicode="&#xe0df;" horiz-adv-x="919" 
d="M842 0h-30v285h-316l-203 -285h-37l203 285h-352v-285h-30v740h363v-27h-333v-401h371l304 428h60v-740zM812 312v416h-2l-294 -416h296zM967 953l-238 -138l-13 23l237 138z" />
    <glyph glyph-name="F_Agrave" unicode="&#xe0e0;" horiz-adv-x="919" 
d="M842 0h-30v285h-316l-203 -285h-37l203 285h-352v-285h-30v740h363v-27h-333v-401h371l304 428h60v-740zM812 312v416h-2l-294 -416h296zM906 838l-13 -23l-238 138l14 23z" />
    <glyph glyph-name="F_Acircumflex" unicode="&#xe0e1;" horiz-adv-x="919" 
d="M842 0h-30v285h-316l-203 -285h-37l203 285h-352v-285h-30v740h363v-27h-333v-401h371l304 428h60v-740zM812 312v416h-2l-294 -416h296zM1004 848l-26 -15l-170 94l-170 -94l-25 15l195 110z" />
    <glyph glyph-name="F_Adieresis" unicode="&#xe0e2;" horiz-adv-x="919" 
d="M842 0h-30v285h-316l-203 -285h-37l203 285h-352v-285h-30v740h363v-27h-333v-401h371l304 428h60v-740zM812 312v416h-2l-294 -416h296zM883 828h-29v116h29v-116zM763 828h-29v116h29v-116z" />
    <glyph glyph-name="F_Aring" unicode="&#xe0e3;" horiz-adv-x="919" 
d="M842 0h-30v285h-316l-203 -285h-37l203 285h-352v-285h-30v740h363v-27h-333v-401h371l304 428h60v-740zM812 312v416h-2l-294 -416h296zM900 846q0 -38 -27 -64.5t-65 -26.5t-64.5 26.5t-26.5 64.5t27 64.5t64 26.5q38 0 65 -26.5t27 -64.5zM872 847q0 26 -18.5 45
t-45.5 19q-26 0 -44.5 -19t-18.5 -45t18.5 -44.5t44.5 -18.5q27 0 45.5 18.5t18.5 44.5z" />
    <glyph glyph-name="F_Amacron" unicode="&#xe0e4;" horiz-adv-x="919" 
d="M842 0h-30v285h-316l-203 -285h-37l203 285h-352v-285h-30v740h363v-27h-333v-401h371l304 428h60v-740zM812 312v416h-2l-294 -416h296zM986 870h-356v30h356v-30z" />
    <glyph glyph-name="F_Abreve" unicode="&#xe0e5;" horiz-adv-x="919" 
d="M842 0h-30v285h-316l-203 -285h-37l203 285h-352v-285h-30v740h363v-27h-333v-401h371l304 428h60v-740zM812 312v416h-2l-294 -416h296zM1000 926q-10 -16 -18.5 -26t-29.5 -25.5t-57.5 -23t-86.5 -7.5q-145 0 -191 82h38q36 -53 153 -53q53 0 88 10.5t45 19.5t21 23h38
z" />
    <glyph glyph-name="F_Aogonek" unicode="&#xe0e6;" horiz-adv-x="919" 
d="M884 -193q-24 -13 -56 -13q-47 0 -75.5 26.5t-28.5 70.5q0 70 88 109v285h-316l-203 -285h-37l203 285h-352v-285h-30v740h363v-27h-333v-401h371l304 428h60v-740h-1q-49 -30 -67.5 -52t-18.5 -54q0 -31 21.5 -51t51.5 -20q23 0 56 13v-29zM812 312v416h-2l-294 -416
h296z" />
    <glyph glyph-name="F_R" unicode="&#xe0e7;" horiz-adv-x="666" 
d="M652 396q0 -83 -52 -145.5t-150 -62.5h-9l134 -188h-38l-152 215h53q89 0 134 46q50 51 50 134q0 29 -12 66t-34 59q-31 29 -68.5 40.5t-119.5 11.5h-117v-172h169v-27h-169v-373h-30v373h-134v-373h-30v740h363v-27h-333v-313h134v200h147q145 0 201 -51
q30 -27 46.5 -70.5t16.5 -82.5z" />
    <glyph glyph-name="F_Rcommaaccent" unicode="&#xe0e8;" horiz-adv-x="666" 
d="M652 396q0 -83 -52 -145.5t-150 -62.5h-9l134 -188h-38l-152 215h53q89 0 134 46q50 51 50 134q0 29 -12 66t-34 59q-31 29 -68.5 40.5t-119.5 11.5h-117v-172h169v-27h-169v-373h-30v373h-134v-373h-30v740h363v-27h-333v-313h134v200h147q145 0 201 -51
q30 -27 46.5 -70.5t16.5 -82.5zM433 -83l-50 -121h-32l50 121h32z" />
    <glyph glyph-name="G_A" unicode="&#xe0e9;" horiz-adv-x="1020" 
d="M943 0h-30v728h-2l-295 -415h203q-7 -58 -36.5 -115t-77 -104.5t-118.5 -77t-153 -29.5q-167 0 -280 109t-113 274t111.5 274t272.5 109q155 0 265 -95l-18 -25q-102 93 -247 93q-148 0 -251 -102t-103 -254q0 -136 86.5 -233t212.5 -119l190 268h-218v27h237l304 427h60
v-740zM783 286h-186l-193 -271q7 -1 21 -1q134 0 235 80.5t123 191.5z" />
    <glyph glyph-name="G_Aacute" unicode="&#xe0ea;" horiz-adv-x="1020" 
d="M943 0h-30v728h-2l-295 -415h203q-7 -58 -36.5 -115t-77 -104.5t-118.5 -77t-153 -29.5q-167 0 -280 109t-113 274t111.5 274t272.5 109q155 0 265 -95l-18 -25q-102 93 -247 93q-148 0 -251 -102t-103 -254q0 -136 86.5 -233t212.5 -119l190 268h-218v27h237l304 427h60
v-740zM783 286h-186l-193 -271q7 -1 21 -1q134 0 235 80.5t123 191.5zM1064 953l-238 -138l-13 23l237 138z" />
    <glyph glyph-name="G_Agrave" unicode="&#xe0eb;" horiz-adv-x="1020" 
d="M943 0h-30v728h-2l-295 -415h203q-7 -58 -36.5 -115t-77 -104.5t-118.5 -77t-153 -29.5q-167 0 -280 109t-113 274t111.5 274t272.5 109q155 0 265 -95l-18 -25q-102 93 -247 93q-148 0 -251 -102t-103 -254q0 -136 86.5 -233t212.5 -119l190 268h-218v27h237l304 427h60
v-740zM783 286h-186l-193 -271q7 -1 21 -1q134 0 235 80.5t123 191.5zM998 838l-13 -23l-238 138l14 23z" />
    <glyph glyph-name="G_Acircumflex" unicode="&#xe0ec;" horiz-adv-x="1020" 
d="M943 0h-30v728h-2l-295 -415h203q-7 -58 -36.5 -115t-77 -104.5t-118.5 -77t-153 -29.5q-167 0 -280 109t-113 274t111.5 274t272.5 109q155 0 265 -95l-18 -25q-102 93 -247 93q-148 0 -251 -102t-103 -254q0 -136 86.5 -233t212.5 -119l190 268h-218v27h237l304 427h60
v-740zM783 286h-186l-193 -271q7 -1 21 -1q134 0 235 80.5t123 191.5zM1106 848l-26 -15l-170 94l-170 -94l-25 15l195 110z" />
    <glyph glyph-name="G_Adieresis" unicode="&#xe0ed;" horiz-adv-x="1020" 
d="M943 0h-30v728h-2l-295 -415h203q-7 -58 -36.5 -115t-77 -104.5t-118.5 -77t-153 -29.5q-167 0 -280 109t-113 274t111.5 274t272.5 109q155 0 265 -95l-18 -25q-102 93 -247 93q-148 0 -251 -102t-103 -254q0 -136 86.5 -233t212.5 -119l190 268h-218v27h237l304 427h60
v-740zM783 286h-186l-193 -271q7 -1 21 -1q134 0 235 80.5t123 191.5zM985 828h-29v116h29v-116zM865 828h-29v116h29v-116z" />
    <glyph glyph-name="G_Atilde" unicode="&#xe0ee;" horiz-adv-x="1020" 
d="M943 0h-30v728h-2l-295 -415h203q-7 -58 -36.5 -115t-77 -104.5t-118.5 -77t-153 -29.5q-167 0 -280 109t-113 274t111.5 274t272.5 109q155 0 265 -95l-18 -25q-102 93 -247 93q-148 0 -251 -102t-103 -254q0 -136 86.5 -233t212.5 -119l190 268h-218v27h237l304 427h60
v-740zM783 286h-186l-193 -271q7 -1 21 -1q134 0 235 80.5t123 191.5zM1091 875q-48 -32 -89 -32q-45 0 -91 25q-51 28 -84 28q-44 0 -78 -27l-20 20q43 35 98 35q37 0 85 -24q54 -27 89 -27q31 0 70 23z" />
    <glyph glyph-name="G_Aring" unicode="&#xe0ef;" horiz-adv-x="1020" 
d="M943 0h-30v728h-2l-295 -415h203q-7 -58 -36.5 -115t-77 -104.5t-118.5 -77t-153 -29.5q-167 0 -280 109t-113 274t111.5 274t272.5 109q155 0 265 -95l-18 -25q-102 93 -247 93q-148 0 -251 -102t-103 -254q0 -136 86.5 -233t212.5 -119l190 268h-218v27h237l304 427h60
v-740zM783 286h-186l-193 -271q7 -1 21 -1q134 0 235 80.5t123 191.5zM1002 846q0 -38 -27 -64.5t-65 -26.5t-64.5 26.5t-26.5 64.5t27 64.5t64 26.5q38 0 65 -26.5t27 -64.5zM974 847q0 26 -18.5 45t-45.5 19q-26 0 -44.5 -19t-18.5 -45t18.5 -44.5t44.5 -18.5
q27 0 45.5 18.5t18.5 44.5z" />
    <glyph glyph-name="G_Amacron" unicode="&#xe0f0;" horiz-adv-x="1020" 
d="M943 0h-30v728h-2l-295 -415h203q-7 -58 -36.5 -115t-77 -104.5t-118.5 -77t-153 -29.5q-167 0 -280 109t-113 274t111.5 274t272.5 109q155 0 265 -95l-18 -25q-102 93 -247 93q-148 0 -251 -102t-103 -254q0 -136 86.5 -233t212.5 -119l190 268h-218v27h237l304 427h60
v-740zM783 286h-186l-193 -271q7 -1 21 -1q134 0 235 80.5t123 191.5zM1088 870h-356v30h356v-30z" />
    <glyph glyph-name="G_Abreve" unicode="&#xe0f1;" horiz-adv-x="1020" 
d="M943 0h-30v728h-2l-295 -415h203q-7 -58 -36.5 -115t-77 -104.5t-118.5 -77t-153 -29.5q-167 0 -280 109t-113 274t111.5 274t272.5 109q155 0 265 -95l-18 -25q-102 93 -247 93q-148 0 -251 -102t-103 -254q0 -136 86.5 -233t212.5 -119l190 268h-218v27h237l304 427h60
v-740zM783 286h-186l-193 -271q7 -1 21 -1q134 0 235 80.5t123 191.5zM1102 926q-10 -16 -18.5 -26t-29.5 -25.5t-57.5 -23t-86.5 -7.5q-145 0 -191 82h38q36 -53 153 -53q53 0 88 10.5t45 19.5t21 23h38z" />
    <glyph glyph-name="G_Aogonek" unicode="&#xe0f2;" horiz-adv-x="1020" 
d="M986 -193q-24 -13 -56 -13q-47 0 -75.5 26.5t-28.5 70.5q0 70 88 109h-1v728h-2l-295 -415h203q-7 -58 -36.5 -115t-77 -104.5t-118.5 -77t-153 -29.5q-167 0 -280 109t-113 274t111.5 274t272.5 109q155 0 265 -95l-18 -25q-102 93 -247 93q-148 0 -251 -102t-103 -254
q0 -136 86.5 -233t212.5 -119l190 268h-218v27h237l304 427h60v-740q-48 -27 -67 -50.5t-19 -55.5q0 -31 21.5 -51t51.5 -20q23 0 56 13v-29zM783 286h-186l-193 -271q7 -1 21 -1q134 0 235 80.5t123 191.5z" />
    <glyph glyph-name="Gcircumflex_A" unicode="&#xe0f3;" horiz-adv-x="1020" 
d="M943 0h-30v728h-2l-295 -415h203q-7 -58 -36.5 -115t-77 -104.5t-118.5 -77t-153 -29.5q-167 0 -280 109t-113 274t111.5 274t272.5 109q155 0 265 -95l-18 -25q-102 93 -247 93q-148 0 -251 -102t-103 -254q0 -136 86.5 -233t212.5 -119l190 268h-218v27h237l304 427h60
v-740zM783 286h-186l-193 -271q7 -1 21 -1q134 0 235 80.5t123 191.5zM618 848l-26 -15l-170 94l-170 -94l-25 15l195 110z" />
    <glyph glyph-name="Gcircumflex_Amacron" unicode="&#xe0f4;" horiz-adv-x="1020" 
d="M943 0h-30v728h-2l-295 -415h203q-7 -58 -36.5 -115t-77 -104.5t-118.5 -77t-153 -29.5q-167 0 -280 109t-113 274t111.5 274t272.5 109q155 0 265 -95l-18 -25q-102 93 -247 93q-148 0 -251 -102t-103 -254q0 -136 86.5 -233t212.5 -119l190 268h-218v27h237l304 427h60
v-740zM783 286h-186l-193 -271q7 -1 21 -1q134 0 235 80.5t123 191.5zM618 848l-26 -15l-170 94l-170 -94l-25 15l195 110zM1088 870h-356v30h356v-30z" />
    <glyph glyph-name="Gcircumflex_Abreve" unicode="&#xe0f5;" horiz-adv-x="1020" 
d="M943 0h-30v728h-2l-295 -415h203q-7 -58 -36.5 -115t-77 -104.5t-118.5 -77t-153 -29.5q-167 0 -280 109t-113 274t111.5 274t272.5 109q155 0 265 -95l-18 -25q-102 93 -247 93q-148 0 -251 -102t-103 -254q0 -136 86.5 -233t212.5 -119l190 268h-218v27h237l304 427h60
v-740zM783 286h-186l-193 -271q7 -1 21 -1q134 0 235 80.5t123 191.5zM618 848l-26 -15l-170 94l-170 -94l-25 15l195 110zM1102 926q-10 -16 -18.5 -26t-29.5 -25.5t-57.5 -23t-86.5 -7.5q-145 0 -191 82h38q36 -53 153 -53q53 0 88 10.5t45 19.5t21 23h38z" />
    <glyph glyph-name="Gbreve_A" unicode="&#xe0f6;" horiz-adv-x="1020" 
d="M943 0h-30v728h-2l-295 -415h203q-7 -58 -36.5 -115t-77 -104.5t-118.5 -77t-153 -29.5q-167 0 -280 109t-113 274t111.5 274t272.5 109q155 0 265 -95l-18 -25q-102 93 -247 93q-148 0 -251 -102t-103 -254q0 -136 86.5 -233t212.5 -119l190 268h-218v27h237l304 427h60
v-740zM783 286h-186l-193 -271q7 -1 21 -1q134 0 235 80.5t123 191.5zM617 926q-10 -16 -18.5 -26t-29.5 -25.5t-57.5 -23t-86.5 -7.5q-145 0 -191 82h38q36 -53 153 -53q53 0 88 10.5t45 19.5t21 23h38z" />
    <glyph glyph-name="Gbreve_Acircumflex" unicode="&#xe0f7;" horiz-adv-x="1020" 
d="M943 0h-30v728h-2l-295 -415h203q-7 -58 -36.5 -115t-77 -104.5t-118.5 -77t-153 -29.5q-167 0 -280 109t-113 274t111.5 274t272.5 109q155 0 265 -95l-18 -25q-102 93 -247 93q-148 0 -251 -102t-103 -254q0 -136 86.5 -233t212.5 -119l190 268h-218v27h237l304 427h60
v-740zM783 286h-186l-193 -271q7 -1 21 -1q134 0 235 80.5t123 191.5zM612 926q-10 -16 -18.5 -26t-29.5 -25.5t-57.5 -23t-86.5 -7.5q-145 0 -191 82h38q36 -53 153 -53q53 0 88 10.5t45 19.5t21 23h38zM1109 848l-26 -15l-170 94l-170 -94l-25 15l195 110z" />
    <glyph glyph-name="Gdotaccent_A" unicode="&#xe0f8;" horiz-adv-x="1020" 
d="M943 0h-30v728h-2l-295 -415h203q-7 -58 -36.5 -115t-77 -104.5t-118.5 -77t-153 -29.5q-167 0 -280 109t-113 274t111.5 274t272.5 109q155 0 265 -95l-18 -25q-102 93 -247 93q-148 0 -251 -102t-103 -254q0 -136 86.5 -233t212.5 -119l190 268h-218v27h237l304 427h60
v-740zM783 286h-186l-193 -271q7 -1 21 -1q134 0 235 80.5t123 191.5zM438 828h-31v116h31v-116z" />
    <glyph glyph-name="Gdotaccent_Agrave" unicode="&#xe0f9;" horiz-adv-x="1020" 
d="M943 0h-30v728h-2l-295 -415h203q-7 -58 -36.5 -115t-77 -104.5t-118.5 -77t-153 -29.5q-167 0 -280 109t-113 274t111.5 274t272.5 109q155 0 265 -95l-18 -25q-102 93 -247 93q-148 0 -251 -102t-103 -254q0 -136 86.5 -233t212.5 -119l190 268h-218v27h237l304 427h60
v-740zM783 286h-186l-193 -271q7 -1 21 -1q134 0 235 80.5t123 191.5zM438 828h-31v116h31v-116zM1000 838l-13 -23l-238 138l14 23z" />
    <glyph glyph-name="Gcommaaccent_A" unicode="&#xe0fa;" horiz-adv-x="1020" 
d="M943 0h-30v728h-2l-295 -415h203q-7 -58 -36.5 -115t-77 -104.5t-118.5 -77t-153 -29.5q-167 0 -280 109t-113 274t111.5 274t272.5 109q155 0 265 -95l-18 -25q-102 93 -247 93q-148 0 -251 -102t-103 -254q0 -136 86.5 -233t212.5 -119l190 268h-218v27h237l304 427h60
v-740zM783 286h-186l-193 -271q7 -1 21 -1q134 0 235 80.5t123 191.5zM461 -83l-50 -121h-32l50 121h32z" />
    <glyph glyph-name="Gcommaaccent_Amacron" unicode="&#xe0fb;" horiz-adv-x="1020" 
d="M943 0h-30v728h-2l-295 -415h203q-7 -58 -36.5 -115t-77 -104.5t-118.5 -77t-153 -29.5q-167 0 -280 109t-113 274t111.5 274t272.5 109q155 0 265 -95l-18 -25q-102 93 -247 93q-148 0 -251 -102t-103 -254q0 -136 86.5 -233t212.5 -119l190 268h-218v27h237l304 427h60
v-740zM783 286h-186l-193 -271q7 -1 21 -1q134 0 235 80.5t123 191.5zM457 -83l-50 -121h-32l50 121h32zM1091 870h-356v30h356v-30z" />
    <glyph glyph-name="G_O" unicode="&#xe0fc;" horiz-adv-x="1245" 
d="M1203 370q0 -165 -111.5 -274t-272.5 -109q-105 0 -194 50q-92 -50 -200 -50q-161 0 -272.5 109t-111.5 274t111.5 274t272.5 109q106 0 200 -50q89 50 194 50q161 0 272.5 -109t111.5 -274zM1173 370q0 152 -103 254t-251 102q-91 0 -166 -40q68 -45 108 -110h-36
q-45 58 -101 94q-74 -48 -116.5 -126t-42.5 -174q0 -33 4 -57h350q-9 -78 -53 -145.5t-113 -113.5q75 -40 166 -40q148 0 251 102t103 254zM783 286h-309q32 -140 151 -216q63 39 104.5 96t53.5 120zM597 55q-123 83 -153 231h-102v27h97q-4 24 -4 57q0 99 43.5 181.5
t118.5 133.5q-79 41 -172 41q-148 0 -251 -102t-103 -254t103 -254t251 -102q93 0 172 41z" />
    <glyph glyph-name="G_Oacute" unicode="&#xe0fd;" horiz-adv-x="1245" 
d="M1203 370q0 -165 -111.5 -274t-272.5 -109q-105 0 -194 50q-92 -50 -200 -50q-161 0 -272.5 109t-111.5 274t111.5 274t272.5 109q106 0 200 -50q89 50 194 50q161 0 272.5 -109t111.5 -274zM1173 370q0 152 -103 254t-251 102q-91 0 -166 -40q68 -45 108 -110h-36
q-45 58 -101 94q-74 -48 -116.5 -126t-42.5 -174q0 -33 4 -57h350q-9 -78 -53 -145.5t-113 -113.5q75 -40 166 -40q148 0 251 102t103 254zM783 286h-309q32 -140 151 -216q63 39 104.5 96t53.5 120zM597 55q-123 83 -153 231h-102v27h97q-4 24 -4 57q0 99 43.5 181.5
t118.5 133.5q-79 41 -172 41q-148 0 -251 -102t-103 -254t103 -254t251 -102q93 0 172 41zM976 953l-238 -138l-13 23l237 138z" />
    <glyph glyph-name="G_Ograve" unicode="&#xe0fe;" horiz-adv-x="1245" 
d="M1203 370q0 -165 -111.5 -274t-272.5 -109q-105 0 -194 50q-92 -50 -200 -50q-161 0 -272.5 109t-111.5 274t111.5 274t272.5 109q106 0 200 -50q89 50 194 50q161 0 272.5 -109t111.5 -274zM1173 370q0 152 -103 254t-251 102q-91 0 -166 -40q68 -45 108 -110h-36
q-45 58 -101 94q-74 -48 -116.5 -126t-42.5 -174q0 -33 4 -57h350q-9 -78 -53 -145.5t-113 -113.5q75 -40 166 -40q148 0 251 102t103 254zM783 286h-309q32 -140 151 -216q63 39 104.5 96t53.5 120zM597 55q-123 83 -153 231h-102v27h97q-4 24 -4 57q0 99 43.5 181.5
t118.5 133.5q-79 41 -172 41q-148 0 -251 -102t-103 -254t103 -254t251 -102q93 0 172 41zM920 838l-13 -23l-238 138l14 23z" />
    <glyph glyph-name="G_Ocircumflex" unicode="&#xe0ff;" horiz-adv-x="1245" 
d="M1203 370q0 -165 -111.5 -274t-272.5 -109q-105 0 -194 50q-92 -50 -200 -50q-161 0 -272.5 109t-111.5 274t111.5 274t272.5 109q106 0 200 -50q89 50 194 50q161 0 272.5 -109t111.5 -274zM1173 370q0 152 -103 254t-251 102q-91 0 -166 -40q68 -45 108 -110h-36
q-45 58 -101 94q-74 -48 -116.5 -126t-42.5 -174q0 -33 4 -57h350q-9 -78 -53 -145.5t-113 -113.5q75 -40 166 -40q148 0 251 102t103 254zM783 286h-309q32 -140 151 -216q63 39 104.5 96t53.5 120zM597 55q-123 83 -153 231h-102v27h97q-4 24 -4 57q0 99 43.5 181.5
t118.5 133.5q-79 41 -172 41q-148 0 -251 -102t-103 -254t103 -254t251 -102q93 0 172 41zM1018 848l-26 -15l-170 94l-170 -94l-25 15l195 110z" />
    </font>
</defs>
</svg>
